<?xml version="1.0" encoding="utf-8"?>
<!-- Generator: Adobe Illustrator 27.5.0, SVG Export Plug-In . SVG Version: 6.00 Build 0)  -->
<svg version="1.1" id="Background" xmlns="http://www.w3.org/2000/svg" xmlns:xlink="http://www.w3.org/1999/xlink" x="0px" y="0px"
	 viewBox="0 0 750 500" style="enable-background:new 0 0 750 500;" xml:space="preserve">
<g id="XMLID_1010_">
	<defs>
		<rect id="XMLID_853_" transform="matrix(-1 -1.224647e-16 1.224647e-16 -1 750 500)" width="750" height="500"/>
	</defs>
	<clipPath id="XMLID_00000063621513202967997540000010852925243913611153_">
		<use xlink:href="#XMLID_853_"  style="overflow:visible;"/>
	</clipPath>
	
		<path id="XMLID_957_" style="opacity:0.75;clip-path:url(#XMLID_00000063621513202967997540000010852925243913611153_);fill:#862665;" d="
		M26.946,219.612c-23.501,8.53-52.412-11.637-69.679-17.709c-15.806-5.553-50.236-7.257-63.338,11.764
		c-13.108,19.024-17.333,54.024-6.309,77.734c4.8,10.315,11.829,17.645,16.724,27.851c15.664,32.673,3.958,78.281,9.792,117.655
		c6.725,45.384,36.008,75.431,64.619,87.382c18.195,7.602,38.021,9.813,54.618-2.258c16.594-12.071,28.624-41.431,24.236-70.255
		c-3.953-25.973-19.863-52.266-11.987-75.009c5.504-15.909,19.319-17.824,29.124-27.243c15.36-14.763,19.57-49.685,11.987-76.615
		c-7.587-26.931-24.617-45.657-42.514-53.6C38.852,216.924,32.915,217.449,26.946,219.612"/>
	
		<rect id="XMLID_980_" x="-2.667" transform="matrix(-1 -1.224647e-16 1.224647e-16 -1 744.6666 500)" style="opacity:0.5;clip-path:url(#XMLID_00000063621513202967997540000010852925243913611153_);fill:#FBF7F4;" width="750" height="500"/>
	
		<path id="XMLID_979_" style="opacity:0.85;clip-path:url(#XMLID_00000063621513202967997540000010852925243913611153_);fill:#6D4776;" d="
		M518.882,482.394c3.889,9.802,13.014,22.028,23.874,28.427c13.234,7.796,29.275-5.259,44.632-4.996
		c11.793,0.201,22.186,8.588,28.22,18.72c6.037,10.132,8.554,21.904,11.285,33.377c3.541,14.865,7.686,29.837,15.644,42.881
		c7.958,13.044,20.269,24.11,35.187,27.414c16.707,3.699,34.063-2.688,48.809-11.369c9.012-5.303,17.941-12.059,21.683-21.823
		c7.353-19.19-8.023-39.391-9.306-59.904c-1.574-25.118,17.708-46.07,27.444-69.278c14.19-33.828,7.356-73.945-11.435-105.454
		c-10.605-17.784-25.457-33.842-44.665-41.575c-19.211-7.73-43.169-5.633-58.112,8.703c-14.856,14.253-17.965,36.359-23.598,56.159
		c-5.633,19.799-18.028,41.316-38.501,43.474c-12.274,1.292-23.903-4.898-35.629-8.753c-11.726-3.854-26.535-4.621-34.498,4.812
		c-3.579,4.239-5.078,9.836-5.992,15.31C511.06,455.669,515.16,473.01,518.882,482.394z"/>
	
		<path id="XMLID_978_" style="opacity:0.75;clip-path:url(#XMLID_00000063621513202967997540000010852925243913611153_);fill:#862665;" d="
		M290.83,533.894c25.08,34.554,23.999,88.978,29.574,119.162c5.108,27.627,27.061,83.769,55.902,97.489
		c28.848,13.729,68.215,6.934,85.314-20.044c7.437-11.743,10.226-25.919,17.484-37.772c23.236-37.938,78.807-36.802,115.797-61.505
		c42.636-28.475,53.752-87.339,46.483-138.086c-4.621-32.274-15.981-65.079-39.991-87.134
		c-24.008-22.048-62.88-30.023-89.878-11.749c-24.328,16.465-40.75,52.319-69.867,48.467c-20.363-2.686-31.878-24.203-48.446-36.341
		c-25.962-19.013-65.237-12.225-88.061,10.461c-22.822,22.691-30.59,57.412-26.529,89.339
		C279.826,515.754,284.464,525.117,290.83,533.894"/>
	<g id="XMLID_963_" style="clip-path:url(#XMLID_00000063621513202967997540000010852925243913611153_);">
		<path id="XMLID_953_" style="fill:none;stroke:#6D4776;stroke-width:2;stroke-miterlimit:10;" d="M351.618-42.311
			C297.462,12.342,245.632,55.9,169.839,65.616c-34.023,4.362-48.893,1.489-68.881,32.468
			c-21.542,33.386-31.429,89.821-44.651,128.232c0,0-77.192,210.068-165.104,145.471"/>
		<path id="XMLID_975_" style="fill:none;stroke:#6D4776;stroke-width:2;stroke-miterlimit:10;" d="M348.968-43.232
			c-59.307,54.616-118.727,85.44-197.251,98.436c-31.863,5.274-46.517,3.446-65.441,32.434
			c-21.055,32.069-28.48,86.284-44.468,122.113c-2.336,5.234-74.497,196.266-160.234,138.472"/>
		<path id="XMLID_974_" style="fill:none;stroke:#6D4776;stroke-width:2;stroke-miterlimit:10;" d="M346.318-44.153
			C281.86,10.426,214.919,28.325,133.594,44.792c-29.704,6.015-44.072,5.449-62,32.4c-20.491,30.804-28.617,81.536-44.285,115.994
			c-4.745,10.435-71.802,182.464-155.363,131.473"/>
		<path id="XMLID_973_" style="fill:none;stroke:#6D4776;stroke-width:2;stroke-miterlimit:10;" d="M343.668-45.074
			C274.059,9.469,199.629,14.213,115.472,34.38c-27.555,6.603-41.674,7.422-58.559,32.366
			c-19.975,29.508-28.752,76.782-44.102,109.875C5.575,192.22-56.296,345.284-137.682,301.095"/>
		<path id="XMLID_972_" style="fill:none;stroke:#6D4776;stroke-width:2;stroke-miterlimit:10;" d="M341.018-45.995
			C266.258,8.511,184.324-0.173,97.35,23.968c-25.424,7.057-39.284,9.39-55.119,32.332C22.763,84.507,13.347,128.322-1.688,160.057
			c-9.817,20.719-66.412,154.861-145.623,117.475"/>
		<path id="XMLID_971_" style="fill:none;stroke:#6D4776;stroke-width:2;stroke-miterlimit:10;" d="M338.368-46.916
			C258.457,7.554,168.952-14.89,79.227,13.556c-23.32,7.393-36.905,11.351-51.678,32.298C8.578,72.754-1.463,113.11-16.187,143.492
			c-12.498,25.789-63.717,141.059-140.752,110.476"/>
		<path id="XMLID_970_" style="fill:none;stroke:#6D4776;stroke-width:2;stroke-miterlimit:10;" d="M335.718-47.837
			C250.656,6.596,153.446-30.01,61.105,3.144c-21.248,7.629-34.536,13.305-48.237,32.264
			c-18.488,25.583-29.137,62.481-43.553,91.519c-15.293,30.803-61.022,127.257-135.882,103.477"/>
		<path id="XMLID_969_" style="fill:none;stroke:#6D4776;stroke-width:2;stroke-miterlimit:10;" d="M333.068-48.758
			C242.855,5.638,137.722-45.623,42.982-7.268C23.764,0.512,10.803,7.982-1.815,24.963c-18.021,24.253-29.257,57.698-43.37,85.4
			c-18.213,35.75-58.327,113.456-131.012,96.478"/>
		<path id="XMLID_968_" style="fill:none;stroke:#6D4776;stroke-width:2;stroke-miterlimit:10;" d="M330.418-49.679
			C235.054,4.681,121.664-61.842,24.86-17.68C7.622-9.816-4.977-0.496-16.497,14.517c-17.577,22.906-29.372,52.905-43.187,79.281
			c-21.275,40.619-55.632,99.654-126.142,89.479"/>
		<path id="XMLID_952_" style="fill:none;stroke:#6D4776;stroke-width:2;stroke-miterlimit:10;" d="M327.768-50.6
			C227.253,3.723,105.114-78.809,6.738-28.092c-86.342,44.513-73.259,194.167-202.191,187.805"/>
	</g>
	<path id="XMLID_962_" style="clip-path:url(#XMLID_00000063621513202967997540000010852925243913611153_);fill:#FBC2C9;" d="
		M788.868-59.408c-0.251-2.635-2.125-6.632-4.988-11.217c-14.089-22.567-37.562-37.557-63.771-42.141
		c-23.227-4.059-51.872-6.429-84.076,3.573c-45.816,14.228-83.417,52.481-96.857,98.536c-8.245,28.26-3.688,65.486,23.292,77.27
		c20.29,8.861,43.315-0.767,64.212-8.086c20.899-7.321,47.552-10.969,62.203,5.635c16.853,19.108,4.933,48.412,3.51,73.851
		c-2.08,37.187,22.826,73.289,56.962,88.182c34.141,14.893,75.283,9.725,107.043-9.728c31.76-19.453,54.397-51.913,65.929-87.327
		c10.129-31.111,11.95-66.03-1.255-95.961C905.65-1.791,867.08-27.893,828.349-17.21c-11.858,3.271-24.884,0.371-33.516-8.397
		C784.547-36.053,790.131-46.078,788.868-59.408"/>
	
		<path id="XMLID_961_" style="opacity:0.85;clip-path:url(#XMLID_00000063621513202967997540000010852925243913611153_);fill:#6D4776;" d="
		M-76.14,123.56c16.006,61.59,63.519,114.939,125.666,141.102c17.888,7.53,42.396,11.534,54.966-2.87
		c14.707-16.86-0.798-40.475-13.741-58.009c-15.396-20.857-27.379-43.903-35.423-68.141c-6.476-19.504-15.714-37.515,5.725-43.255
		c20.842-5.581,29.59,8.549,43.388,23.62c14.182,15.496,47.894,45.66,73.227,30.327c26.812-16.228,4.03-59.248-6-72.667
		c-20.544-27.486-22.669-21.661-36.866-52.465c-2.537-5.508-4.37-11.632-2.886-17.53c4.386-17.467,31.236-19,49.202-12.821
		c17.966,6.179,38.316,15.76,55.141,6.682c17.536-9.463,17.688-34.504,5.479-49.056c-12.208-14.546-32.173-21.207-51.083-27.195
		c-36.594-11.584-73.187-23.166-109.78-34.75c-8.168-2.588-16.67-5.209-25.325-4.304c-15.31,1.596-27.433,14.275-31.716,28.008
		c-4.287,13.734-2.233,28.314,0.734,42.2C27.362-34.479-21.947-32.818-26.448-20c-8.508,24.205,8.922,45.423-15.785,35.042
		C-58.694,8.123-76.325-5.476-92.508,2.606c-14.124,7.058-14.792,25.349-12.332,39.843C-99.807,72.101-82.715,98.25-76.14,123.56z"
		/>
	
		<path id="XMLID_960_" style="opacity:0.75;clip-path:url(#XMLID_00000063621513202967997540000010852925243913611153_);fill:#FBC2C9;" d="
		M335.228,486.917c-9.041-12.563-28.808-27.444-51.236-34.107c-27.333-8.118-57.44,12.54-87.979,15.024
		c-23.45,1.909-45.219-7.535-58.565-20.149c-13.351-12.614-19.932-28.1-26.897-43.142c-9.03-19.49-19.274-39.012-36.832-55.217
		s-43.496-28.924-73.571-30.642c-33.681-1.923-67.296,9.942-95.419,24.433c-17.187,8.853-34.016,19.659-40.137,33.583
		c-12.028,27.366,21.226,51.896,26.529,79.456c6.499,33.747-28.986,65.707-45.207,98.957
		c-23.641,48.466-4.681,101.566,36.873,140.79c23.453,22.138,55.108,41.153,94.299,48.079c39.195,6.922,86.5-0.35,114.254-22.541
		c27.593-22.063,30.8-52.594,39.33-80.467c8.53-27.872,30.26-59.323,70.633-66.033c24.206-4.02,48.135,2.218,71.942,5.272
		c23.807,3.055,53.325,1.354,67.875-12.901c6.539-6.406,8.765-14.268,9.846-21.855C354.352,521.686,343.881,498.945,335.228,486.917
		z"/>
	
		<path id="XMLID_958_" style="opacity:0.75;clip-path:url(#XMLID_00000063621513202967997540000010852925243913611153_);fill:#862665;" d="
		M93.121,68.025C66.294,19.33,150.467-38.52,224.931-72.828c36.77-16.944,77.7-30.79,120.659-37.098
		c57.35-8.419,116.781-2.578,161.577,15.881c44.796,18.459,74.41,49.309,80.518,83.882c4.982,28.196-6.941,60.295-41.414,82.751
		c-34.473,22.462-93.849,31.141-127.924,14.162c-20.56-10.246-28.864-27.114-40.786-41.877
		c-11.917-14.76-31.858-29.075-60.099-28.416c-32.826,0.764-59.417,21.084-74.561,40.286
		c-15.144,19.199-26.475,40.759-53.543,54.564c-10.007,5.102-22.436,8.913-34.402,8.479c-16.877-0.616-28.304-9.237-36.069-17.983
		C107.298,88.751,97.027,75.119,93.121,68.025z"/>
	
		<circle id="XMLID_956_" style="clip-path:url(#XMLID_00000063621513202967997540000010852925243913611153_);fill:#FBC2C9;" cx="175.859" cy="431.969" r="22.499"/>
	
		<circle id="XMLID_955_" style="clip-path:url(#XMLID_00000063621513202967997540000010852925243913611153_);fill:#FBC2C9;" cx="600.859" cy="108.74" r="22.499"/>
	
		<ellipse id="XMLID_954_" transform="matrix(0.2298 -0.9732 0.9732 0.2298 -38.2966 214.0872)" style="opacity:0.75;clip-path:url(#XMLID_00000063621513202967997540000010852925243913611153_);fill:#862665;" cx="116.107" cy="131.238" rx="11.249" ry="11.249"/>
	<g id="XMLID_854_" style="clip-path:url(#XMLID_00000063621513202967997540000010852925243913611153_);">
		<g id="XMLID_1099_">
			<path id="XMLID_1109_" style="fill:none;stroke:#6D4776;stroke-width:2;stroke-miterlimit:10;" d="M771.036,541.791
				c29.854-70.912,50.342-135.44,30.404-209.206c-8.95-33.113-17.279-45.762,3.73-76.058c22.641-32.651,71.034-63.323,101.494-90.2
				c0,0,164.724-151.503,71.471-208.118"/>
			<path id="XMLID_1108_" style="fill:none;stroke:#6D4776;stroke-width:2;stroke-miterlimit:10;" d="M769.173,539.693
				c27.491-72.166,38.82-136.785,17.611-210.311c-9.289-32.476-17.529-46.864,1.432-77.183
				c20.453-32.887,67.734-61.228,95.294-90.177c4.804-5.046,155.981-145.086,69.169-203.722"/>
			<path id="XMLID_1107_" style="fill:none;stroke:#6D4776;stroke-width:2;stroke-miterlimit:10;" d="M767.311,537.595
				c25.127-73.421,27.152-138.085,4.818-211.416c-9.691-31.82-17.71-47.927-0.865-78.308c18.341-33.081,62.204-61.454,89.094-90.155
				c9.528-10.169,147.239-138.668,66.867-199.326"/>
			<path id="XMLID_1106_" style="fill:none;stroke:#6D4776;stroke-width:2;stroke-miterlimit:10;" d="M765.448,535.497
				c22.763-74.676,15.587-139.413-7.975-212.52c-10.048-31.176-17.936-49.021-3.163-79.434
				c16.18-33.308,56.668-61.676,82.894-90.133c14.166-15.371,138.497-132.251,64.566-194.93"/>
			<path id="XMLID_1105_" style="fill:none;stroke:#6D4776;stroke-width:2;stroke-miterlimit:10;" d="M763.586,533.399
				c20.4-75.931,4.042-140.746-20.769-213.625c-10.395-30.535-18.171-50.123-5.461-80.559
				c14.009-33.544,51.128-61.891,76.695-90.111c18.713-20.655,129.755-125.834,62.264-190.533"/>
			<path id="XMLID_1104_" style="fill:none;stroke:#6D4776;stroke-width:2;stroke-miterlimit:10;" d="M761.723,531.3
				c18.036-77.185-7.482-142.086-33.562-214.729c-10.734-29.897-18.418-51.231-7.758-81.684
				c11.826-33.786,45.581-62.1,70.495-90.088c23.164-26.023,121.013-119.416,59.963-186.137"/>
			<path id="XMLID_1103_" style="fill:none;stroke:#6D4776;stroke-width:2;stroke-miterlimit:10;" d="M759.861,529.202
				c15.672-78.44-18.983-143.434-46.355-215.834c-11.063-29.262-18.676-52.343-10.056-82.809
				c9.63-34.033,40.029-62.302,64.295-90.066c27.512-31.478,112.271-112.999,57.661-181.741"/>
			<path id="XMLID_1102_" style="fill:none;stroke:#6D4776;stroke-width:2;stroke-miterlimit:10;" d="M757.998,527.104
				c13.308-79.695-30.463-144.792-59.148-216.938c-11.384-28.631-18.948-53.456-12.354-83.934
				c7.418-34.282,34.47-62.497,58.095-90.044C776.344,99.165,848.12,29.607,799.951-41.157"/>
			<path id="XMLID_1101_" style="fill:none;stroke:#6D4776;stroke-width:2;stroke-miterlimit:10;" d="M756.136,525.006
				c10.945-80.949-41.831-146.198-71.941-218.043c-11.661-28.018-19.283-54.576-14.651-85.059
				c5.135-34.538,28.905-62.685,51.895-90.021c35.878-42.661,94.787-100.164,53.058-172.949"/>
			<path id="XMLID_1100_" style="fill:none;stroke:#6D4776;stroke-width:2;stroke-miterlimit:10;" d="M754.273,522.908
				C766.135,409.27,643.245,327.861,652.59,217.576c8.202-96.794,151.526-141.802,96.451-258.552"/>
		</g>
	</g>
</g>
</svg>
