<?xml version="1.0" encoding="utf-8"?>
<!-- Generator: Adobe Illustrator 27.5.0, SVG Export Plug-In . SVG Version: 6.00 Build 0)  -->
<svg version="1.1" xmlns="http://www.w3.org/2000/svg" xmlns:xlink="http://www.w3.org/1999/xlink" x="0px" y="0px"
	 viewBox="0 0 750 500" style="enable-background:new 0 0 750 500;" xml:space="preserve">
<g id="BACKGROUND">
	<g>
		<rect style="fill:#FFFFFF;" width="750" height="500"/>
		<g>
			<path style="opacity:0.45;fill:#C9D4DB;" d="M558.871,61.257c-66.703-9.702-137.418,20.207-204.323,29.571
				c-72.334,10.123-136.189-4.231-206.957-4.704c-74.127-0.495-99.538,50.16-69.796,118.11
				c25.762,58.856,73.862,120.45,123.847,152.875c99.109,64.291,261.739,129.79,383.116,49.389
				C718.605,317.836,719.763,84.657,558.871,61.257z"/>
			<g>
				<path style="fill:#C9D4DB;" d="M61.133,203.118c-14.958-37.468-13.975-71.589,2.768-96.077
					c14.69-21.485,40.333-33.145,72.131-32.898c24.999,0.212,49.426,2.194,73.049,4.11c44.776,3.632,87.071,7.063,133.875-0.323
					c22.539-3.558,45.995-9.765,68.677-15.769c15.088-3.993,30.69-8.122,46.039-11.487l0.268,1.221
					c-15.322,3.359-30.911,7.484-45.987,11.475c-22.713,6.011-46.2,12.228-68.801,15.795c-46.954,7.411-89.319,3.974-134.172,0.335
					c-23.6-1.915-48.004-3.895-72.958-4.106c-31.426-0.299-56.642,11.224-71.089,32.354c-16.501,24.133-17.438,57.839-2.639,94.908
					L61.133,203.118z"/>
			</g>
			<g>
				<path style="fill:#C9D4DB;" d="M684.934,291.789l-1.174-0.43c27.761-75.885,17.53-175.23-55.733-218.277l0.633-1.078
					c33.206,19.511,55.911,52.098,65.66,94.236C703.448,205.702,700.115,250.289,684.934,291.789z"/>
			</g>
		</g>
	</g>
</g>
<g id="OBJECTS">
	<g>
		<g>
			<rect x="45.938" y="426.18" style="fill:#021627;" width="658.125" height="2.5"/>
		</g>
		<g>
			<rect x="142.035" y="451.185" style="fill:#021627;" width="465.93" height="2.5"/>
		</g>
	</g>
	<g>
		<g>
			<path style="fill:#000E94;" d="M429.269,220.464c-6.737,0-12.171-5.951-15.714-11.351l8.46-5.768
				c-0.31-3.771-2.465-13.885-7.621-25.581c-6.111-13.863-13.616-23.545-21.134-27.261l8.701-18.294
				c27.676,13.68,40.859,61.108,39.979,73.669c-0.719,10.272-6.303,13.286-9.568,14.168
				C431.311,220.332,430.275,220.464,429.269,220.464z"/>
		</g>
		<g>
			<path style="fill:#021627;" d="M339.409,128.681c-12.807-15.653,8.239-17.506,7.826-30.594
				c-1.247-39.558,44.112-34.863,49.804-13.518c4.98,18.676,8.275,20.849,10.063,25.404c2.532,6.45-0.818,13.195-4.598,18.361
				c-4.231,5.782-10.407,13.011-9.548,20.816c4.795,43.564-73.468,20.797-50.388-5.77
				C346.669,138.659,342.913,132.964,339.409,128.681z"/>
			<g>
				<path style="fill:#021627;" d="M364.137,170.958c-12.932,0-28.274-7.732-33.066-17.54c-2.992-6.124-1.397-12.22,4.493-17.166
					c4.276-3.591,1.81-9.03-1.167-13.876c-6.498-10.579-1.068-14.627,4.182-18.542c3.57-2.663,7.262-5.416,7.822-10.32
					c1.852-16.23,11.287-25.948,25.238-25.995c0.032,0,0.066-0.001,0.098-0.001c13.381,0,25.78,9.209,27.102,20.149
					c1.643,13.593,3.603,18.549,5.032,22.168c0.528,1.336,0.984,2.49,1.3,3.804c1.339,5.571-1.126,11.521-7.326,17.687
					c-0.521,0.518-1.064,1.047-1.621,1.59c-4.622,4.505-10.376,10.111-10.6,16.742c-0.382,11.283-5.954,18.642-15.691,20.721
					C368.091,170.771,366.142,170.958,364.137,170.958z M371.737,68.768c-0.032,0-0.063,0.001-0.094,0.001
					c-13.255,0.044-22.227,9.348-24,24.886c-0.621,5.442-4.71,8.491-8.317,11.181c-5.239,3.907-9.763,7.281-3.863,16.886l0,0
					c3.065,4.991,5.938,11.261,0.905,15.488c-5.485,4.607-6.928,10.022-4.173,15.66c5.323,10.895,24.238,19.113,37.478,16.287
					c6.453-1.378,14.241-5.886,14.702-19.541c0.241-7.133,6.194-12.934,10.978-17.595c0.554-0.539,1.094-1.066,1.612-1.581
					c5.869-5.836,8.222-11.391,6.992-16.508c-0.296-1.229-0.716-2.292-1.247-3.637c-1.455-3.682-3.448-8.724-5.11-22.477
					C396.347,77.475,384.515,68.768,371.737,68.768z"/>
			</g>
		</g>
		<g>
			<g>
				<polygon style="fill:#A34F2A;" points="338.662,444.245 322.242,436.09 325.489,377.86 346.129,377.86 				"/>
				<polygon style="fill:#A34F2A;" points="358.693,451.721 319.79,451.721 322.242,436.09 359.967,449.765 				"/>
				<path style="fill:#021627;" d="M345.658,443.871c-6.052,11.053-24.911,0.12-24.911,0.12l-1.253,7.986h40.91l0.3-2.21
					L345.658,443.871z"/>
			</g>
			<path style="fill:#E9B14D;" d="M341.859,432.663h-22.064c0,0-9.863-302.518,65.123-246.694h0l-7.473,66.627L341.859,432.663z"/>
			<g>
				<path style="fill:#FFFFFF;" d="M324.153,432.69c-0.02-0.48-1.965-48.581,0.459-100.687
					c3.26-70.064,12.44-113.604,27.286-129.407l0.911,0.855c-34.96,37.215-27.486,227.27-27.407,229.185L324.153,432.69z"/>
			</g>
			<g>
				<polygon style="fill:#A34F2A;" points="405.9,444.245 389.052,436.09 386.031,377.556 410.897,377.86 				"/>
				<polygon style="fill:#A34F2A;" points="426.322,451.721 387.419,451.721 389.052,436.09 427.494,449.765 				"/>
				<path style="fill:#021627;" d="M412.876,443.871c-5.473,11.053-24.905,0.12-24.905,0.12l-0.835,7.986h40.91l0.184-2.21
					L412.876,443.871z"/>
			</g>
			<path style="fill:#E9B14D;" d="M385.432,432.55l23.329,0.113c0,0,24.858-161.259,2.847-225.618
				c-6.754-19.748-19.676-25.859-36.852-21.128h0L385.432,432.55z"/>
			<g>
				<g>
					<path style="fill:#021627;" d="M400.533,345.277l-0.678-1.051l6.807-4.45c2.407-1.59,4.81-3.176,6.699-4.381l0.678,1.051
						l-6.691,4.375c-0.012,0.008-0.023,0.016-0.035,0.023C404.879,342.451,402.443,344.06,400.533,345.277z"/>
				</g>
				<g>
					<path style="fill:#021627;" d="M400.533,353.845l-0.678-1.051l6.806-4.45c2.407-1.589,4.811-3.176,6.7-4.381l0.678,1.051
						l-6.692,4.376c-0.012,0.007-0.023,0.015-0.034,0.023C404.879,351.019,402.443,352.627,400.533,353.845z"/>
				</g>
			</g>
			<g>
				<polygon style="fill:#021627;" points="342.472,432.784 341.246,432.542 376.887,252.198 385.672,247.074 386.301,248.154 
					378.004,252.993 				"/>
			</g>
		</g>
		<path style="fill:#FFFFFF;" d="M411.32,217.488c2.235-6.489,4.454-21.026,4.86-22.9c6.137-28.335-0.02-67.23-36.628-67.23
			c-2.158,0-4.315,0-6.473,0c-16.645,0-29.923,8.824-35.921,24.341c-4.495,11.628-4.319,24.174-2.079,36.272
			c0.368,1.989,4.727,21.755,6.969,29.518H411.32z"/>
		<g>
			<g>
				<g>
					<path style="fill:#A34F2A;" d="M375.646,136.444L375.646,136.444c3.702-0.007,6.698-3.014,6.691-6.717l0.225-3.965
						l-0.271-20.273l-13.408,0.025l0.046,24.238C368.936,133.456,371.943,136.451,375.646,136.444z"/>
					<polygon style="fill:#021627;" points="384.907,132.314 365.255,114.521 383.649,103.798 					"/>
				</g>
				<path style="fill:#A34F2A;" d="M382.749,122.961c10.987-0.311,15.533-12.034,14.258-24.321
					c-1.543-14.871-9.998-27.315-24.48-24.14C346.13,80.286,355.657,123.728,382.749,122.961z"/>
				<g>
					<g>
						<path style="fill:#021627;" d="M375.62,98.616c0.121,0.742,0.821,1.246,1.563,1.125c0.742-0.121,1.246-0.821,1.125-1.563
							c-0.121-0.742-0.821-1.246-1.563-1.125C376.003,97.173,375.499,97.873,375.62,98.616z"/>
					</g>
					<g>
						<path style="fill:#021627;" d="M389.976,97.63c0.121,0.742,0.821,1.246,1.563,1.125c0.742-0.121,1.246-0.821,1.125-1.563
							c-0.121-0.742-0.821-1.246-1.563-1.125C390.359,96.188,389.855,96.888,389.976,97.63z"/>
					</g>
					<g>
						<path style="fill:#021627;" d="M371.67,96.439l-0.693-1.04c2.685-1.79,6.651-2.082,9.221-0.679l-0.598,1.098
							C377.405,94.62,373.997,94.89,371.67,96.439z"/>
					</g>
					<g>
						<path style="fill:#021627;" d="M383.35,109.943c-3.495,0-6.008-1.727-6.154-1.83l0.718-1.023
							c0.184,0.129,4.561,3.108,9.639,0.603l0.553,1.121C386.417,109.646,384.799,109.943,383.35,109.943z"/>
					</g>
					<g>
						<path style="fill:#021627;" d="M386.242,105.856l-0.316-1.209l2.106-0.551l-1.453-8.9l0.246-0.228
							c2.07-1.923,5.456-2.18,7.872-0.599l-0.684,1.046c-1.607-1.05-4.263-1.212-6.091,0.255l1.527,9.348L386.242,105.856z"/>
					</g>
				</g>
			</g>
			<path style="fill:#021627;" d="M358.849,103.845c-12.811-29.181,22.775-39.857,34.163-21.352
				C376.642,77.511,362.408,86.052,358.849,103.845z"/>
			<g>
				<path style="fill:#A34F2A;" d="M365.255,102.066c0,2.948-2.39,5.338-5.338,5.338c-2.948,0-5.338-2.39-5.338-5.338
					c0-2.948,2.39-5.338,5.338-5.338C362.865,96.728,365.255,99.118,365.255,102.066z"/>
				<g>
					<polygon style="fill:#021627;" points="359.311,104.79 358.447,103.887 360.106,102.3 358.395,100.186 359.366,99.4 
						361.801,102.407 					"/>
				</g>
			</g>
		</g>
		<g>
			<g>
				<g>
					<g>
						<polygon style="fill:#FFFFFF;" points="388.279,146.309 371.052,150.897 378.516,127.65 388.279,123.062 						"/>
						<polygon style="fill:#FFFFFF;" points="363.516,146.309 380.743,150.897 373.278,127.65 363.516,123.062 						"/>
					</g>
				</g>
			</g>
			<g>
				<g>
					<polygon style="fill:#021627;" points="380.584,133.954 379.077,129.694 380.255,129.277 381.129,131.746 386.704,126.585 
						387.554,127.502 					"/>
				</g>
				<g>
					<polygon style="fill:#021627;" points="371.21,133.954 364.241,127.502 365.09,126.585 370.665,131.746 371.54,129.277 
						372.718,129.694 					"/>
				</g>
			</g>
			<g>
				<rect x="375.272" y="138.008" style="fill:#021627;" width="1.25" height="74.02"/>
			</g>
		</g>
		<g>
			<g>
				<path style="fill:#000E94;" d="M333.44,214.163c-2.361-11.182-13.813-82.234,29.892-86.119l7.829,59.073l-17.777,64.159
					l-24.708-6.596C328.677,244.68,333.343,214.127,333.44,214.163z"/>
				<g>
					<g>
						<polygon style="fill:#021627;" points="368.479,189.553 350.695,157.144 359.261,147.285 352.033,140.947 360.201,129.81 
							361.208,130.549 353.718,140.763 361.02,147.165 352.21,157.306 369.575,188.952 						"/>
					</g>
				</g>
			</g>
			<g>
				<path style="fill:#000E94;" d="M418.354,214.163c2.361-11.182,13.813-82.234-29.892-86.119l-7.829,59.073l17.777,64.159
					l24.708-6.596C423.118,244.68,418.451,214.127,418.354,214.163z"/>
				<g>
					<g>
						<polygon style="fill:#021627;" points="383.315,189.553 382.22,188.952 399.585,157.306 390.774,147.165 398.076,140.763 
							390.586,130.549 391.594,129.81 399.762,140.947 392.534,147.285 401.101,157.144 						"/>
					</g>
				</g>
				<g>
					<path style="fill:#021627;" d="M422.5,244.775c-1.193-7.813-4.243-27.683-4.696-30.196l-0.158-0.083l0.098-0.461
						c0.104-0.495,10.242-49.726-7.14-73.218c-5.349-7.228-12.816-11.316-22.197-12.149l0.111-1.245
						c9.752,0.867,17.521,5.123,23.091,12.651c17.688,23.905,7.817,72.036,7.359,74.209c0.383,1.613,1.287,7.511,4.768,30.304
						L422.5,244.775z"/>
				</g>
			</g>
			<g>
				
					<rect x="340.94" y="234.878" transform="matrix(0.4167 -0.9091 0.9091 0.4167 -22.5226 452.8112)" style="fill:#021627;" width="1.25" height="18.155"/>
			</g>
			<g>
				
					<rect x="400.567" y="243.33" transform="matrix(0.9089 -0.417 0.417 0.9089 -64.4112 193.0252)" style="fill:#021627;" width="18.155" height="1.251"/>
			</g>
		</g>
		<g>
			<polygon style="fill:#021627;" points="413.428,225.402 368.353,225.372 373.977,161.091 419.052,161.12 			"/>
			<g>
				<path style="fill:#FFFFFF;" d="M391.64,163.841c-0.76,0-1.375,0.616-1.375,1.375s0.616,1.375,1.375,1.375
					c0.759,0,1.375-0.616,1.375-1.375S392.399,163.841,391.64,163.841z"/>
				<path style="fill:#FFFFFF;" d="M401.267,163.841c-0.76,0-1.375,0.616-1.375,1.375s0.616,1.375,1.375,1.375
					c0.759,0,1.375-0.616,1.375-1.375S402.026,163.841,401.267,163.841z"/>
			</g>
		</g>
		<g>
			<path style="fill:#000E94;" d="M351.872,194.728c-17.025,6.781-21.398,4.397-22.333,3.505c-0.47-0.449-1.719-1.641-1.565-5.227
				c0.388-9.059,8.831-23.182,19.78-33.887v-25.083l-0.177-0.28c-2.196,1.39-4.447,3.01-6.69,4.811
				c-15.718,12.624-32.045,35.083-32.837,53.586c-0.353,8.257,2.316,15.347,7.72,20.505c5.189,4.953,11.716,6.622,18.235,6.622
				c10.119-0.001,20.217-4.022,25.247-6.025l0.502-0.2l-7.353-18.538L351.872,194.728z"/>
			<g>
				<path style="fill:#A34F2A;" d="M383.547,201.6c-0.335-0.923-1.546-1.39-2.444-1.107c0,0,4.626-1.456,3.717-3.255
					c-0.727-1.439-2.716-1.23-2.716-1.23s3.976-1.251,3.067-3.05c-0.909-1.799-4.885-0.548-4.885-0.548
					c0.998-0.314,1.4-1.374,0.898-2.368c-1.273-2.518-9.914,1.035-9.914,1.035s2.698-3.205,0.861-4.858
					c-2.052-1.847-14.264,9.077-14.264,9.077c-0.599,0.655,3.644,13.14,3.644,13.14l13.746-2.35l0.903-0.284
					C376.161,205.801,384.294,203.659,383.547,201.6z"/>
				<g>
					<line style="fill:#FFFFFF;" x1="380.075" y1="192.724" x2="372.335" y2="194.913"/>
					
						<rect x="372.183" y="193.193" transform="matrix(0.9624 -0.2718 0.2718 0.9624 -38.5156 109.5417)" style="fill:#021627;" width="8.044" height="1.25"/>
				</g>
				<g>
					<line style="fill:#FFFFFF;" x1="382.138" y1="196.162" x2="374.152" y2="198.51"/>
					
						<rect x="373.983" y="196.711" transform="matrix(0.9594 -0.282 0.282 0.9594 -40.301 114.6429)" style="fill:#021627;" width="8.323" height="1.25"/>
				</g>
				<g>
					<line style="fill:#FFFFFF;" x1="381.103" y1="200.493" x2="375.97" y2="202.108"/>
					
						<rect x="375.846" y="200.676" transform="matrix(0.9538 -0.3004 0.3004 0.9538 -42.9849 122.9963)" style="fill:#021627;" width="5.38" height="1.25"/>
				</g>
			</g>
			<g>
				<path style="fill:#021627;" d="M334.002,219.905c-7.661,0-13.941-2.286-18.664-6.794c-5.538-5.286-8.274-12.542-7.913-20.984
					c0.417-9.743,4.551-20.171,12.639-31.88c4.807-6.958,10.425-13.344,16.699-18.979c5.981-5.372,13.226-11.272,21.605-14.303
					l0.425,1.176c-8.177,2.958-15.303,8.766-21.195,14.057c-6.201,5.57-11.754,11.882-16.505,18.76
					c-7.95,11.509-12.012,21.722-12.418,31.223c-0.346,8.071,2.257,14.996,7.527,20.026c4.482,4.279,10.472,6.449,17.801,6.449
					c0.001,0,0.001,0,0.003,0c10.001-0.001,20.142-4.04,25.016-5.98l0.463,1.161c-4.946,1.97-15.238,6.069-25.479,6.069
					C334.004,219.905,334.003,219.905,334.002,219.905z"/>
			</g>
			<g>
				<path style="fill:#021627;" d="M333.928,199.999c-2.899,0-4.23-0.752-4.82-1.314c-0.526-0.502-1.923-1.836-1.758-5.706
					c0.296-6.92,5.093-16.803,12.83-26.435l0.975,0.783c-7.463,9.291-12.274,19.14-12.556,25.705
					c-0.141,3.304,0.958,4.353,1.372,4.748c0.617,0.589,4.561,3.181,21.67-3.633l0.463,1.161
					C342.956,198.952,337.35,199.999,333.928,199.999z"/>
			</g>
		</g>
		<g>
			<path style="fill:#A34F2A;" d="M400.563,201.6c-0.033-0.981,1.546-1.39,2.445-1.107c0,0-4.626-1.456-3.717-3.255
				c0.727-1.439,2.716-1.23,2.716-1.23s-3.976-1.251-3.067-3.05c0.909-1.799,4.885-0.548,4.885-0.548
				c-0.998-0.314-1.4-1.374-0.898-2.368c1.272-2.518,9.914,1.035,9.914,1.035s-2.697-3.205-0.861-4.858
				c2.052-1.847,13.075,5.021,14.264,9.077c0.959,3.271,0.175,10.975-2.845,12.556C420.31,209.47,400.705,205.789,400.563,201.6z"/>
			<g>
				<line style="fill:#FFFFFF;" x1="404.035" y1="192.724" x2="411.776" y2="194.913"/>
				
					<rect x="407.28" y="189.796" transform="matrix(0.2721 -0.9623 0.9623 0.2721 110.3976 533.5848)" style="fill:#021627;" width="1.25" height="8.044"/>
			</g>
			<g>
				<line style="fill:#FFFFFF;" x1="401.972" y1="196.162" x2="409.958" y2="198.51"/>
				
					<rect x="405.34" y="193.174" transform="matrix(0.2821 -0.9594 0.9594 0.2821 102.1153 531.1393)" style="fill:#021627;" width="1.25" height="8.323"/>
			</g>
			<g>
				<line style="fill:#FFFFFF;" x1="403.008" y1="200.493" x2="408.14" y2="202.108"/>
				
					<rect x="404.949" y="198.611" transform="matrix(0.3002 -0.9539 0.9539 0.3002 91.7962 527.7296)" style="fill:#021627;" width="1.25" height="5.38"/>
			</g>
		</g>
	</g>
	<g>
		<g>
			<path style="fill:#E9B14D;" d="M670.846,246.468c-5.614,0-10.142-4.959-13.094-9.459l7.049-4.807
				c-0.258-3.142-2.054-11.57-6.35-21.317c-5.092-11.552-11.346-19.62-17.611-22.716l7.25-15.244
				c23.062,11.399,34.048,50.92,33.314,61.387c-0.599,8.559-5.252,11.07-7.972,11.806
				C672.547,246.357,671.685,246.468,670.846,246.468z"/>
		</g>
		<g>
			<g>
				<polygon style="fill:#A34F2A;" points="652.606,419.749 639.817,413.397 639.853,367.808 659.516,367.803 				"/>
				<polygon style="fill:#A34F2A;" points="668.207,425.571 637.907,425.571 639.817,413.397 669.199,424.048 				"/>
			</g>
			<polygon style="fill:#021627;" points="653.36,417.661 670.124,423.738 668.536,426.177 637.198,426.177 639.21,416.583 			"/>
		</g>
		<g>
			<g>
				<polygon style="fill:#A34F2A;" points="596.798,419.749 584.01,413.397 584.046,367.808 600.426,367.875 				"/>
				<polygon style="fill:#A34F2A;" points="612.399,425.571 582.1,425.571 584.01,413.397 613.391,424.048 				"/>
			</g>
			<polygon style="fill:#021627;" points="597.552,417.661 614.316,423.738 612.728,426.177 581.391,426.177 582.91,416.583 			"/>
		</g>
		<path style="fill:#000E94;" d="M615.177,389.009h-41.923c0,0,1.64-173.415,61.997-171.022h0L615.177,389.009z"/>
		<path style="fill:#000E94;" d="M629.553,388.969h36.359c0,0,19.852-171.022-36.359-171.022l0,0V388.969z"/>
		<path style="fill:#FFFFFF;" d="M602.391,240.872c-1.741-5.054-3.469-16.376-3.785-17.835c-4.78-22.069,0.016-52.362,28.527-52.362
			c1.681,0,3.36,0,5.042,0c12.964,0,23.305,6.872,27.977,18.957c3.501,9.056,3.364,18.828,1.619,28.25
			c-0.287,1.549-3.682,16.944-5.428,22.989H602.391z"/>
		<g>
			<path style="fill:#FFFFFF;" d="M580.757,389.01c-0.001-0.401-0.006-40.608,6.954-82.651
				c9.367-56.592,26.194-89.372,50.014-97.429l0.34,1.007c-29.167,9.866-42.91,57.968-49.304,96.583
				c-6.946,41.957-6.942,82.088-6.941,82.488L580.757,389.01z"/>
		</g>
		<g>
			<g>
				<path style="fill:#021627;" d="M650.918,335.448l-0.576-0.893l5.295-3.462c1.877-1.239,3.751-2.478,5.226-3.417l0.576,0.893
					l-5.219,3.412c-0.008,0.006-0.016,0.011-0.023,0.016C654.302,333.248,652.406,334.5,650.918,335.448z"/>
			</g>
			<g>
				<path style="fill:#021627;" d="M650.918,342.121l-0.576-0.893l5.295-3.462c1.877-1.239,3.751-2.478,5.226-3.417l0.576,0.893
					l-5.22,3.413c-0.007,0.005-0.015,0.01-0.023,0.015C654.302,339.921,652.406,341.173,650.918,342.121z"/>
			</g>
		</g>
		<g>
			<polygon style="fill:#021627;" points="629.183,388.843 629.022,255.834 637.377,252.216 637.799,253.19 630.085,256.531 
				630.245,388.841 			"/>
		</g>
		<g>
			
				<rect x="622.699" y="234.351" transform="matrix(0.9954 -0.0956 0.0956 0.9954 -19.5768 61.2591)" style="fill:#021627;" width="13.307" height="1.062"/>
		</g>
		<g>
			<path style="fill:#E9B14D;" d="M623.943,169.397c3.033,47.922-10.545,117.475-10.545,117.475l-31.486-4.435
				c0,0,14.128-45.707,14.203-45.679C594.195,227.667,584.513,170.61,623.943,169.397z"/>
		</g>
		<g>
			<path style="fill:#E9B14D;" d="M636.715,169.397c-3.033,47.922,7.17,118.029,7.17,118.029l29.195-3.757
				c0,0-8.461-46.939-8.537-46.911C666.463,227.667,676.144,170.61,636.715,169.397z"/>
			<g>
				<polygon style="fill:#021627;" points="647.13,204.563 646.079,204.407 647.829,192.626 640.73,182.848 646.975,172.634 
					647.881,173.188 642.006,182.797 648.944,192.352 				"/>
			</g>
			<g>
				<path style="fill:#021627;" d="M672.557,283.764c-2.842-15.767-8.257-45.719-8.518-46.841c-0.028-0.087-0.035-0.181-0.015-0.274
					c0.833-3.947,7.742-39.077-6.174-56.79c-4.958-6.31-12.074-9.651-21.151-9.931l0.033-1.062
					c9.406,0.289,16.792,3.767,21.953,10.336c14.215,18.092,7.223,53.669,6.378,57.666l-0.012-0.003
					c0.459,1.816,1.9,9.811,8.551,46.71L672.557,283.764z"/>
			</g>
		</g>
		<g>
			<g>
				<path style="fill:#A34F2A;" d="M597.477,258.81c0.525-0.572,0.433-1.614-0.072-2.162c0,0,2.599,2.82,3.534,1.52
					c0.748-1.04-0.08-2.402-0.08-2.402s2.233,2.424,3.169,1.124c0.935-1.3-1.298-3.724-1.298-3.724
					c0.561,0.609,1.434,0.52,1.95-0.199c1.309-1.82-4.123-6.79-4.123-6.79s3.149,0.801,3.664-1.117
					c0.576-2.143-11.194-7.055-11.194-7.055c-0.66-0.198-7.859,7.334-7.859,7.334l6.352,9.088l0.508,0.551
					C592.027,254.978,596.306,260.086,597.477,258.81z"/>
				<g>
					<line style="fill:#FFFFFF;" x1="603.135" y1="253.607" x2="598.263" y2="248.318"/>
					
						<rect x="600.168" y="247.367" transform="matrix(0.7354 -0.6776 0.6776 0.7354 -11.1194 473.4476)" style="fill:#021627;" width="1.063" height="7.191"/>
				</g>
				<g>
					<line style="fill:#FFFFFF;" x1="601.265" y1="256.207" x2="596.392" y2="250.919"/>
					
						<rect x="598.298" y="249.968" transform="matrix(0.7354 -0.6777 0.6777 0.7354 -13.3662 472.8974)" style="fill:#021627;" width="1.063" height="7.191"/>
				</g>
				<g>
					<line style="fill:#FFFFFF;" x1="597.771" y1="257.045" x2="594.522" y2="253.519"/>
					
						<rect x="595.615" y="252.885" transform="matrix(0.7354 -0.6776 0.6776 0.7354 -15.2598 471.4812)" style="fill:#021627;" width="1.063" height="4.794"/>
				</g>
			</g>
			<g>
				<path style="fill:#A34F2A;" d="M586.876,247.605c-0.884-0.683-21.62-16.96-18.574-36.998
					c2.118-13.93,14.938-25.361,38.107-33.977l3.935,10.584c-18.746,6.972-29.422,15.637-30.874,25.059
					c-2.073,13.46,14.154,26.273,14.318,26.401L586.876,247.605z"/>
			</g>
			<path style="fill:#E9B14D;" d="M589.675,234.053c0.068,0.02-10.035,10.291-10.035,10.291
				c-5.634-6.137-14.824-19.545-13.773-30.678c1.379-14.598,23.339-41.069,57.884-44.258l-11.88,19.316
				C565.822,203.422,585.362,229.969,589.675,234.053z"/>
		</g>
		<g>
			<g>
				<circle style="fill:#021627;" cx="618.044" cy="119.659" r="14.558"/>
				<path style="fill:#000E94;" d="M628.356,119.659c1.453,0,2.869,0.145,4.236,0.416c-0.221,7.848-6.647,14.143-14.548,14.143
					c-3.184,0-6.126-1.025-8.522-2.758C612.583,124.533,619.861,119.659,628.356,119.659z"/>
			</g>
			<ellipse style="fill:#021627;" cx="630.176" cy="141.194" rx="20.382" ry="19.108"/>
			<g>
				<g>
					<g>
						<path style="fill:#A34F2A;" d="M630.561,176.041L630.561,176.041c2.884-0.006,5.217-2.348,5.212-5.231l0.175-3.088
							l-0.211-15.789l-10.443,0.02l0.036,18.877C625.335,173.713,627.677,176.046,630.561,176.041z"/>
						<path style="fill:#021627;" d="M625.305,157.734l10.439-5.289l0.204,15.277l-0.175,3.088c0,0.043-0.005,0.084-0.006,0.127
							l-10.453-8.633L625.305,157.734z"/>
					</g>
					<path style="fill:#A34F2A;" d="M636.799,165.384c8.939-0.326,12.726-9.51,11.782-19.091
						c-1.142-11.595-7.926-21.243-19.729-18.656C607.336,132.355,614.756,166.188,636.799,165.384z"/>
					<g>
						<g>
							<path style="fill:#021627;" d="M630.541,146.578c0.094,0.578,0.64,0.97,1.218,0.876c0.578-0.094,0.97-0.64,0.876-1.218
								c-0.094-0.578-0.64-0.97-1.218-0.876C630.839,145.455,630.447,146,630.541,146.578z"/>
						</g>
						<g>
							<path style="fill:#021627;" d="M641.722,145.811c0.094,0.578,0.64,0.97,1.218,0.876c0.578-0.094,0.97-0.639,0.876-1.218
								c-0.094-0.578-0.64-0.97-1.218-0.876C642.02,144.687,641.628,145.232,641.722,145.811z"/>
						</g>
						<g>
							<path style="fill:#021627;" d="M628.045,144.365l-0.59-0.884c1.909-1.272,4.586-1.484,7.152-0.564l-0.357,1
								C631.996,143.11,629.677,143.277,628.045,144.365z"/>
						</g>
						<g>
							<path style="fill:#021627;" d="M637.328,154.54c-2.835,0-4.849-0.985-4.963-1.042l0.474-0.951
								c0.035,0.017,3.518,1.705,7.611,0.474l0.307,1.018C639.538,154.405,638.377,154.54,637.328,154.54z"/>
						</g>
						<g>
							<path style="fill:#021627;" d="M639.332,151.716l-0.174-1.048l1.794-0.298l-1.377-7.019l0.217-0.201
								c1.627-1.511,4.287-1.715,6.186-0.471l-0.582,0.889c-1.23-0.805-3.258-0.932-4.662,0.173l1.472,7.498L639.332,151.716z"/>
						</g>
					</g>
				</g>
				<g>
					<path style="fill:#021627;" d="M618.044,127.545c31.3-12.172,31.543,15.165,31.543,15.165l-13.664-9.602l-19.092,21.127
						C616.831,154.236,607.125,131.792,618.044,127.545z"/>
				</g>
			</g>
		</g>
		<g>
			<polygon style="fill:#021627;" points="659.085,242.29 637.897,242.274 640.541,206.592 661.729,206.608 			"/>
			<g>
				<polygon style="fill:#021627;" points="636.21,240.095 635.149,240.017 637.83,203.843 659.512,203.86 659.512,204.922 
					638.816,204.906 				"/>
			</g>
		</g>
		<g>
			<path style="fill:#A34F2A;" d="M646.926,230.217c-0.028-0.818,1.288-1.158,2.037-0.923c0,0-3.855-1.213-3.098-2.712
				c0.606-1.199,2.263-1.025,2.263-1.025s-3.313-1.043-2.556-2.542c0.757-1.499,4.07-0.456,4.07-0.456
				c-0.832-0.262-1.167-1.145-0.748-1.973c1.06-2.099,8.261,0.863,8.261,0.863s-2.248-2.671-0.717-4.048
				c1.71-1.539,10.895,4.184,11.886,7.563c0.799,2.726,0.146,9.145-2.371,10.463C663.381,236.775,647.044,233.708,646.926,230.217z"
				/>
			<g>
				<line style="fill:#FFFFFF;" x1="649.82" y1="222.82" x2="656.269" y2="224.644"/>
				
					<rect x="652.513" y="220.381" transform="matrix(0.2722 -0.9623 0.9623 0.2722 260.0295 791.2379)" style="fill:#021627;" width="1.063" height="6.703"/>
			</g>
			<g>
				<line style="fill:#FFFFFF;" x1="648.1" y1="225.686" x2="654.755" y2="227.642"/>
				
					<rect x="650.897" y="223.196" transform="matrix(0.2821 -0.9594 0.9594 0.2821 250.1745 787.6725)" style="fill:#021627;" width="1.062" height="6.936"/>
			</g>
			<g>
				<line style="fill:#FFFFFF;" x1="648.963" y1="229.294" x2="653.24" y2="230.641"/>
				
					<rect x="650.57" y="227.725" transform="matrix(0.3002 -0.9539 0.9539 0.3002 236.2762 781.9986)" style="fill:#021627;" width="1.063" height="4.484"/>
			</g>
		</g>
		<g>
			<polygon style="fill:#021627;" points="617.305,237.049 611.719,192.347 618.651,182.797 612.777,173.188 613.684,172.634 
				619.927,182.848 612.824,192.631 618.359,236.917 			"/>
		</g>
	</g>
	<g>
		<g>
			<g>
				<path style="fill:#FFA87C;" d="M288.107,279.767c-0.781,0.072-1.505-0.703-1.578-1.452c0,0,0.374,3.857-1.232,3.75
					c-1.285-0.085-1.753-1.613-1.753-1.613s0.322,3.314-1.285,3.208c-1.607-0.106-1.929-3.421-1.929-3.421
					c0.081,0.832-0.573,1.459-1.46,1.4c-2.249-0.149-2.335-7.613-2.335-7.613s-1.514,2.985-3.303,2.151
					c-1.999-0.932,2.219-13.324,2.219-13.324c0.294-0.645,10.8-1.425,10.8-1.425S291.102,279.493,288.107,279.767z"/>
				<g>
					<line style="fill:#FFFFFF;" x1="280.495" y1="279.987" x2="279.687" y2="273.611"/>
					
						<rect x="279.56" y="273.586" transform="matrix(0.9921 -0.1258 0.1258 0.9921 -32.599 37.4381)" style="fill:#021627;" width="1.062" height="6.427"/>
				</g>
				<g>
					<line style="fill:#FFFFFF;" x1="283.668" y1="280.43" x2="282.9" y2="273.824"/>
					
						<rect x="282.753" y="273.802" transform="matrix(0.9933 -0.1153 0.1153 0.9933 -30.0733 34.5236)" style="fill:#021627;" width="1.063" height="6.65"/>
				</g>
				<g>
					<line style="fill:#FFFFFF;" x1="286.529" y1="278.316" x2="286.318" y2="273.647"/>
					
						<rect x="285.892" y="273.645" transform="matrix(0.999 -0.045 0.045 0.999 -12.1366 13.1772)" style="fill:#021627;" width="1.063" height="4.673"/>
				</g>
			</g>
			<g>
				<path style="fill:#FFA87C;" d="M283.298,271.686l-4.177-10.35c-2.323,0.938-3.506,3.238-3.475,5.027
					c-0.031-1.789-1.529-17.669-2.923-31.703l11.106-1.103c0,0,0.803,8.085,1.571,16.184c0.386,4.061,0.763,8.125,1.026,11.182
					c0.134,1.561,0.24,2.864,0.303,3.78C286.841,266.334,287.104,270.15,283.298,271.686z"/>
			</g>
			<g>
				<path style="fill:#000E94;" d="M288.828,254.028c-5.545,0.114-11.083,0.398-16.623,0.646
					c-2.044-25.648-17.774-74.033-17.774-74.033s1.208-5.129,7.44-6.909C279.409,185.424,286.285,226.897,288.828,254.028z"/>
			</g>
		</g>
		<g>
			<g>
				<polygon style="fill:#FFA87C;" points="212.113,420.001 198.994,413.485 201.589,366.964 218.079,366.964 				"/>
				<polygon style="fill:#FFA87C;" points="228.116,425.974 197.035,425.974 198.994,413.485 229.134,424.411 				"/>
				<path style="fill:#021627;" d="M217.702,419.702c-4.835,8.83-19.902,0.095-19.902,0.095l-1.001,6.38h32.684l0.24-1.766
					L217.702,419.702z"/>
				<g>
					
						<rect x="197.521" y="418.471" transform="matrix(0.9943 -0.1066 0.1066 0.9943 -43.5053 24.2458)" style="fill:#021627;" width="14.966" height="1.063"/>
				</g>
			</g>
			<path style="fill:#E9B14D;" d="M214.667,410.748H197.04c0,0-7.88-241.69,52.028-197.091l0,0l-5.97,53.23L214.667,410.748z"/>
			<g>
				<path style="fill:#FFFFFF;" d="M200.489,410.771c-0.26-6.267-6.051-153.806,22.174-183.852l0.774,0.727
					c-27.921,29.723-21.951,181.55-21.887,183.08L200.489,410.771z"/>
			</g>
			<g>
				<polygon style="fill:#FFA87C;" points="265.831,420.001 252.371,413.485 249.957,366.721 269.823,366.964 				"/>
				<polygon style="fill:#FFA87C;" points="282.147,425.974 251.066,425.974 252.371,413.485 283.083,424.411 				"/>
				<path style="fill:#021627;" d="M271.404,419.702c-4.373,8.83-19.898,0.095-19.898,0.095l-0.667,6.38h32.684l0.147-1.766
					L271.404,419.702z"/>
				<g>
					
						<rect x="251.199" y="418.471" transform="matrix(0.9943 -0.1065 0.1065 0.9943 -43.1629 29.9407)" style="fill:#021627;" width="14.967" height="1.063"/>
				</g>
			</g>
			<path style="fill:#E9B14D;" d="M249.479,410.657l18.638,0.09c0,0,18.797-128.835,1.211-180.252
				c-5.396-15.777-14.657-20.66-28.379-16.879l0,0L249.479,410.657z"/>
			<g>
				<g>
					<path style="fill:#021627;" d="M261.56,340.96l-0.576-0.893l5.335-3.489c0.012-0.007,0.023-0.015,0.035-0.022
						c1.946-1.285,3.893-2.57,5.42-3.544l0.576,0.893l-5.449,3.563C264.983,338.734,263.067,339.999,261.56,340.96z"/>
				</g>
				<g>
					<path style="fill:#021627;" d="M261.56,347.805l-0.576-0.893l5.335-3.488c0.012-0.008,0.023-0.016,0.035-0.023
						c1.946-1.285,3.893-2.57,5.42-3.544l0.576,0.893l-5.448,3.563C264.983,345.579,263.068,346.844,261.56,347.805z"/>
				</g>
			</g>
			<g>
				<polygon style="fill:#021627;" points="215.188,410.851 214.146,410.646 242.623,266.549 249.654,262.448 250.189,263.366 
					243.572,267.225 				"/>
			</g>
		</g>
		<path style="fill:#021627;" d="M212.46,149.008c2.397-3.232,6.198-5.106,9.996-6.434c3.798-1.328,7.77-2.245,11.324-4.129
			c3.555-1.885,6.75-4.987,7.49-8.941l8.75,12.161c4.631,3.889,9.466,8.069,11.411,13.795c2.109,6.21,0.226,13.432-4.183,18.287
			c-4.409,4.856-11.057,7.4-17.615,7.424c-6.559,0.024-12.997-2.322-18.442-5.979c-4.278-2.873-8.094-6.683-10.041-11.454
			C209.205,158.968,209.391,153.147,212.46,149.008z"/>
		<ellipse style="fill:#021627;" cx="240.061" cy="140.117" rx="19.542" ry="18.32"/>
		<g>
			<g>
				<g>
					<path style="fill:#FFA87C;" d="M240.431,173.527L240.431,173.527c2.765-0.005,5.002-2.251,4.997-5.016l0.168-2.961
						l-0.202-15.138l-10.012,0.019l0.034,18.099C235.42,171.295,237.666,173.532,240.431,173.527z"/>
					<path style="fill:#021627;" d="M235.391,155.975l12.662-5.096l-2.626,17.632c0,0.041-0.005,0.081-0.006,0.122l-10.022-9.251
						L235.391,155.975z"/>
				</g>
				<path style="fill:#FFA87C;" d="M246.411,163.31c8.571-0.313,12.201-9.118,11.296-18.304
					c-1.095-11.117-7.599-20.367-18.916-17.886C218.163,131.642,225.277,164.081,246.411,163.31z"/>
				<g>
					<g>
						<path style="fill:#021627;" d="M240.412,145.279c0.09,0.554,0.613,0.93,1.167,0.84c0.554-0.09,0.93-0.613,0.84-1.167
							s-0.613-0.93-1.167-0.84C240.697,144.202,240.321,144.725,240.412,145.279z"/>
					</g>
					<g>
						<path style="fill:#021627;" d="M251.132,144.543c0.09,0.554,0.613,0.93,1.167,0.84c0.554-0.09,0.93-0.613,0.84-1.167
							c-0.091-0.554-0.613-0.93-1.167-0.84C251.417,143.466,251.041,143.989,251.132,144.543z"/>
					</g>
					<g>
						<path style="fill:#021627;" d="M238.03,143.176l-0.59-0.884c1.837-1.226,4.407-1.428,6.878-0.544l-0.358,1
							C241.806,141.977,239.588,142.136,238.03,143.176z"/>
					</g>
					<g>
						<path style="fill:#021627;" d="M246.918,152.935c-2.723,0-4.659-0.947-4.769-1.001l0.475-0.951
							c0.033,0.017,3.364,1.633,7.281,0.453l0.307,1.018C249.041,152.805,247.926,152.935,246.918,152.935z"/>
					</g>
					<g>
						<path style="fill:#021627;" d="M248.843,150.227l-0.174-1.048l1.699-0.282l-1.318-6.719l0.217-0.201
							c1.567-1.455,4.129-1.65,5.958-0.454l-0.582,0.889c-1.169-0.765-3.094-0.888-4.433,0.157l1.412,7.198L248.843,150.227z"/>
					</g>
				</g>
			</g>
			<g>
				<path style="fill:#021627;" d="M229.983,126.432c21.79-12.224,28.107,11.84,28.107,11.84h-24.387l-5.274,16.866
					C228.429,155.138,220.187,131.927,229.983,126.432z"/>
			</g>
		</g>
		<g>
			<g>
				<path style="fill:#FFFFFF;" d="M253.829,149.854c-3.019,0-5.475-2.456-5.475-5.475c0-3.019,2.456-5.475,5.475-5.475
					c3.019,0,5.475,2.456,5.475,5.475C259.304,147.398,256.848,149.854,253.829,149.854z M253.829,139.966
					c-2.433,0-4.413,1.98-4.413,4.412c0,2.433,1.98,4.413,4.413,4.413c2.433,0,4.412-1.98,4.412-4.413
					C258.241,141.946,256.262,139.966,253.829,139.966z"/>
			</g>
			<g>
				<path style="fill:#FFFFFF;" d="M241.034,149.854c-3.019,0-5.475-2.456-5.475-5.475c0-3.019,2.456-5.475,5.475-5.475
					c3.018,0,5.475,2.456,5.475,5.475C246.509,147.398,244.053,149.854,241.034,149.854z M241.034,139.966
					c-2.433,0-4.413,1.98-4.413,4.412c0,2.433,1.979,4.413,4.413,4.413c2.433,0,4.412-1.98,4.412-4.413
					C245.446,141.946,243.467,139.966,241.034,139.966z"/>
			</g>
			<g>
				<rect x="245.977" y="142.975" style="fill:#FFFFFF;" width="2.908" height="1.063"/>
			</g>
			<g>
				<rect x="231.042" y="143.347" style="fill:#FFFFFF;" width="4.788" height="1.063"/>
			</g>
		</g>
		<g>
			<g>
				<path style="fill:#000E94;" d="M271.293,239.258c0,0,2.618-16.774,2.953-18.27c5.071-22.606-0.017-53.637-30.268-53.637
					c-1.783,0-3.565,0-5.349,0c-13.755,0-24.727,7.04-29.684,19.419c-3.715,9.277-3.569,19.286-1.718,28.938
					c0.304,1.587,3.73,23.549,3.73,23.549H271.293z"/>
			</g>
			<g>
				<path style="fill:#021627;" d="M271.292,239.79h-60.336v-1.063h59.882c0.428-2.735,2.582-16.48,2.89-17.854
					c2.944-13.123,2.81-31.242-6.395-42.74c-5.444-6.801-13.302-10.249-23.354-10.249v-1.063c10.392,0,18.528,3.583,24.184,10.648
					c9.44,11.792,9.6,30.273,6.603,43.637c-0.328,1.461-2.921,18.068-2.947,18.235l-0.07,0.449H271.292z"/>
			</g>
			
				<rect x="232.268" y="165.228" transform="matrix(-1 -1.224647e-16 1.224647e-16 -1 481.9149 344.6165)" style="fill:#000E94;" width="17.378" height="14.16"/>
			<g>
				<g>
					<rect x="246.862" y="165.872" style="fill:#021627;" width="1.063" height="5.149"/>
				</g>
				<g>
					<rect x="242.572" y="165.872" style="fill:#021627;" width="1.063" height="5.149"/>
				</g>
				<g>
					<rect x="238.281" y="165.872" style="fill:#021627;" width="1.063" height="5.149"/>
				</g>
				<g>
					<rect x="233.99" y="165.872" style="fill:#021627;" width="1.063" height="5.149"/>
				</g>
			</g>
		</g>
		<g>
			
				<rect x="242.281" y="211.502" transform="matrix(0.0842 -0.9964 0.9964 0.0842 -10.5718 456.0333)" style="fill:#021627;" width="1.062" height="44.533"/>
		</g>
		<g>
			<g>
				<path style="fill:#FFFFFF;" d="M239.467,248.685l-50.97,22.086c-0.906,0.393-1.959-0.024-2.352-0.93l-15.072-34.782
					c-0.393-0.906,0.024-1.959,0.93-2.352l50.97-22.086c0.906-0.393,1.959,0.024,2.352,0.93l15.072,34.782
					C240.789,247.24,240.373,248.292,239.467,248.685z"/>
				<path style="fill:#021627;" d="M187.79,271.45c-0.896,0-1.753-0.523-2.131-1.397l-15.072-34.782
					c-0.508-1.173,0.032-2.541,1.206-3.05l50.97-22.086c0.569-0.247,1.199-0.257,1.775-0.029c0.576,0.227,1.029,0.666,1.275,1.235
					l15.071,34.782c0.247,0.568,0.257,1.199,0.029,1.775c-0.228,0.576-0.666,1.029-1.235,1.275l-50.969,22.086
					C188.409,271.389,188.097,271.45,187.79,271.45z M223.684,211.005c-0.17,0-0.339,0.035-0.499,0.104l-50.97,22.086
					c-0.636,0.276-0.929,1.018-0.654,1.653l15.072,34.783c0.275,0.635,1.015,0.927,1.653,0.653l50.97-22.086
					c0.308-0.134,0.545-0.379,0.669-0.691c0.123-0.312,0.118-0.654-0.016-0.961l-15.071-34.782
					c-0.134-0.308-0.379-0.546-0.691-0.669C223.997,211.034,223.84,211.005,223.684,211.005z"/>
			</g>
			<g>
				<path style="fill:#021627;" d="M205.736,246.237c-0.688,0-1.377-0.13-2.037-0.391c-1.375-0.544-2.457-1.591-3.045-2.948
					c-0.588-1.357-0.613-2.862-0.069-4.238c0.544-1.376,1.591-2.457,2.948-3.045c2.801-1.216,6.068,0.076,7.283,2.879
					c0.588,1.357,0.613,2.862,0.069,4.238c-0.544,1.375-1.591,2.457-2.948,3.045C207.231,246.083,206.484,246.237,205.736,246.237z
					 M205.729,236.221c-0.593,0-1.195,0.118-1.773,0.369c-1.097,0.475-1.943,1.349-2.383,2.461
					c-0.439,1.112-0.419,2.328,0.056,3.425c0.475,1.097,1.349,1.943,2.461,2.383c1.112,0.439,2.329,0.42,3.425-0.056
					c1.097-0.475,1.943-1.349,2.383-2.461c0.439-1.112,0.419-2.328-0.056-3.425C209.111,237.23,207.459,236.221,205.729,236.221z"/>
			</g>
		</g>
		<g>
			<g>
				<path style="fill:#FFA87C;" d="M201.816,255.577c-0.917-0.681-22.369-16.606-20.24-39.031
					c1.562-16.45,15.249-31.003,40.68-43.258l5.43,11.268c-20.916,10.078-32.555,21.549-33.658,33.171
					c-1.446,15.234,15.157,28.008,15.325,28.132L201.816,255.577z"/>
			</g>
			<path style="fill:#000E94;" d="M204.925,240.205c0.073,0.023-12.41,10.018-12.41,10.018
				c-6.038-7.215-14.235-20.896-13.107-33.985c1.478-17.16,16.852-33.984,45.564-45.979l3.628,18.052
				C179.302,202.893,200.303,235.403,204.925,240.205z"/>
			<g>
				<path style="fill:#FFA87C;" d="M213.425,263.52c0.434-0.654,0.158-1.654-0.451-2.096c0,0,3.134,2.279,3.857,0.84
					c0.579-1.151-0.501-2.329-0.501-2.329s2.693,1.959,3.416,0.52c0.723-1.439-1.97-3.397-1.97-3.397
					c0.676,0.492,1.548,0.246,1.947-0.548c1.013-2.014-5.376-5.875-5.376-5.875s3.34,0.209,3.529-1.756
					c0.211-2.195-12.608-4.847-12.608-4.847c-0.705-0.073-6.707,8.585-6.707,8.585l8.042,7.711l0.612,0.445
					C207.217,260.773,212.458,264.978,213.425,263.52z"/>
				<g>
					<line style="fill:#FFFFFF;" x1="217.476" y1="257.072" x2="212.392" y2="253.141"/>
					
						<rect x="214.403" y="251.894" transform="matrix(0.6117 -0.7911 0.7911 0.6117 -118.3528 269.1081)" style="fill:#021627;" width="1.062" height="6.426"/>
				</g>
				<g>
					<line style="fill:#FFFFFF;" x1="216.248" y1="260.031" x2="210.945" y2="256.019"/>
					
						<rect x="213.066" y="254.7" transform="matrix(0.6034 -0.7974 0.7974 0.6034 -121.0464 272.6664)" style="fill:#021627;" width="1.063" height="6.65"/>
				</g>
				<g>
					<line style="fill:#FFFFFF;" x1="212.975" y1="261.424" x2="209.498" y2="258.896"/>
					
						<rect x="210.705" y="258.01" transform="matrix(0.5882 -0.8088 0.8088 0.5882 -123.4068 277.9842)" style="fill:#021627;" width="1.063" height="4.299"/>
				</g>
			</g>
		</g>
	</g>
	<g>
		<g>
			<g>
				<polygon style="fill:#FFA87C;" points="474.622,417.667 461.923,412.558 462.253,362.063 483.612,360.158 				"/>
				<polygon style="fill:#FFA87C;" points="490.181,425.959 460.933,425.043 461.923,412.558 491.147,424.397 				"/>
				<g>
					<g>
						<polygon style="fill:#000E94;" points="475.525,418.068 460.972,416.993 460.443,425.61 490.181,425.959 491.147,424.397 
													"/>
					</g>
					<polygon style="fill:#021627;" points="491.716,424.411 484.404,421.226 484.221,424.494 460.204,423.459 459.999,426.177 
						491.501,426.177 					"/>
					<path style="fill:#000E94;" d="M477.521,421.112l-3.737-0.93c0,0-0.647-6.572,0.962-6.619
						C476.609,413.508,477.521,421.112,477.521,421.112z"/>
				</g>
			</g>
			<path style="fill:#E9B14D;" d="M479.462,409.723H457.95l9.143-168.514c0,0,14.656-23.353,41.833-22.263l0,0l-5.263,49.497
				L479.462,409.723z"/>
			<g>
				<g>
					<polygon style="fill:#FFA87C;" points="520.801,418.925 507.098,412.56 505.276,364.332 523.023,375.112 					"/>
					<polygon style="fill:#FFA87C;" points="535.355,425.959 506.108,425.043 507.098,412.558 536.322,424.397 					"/>
					<g>
						<g>
							<polygon style="fill:#000E94;" points="520.699,418.068 506.146,416.993 505.617,425.61 535.355,425.959 536.322,424.397 
															"/>
						</g>
						<polygon style="fill:#021627;" points="536.891,424.411 529.579,421.226 529.396,424.494 505.379,423.459 505.174,426.177 
							536.676,426.177 						"/>
						<path style="fill:#000E94;" d="M522.696,421.112l-3.737-0.93c0,0-0.646-6.572,0.962-6.619
							C521.784,413.508,522.696,421.112,522.696,421.112z"/>
					</g>
				</g>
				<path style="fill:#E9B14D;" d="M503.906,409.408l20.73-0.252l13.983-170.217c0,0-14.261-20.033-29.435-20.033l-5.522,3.579
					L503.906,409.408z"/>
				<g>
					<polygon style="fill:#021627;" points="503.375,409.409 503.131,268.103 512.045,263.989 512.49,264.954 504.195,268.783 
						504.438,409.407 					"/>
				</g>
			</g>
			<g>
				<path style="fill:#021627;" d="M471.942,265.533c-0.581,0-1.163-0.036-1.741-0.109l0.133-1.055
					c5.601,0.712,11.526-2.36,14.426-7.467l0.924,0.525C482.876,262.371,477.406,265.533,471.942,265.533z"/>
			</g>
			<g>
				
					<rect x="459.948" y="404.799" transform="matrix(0.9939 -0.1102 0.1102 0.9939 -41.8269 54.1087)" style="fill:#021627;" width="16.979" height="1.063"/>
			</g>
			<g>
				
					<rect x="508.073" y="404.799" transform="matrix(0.9939 -0.1102 0.1102 0.9939 -41.5336 59.4137)" style="fill:#021627;" width="16.979" height="1.063"/>
			</g>
		</g>
		<g>
			<path style="fill:#FFFFFF;" d="M489.007,251.24l30.294-0.116v-86.655c-1.365-0.216-28.194-0.063-30.294,0.475V251.24z"/>
			<g>
				<g>
					<path style="fill:#FFA87C;" d="M503.925,173.108L503.925,173.108c3.423,0,6.198-2.775,6.198-6.198l0.215-3.665l-0.215-18.743
						h-12.396v22.408C497.727,170.333,500.502,173.108,503.925,173.108z"/>
				</g>
			</g>
			<g>
				<g>
					<g>
						<g>
							<polygon style="fill:#FFFFFF;" points="513.853,180.158 500.912,183.839 506.52,165.189 513.853,161.508 							"/>
							<polygon style="fill:#FFFFFF;" points="495.252,180.158 508.192,183.839 502.585,165.189 495.252,161.508 							"/>
						</g>
					</g>
				</g>
				<g>
					<g>
						<polygon style="fill:#021627;" points="508.042,170.34 506.879,166.829 507.887,166.495 508.513,168.381 512.616,164.324 
							513.362,165.08 						"/>
					</g>
					<g>
						<polygon style="fill:#021627;" points="501.063,170.34 495.742,165.08 496.488,164.324 500.592,168.381 501.218,166.495 
							502.226,166.829 						"/>
					</g>
				</g>
			</g>
			<g>
				<rect x="503.623" y="173.499" style="fill:#021627;" width="1.062" height="59.382"/>
			</g>
			<g>
				<path style="fill:#000E94;" d="M539.082,187.002c-0.248-13.185-10.966-23.322-24.417-23.098l-0.812,0.011v91.355l29.018-0.021
					C542.871,255.25,539.195,197.751,539.082,187.002z"/>
				<path style="fill:#000E94;" d="M494.742,163.905c-13.204,0-24.759,10.089-26.365,23.072c-2.434,21.113-5.1,67.587-5.126,68.054
					l-0.016,0.281l32.017-0.026v-91.377l-0.263-0.003C494.905,163.905,494.825,163.905,494.742,163.905z"/>
			</g>
		</g>
		<g>
			<path style="fill:#FFA87C;" d="M511.737,160.784c9.138-0.101,13.244-9.382,12.529-19.191c-0.162-2.226-0.529-4.387-1.097-6.414
				c-2.463-8.784-8.718-15.049-18.567-13.151C482.505,126.286,489.204,161.032,511.737,160.784z"/>
			<g>
				<g>
					<path style="fill:#021627;" d="M505.834,141.415c0.081,0.593,0.628,1.007,1.221,0.926c0.593-0.081,1.008-0.628,0.926-1.221
						c-0.081-0.593-0.628-1.008-1.221-0.926C506.168,140.275,505.753,140.822,505.834,141.415z"/>
				</g>
				<g>
					<path style="fill:#021627;" d="M517.273,140.922c0.081,0.593,0.628,1.007,1.221,0.926c0.593-0.081,1.008-0.628,0.926-1.221
						c-0.081-0.593-0.628-1.007-1.221-0.926S517.192,140.329,517.273,140.922z"/>
				</g>
				<g>
					<path style="fill:#021627;" d="M503.975,139.896l-0.951-0.474c0.761-1.528,2.084-2.585,3.54-2.828
						c0.924-0.153,2.313-0.051,3.696,1.315l-0.746,0.756c-0.842-0.83-1.795-1.185-2.775-1.022
						C505.617,137.83,504.584,138.672,503.975,139.896z"/>
				</g>
				<g>
					<path style="fill:#021627;" d="M512.381,146.191l-0.063-1.061l3.145-0.186l-0.267-6.455l0.057-0.119
						c0.816-1.708,1.979-2.177,2.81-2.271c1.303-0.143,2.711,0.544,3.746,1.851l-0.832,0.66c-0.794-1.002-1.868-1.561-2.795-1.455
						c-0.777,0.087-1.437,0.625-1.913,1.558l0.3,7.23L512.381,146.191z"/>
				</g>
			</g>
			<g>
				<path style="fill:#021627;" d="M498.76,129.62c-1.832,3.473-3.72,18.07,3.257,16.154c7.954-2.184,21.232-1.028,22.748,3.03
					c2.302,6.161-3.015,14.073-11.267,14.586c-29.619,1.839-23.538-26.94-21.116-33.238
					C495.039,123.243,504.876,118.024,498.76,129.62z"/>
				<path style="fill:#FFA87C;" d="M492.867,138.596l0.661,8.945c-0.05-0.004-0.099-0.003-0.148-0.008
					c-2.492-0.265-4.297-2.501-4.032-4.993C489.559,140.555,491.022,139.01,492.867,138.596z"/>
				<g>
					<path style="fill:#FFA87C;" d="M512.836,150.363c-0.365,0-0.734-0.035-1.107-0.107c-1.755-0.336-3.368-1.454-4.316-2.993
						l0.904-0.558c0.795,1.288,2.146,2.226,3.611,2.507c0.916,0.175,2.299,0.169,3.686-0.864l0.635,0.853
						C515.215,149.97,514.052,150.363,512.836,150.363z"/>
				</g>
			</g>
			<path style="fill:#021627;" d="M497.282,117.234c-8.576,1.119-10.923,15.546,2.287,15.563
				c10.405,0.013,17.133-9.096,23.599,2.382C521.894,126.008,510.551,115.503,497.282,117.234z"/>
		</g>
		<g>
			<g>
				<path style="fill:#FFA87C;" d="M469.441,276.589c0.776-0.142,1.168-1.041,0.93-1.793c0,0,1.228,3.872,2.74,3.392
					c1.21-0.384,1.033-1.992,1.033-1.992s1.055,3.327,2.568,2.848c1.512-0.48,0.457-3.807,0.457-3.807
					c0.265,0.835,1.157,1.298,1.992,1.033c2.117-0.671-0.878-8.016-0.878-8.016s2.698,2.575,4.086,1.339
					c1.552-1.381-7.644-12.556-7.644-12.556c-0.551-0.564-11.218,2.187-11.782,2.738l2.719,9.624l0.24,0.756
					C465.902,270.155,467.71,276.905,469.441,276.589z"/>
				<g>
					<line style="fill:#FFFFFF;" x1="477.36" y1="275.842" x2="475.058" y2="268.583"/>
					
						<rect x="475.677" y="268.405" transform="matrix(0.9532 -0.3023 0.3023 0.9532 -60.0044 156.671)" style="fill:#021627;" width="1.063" height="7.615"/>
				</g>
				<g>
					<line style="fill:#FFFFFF;" x1="474.335" y1="276.801" x2="472.033" y2="269.542"/>
					
						<rect x="472.653" y="269.364" transform="matrix(0.9532 -0.3022 0.3022 0.9532 -60.4312 155.7805)" style="fill:#021627;" width="1.063" height="7.616"/>
				</g>
				<g>
					<line style="fill:#FFFFFF;" x1="470.543" y1="275.341" x2="469.008" y2="270.501"/>
					<polygon style="fill:#021627;" points="470.036,275.501 468.501,270.661 469.515,270.341 471.05,275.181 					"/>
				</g>
			</g>
			<path style="fill:#000E94;" d="M488.589,185.476c-23.332,23.895-20.533,43.595-11.134,71.335
				c0.088,0.26-15.643,4.767-15.737,4.501c-1.673-4.743-28.874-52.408,17.876-92.18"/>
			<g>
				<path style="fill:#021627;" d="M461.714,261.849c-0.37,0-0.421-0.143-0.497-0.359c-0.125-0.354-0.413-0.989-0.812-1.867
					c-20.255-44.643-0.932-74.07,18.846-90.895l0.687,0.81c-19.498,16.588-38.548,45.606-18.565,89.645
					c0.295,0.651,0.531,1.172,0.693,1.562c2.098-0.421,12.566-3.414,14.733-4.211c-8.422-24.986-10.468-42.135,2.558-60.86
					l0.873,0.607c-12.846,18.467-10.71,35.461-2.273,60.36c0.188,0.549-0.324,0.726-1.031,0.972
					c-1.651,0.572-5.646,1.746-8.658,2.594C463.945,261.421,462.352,261.849,461.714,261.849z"/>
			</g>
		</g>
		<g>
			<g>
				<g>
					<g>
						<polygon style="fill:#FFFFFF;" points="514.41,190.739 504.809,231.259 478.595,232.803 478.015,237.024 562.25,237.024 
							572.833,190.739 						"/>
						<path style="fill:#021627;" d="M562.674,237.555h-85.268l0.723-5.257l26.255-1.546l9.607-40.544h59.509L562.674,237.555z
							 M478.624,236.492h83.202l10.341-45.222H514.83l-9.596,40.497l-26.173,1.541L478.624,236.492z"/>
					</g>
					<g>
						<path style="fill:#021627;" d="M538.847,217.138c-1.451,0-2.747-0.585-3.65-1.647c-0.999-1.175-1.411-2.835-1.131-4.556
							c0.543-3.326,3.506-6.031,6.604-6.031c1.451,0,2.748,0.585,3.651,1.648c0.999,1.175,1.41,2.835,1.13,4.555
							C544.908,214.432,541.945,217.138,538.847,217.138z M540.669,205.966c-2.6,0-5.092,2.306-5.555,5.14
							c-0.23,1.412,0.095,2.759,0.892,3.697c0.698,0.821,1.707,1.272,2.841,1.272c2.601,0,5.093-2.306,5.555-5.14
							c0.23-1.411-0.094-2.758-0.891-3.696C542.813,206.419,541.804,205.966,540.669,205.966z"/>
					</g>
				</g>
			</g>
			<g>
				<path style="fill:#FFA87C;" d="M557.904,232.016c-0.029-0.792,0.769-1.372,1.559-1.301c0,0-4.068-0.367-3.925-1.956
					c0.115-1.271,1.732-1.446,1.732-1.446s-3.496-0.315-3.352-1.904c0.143-1.589,3.639-1.274,3.639-1.274
					c-0.878-0.079-1.525-0.855-1.446-1.732c0.201-2.225,7.254-1.255,9.261,0.178c3.05,2.177,0.627,10.114-2.235,11.732
					C561.893,235.016,557.969,233.784,557.904,232.016z"/>
				<g>
					
						<rect x="560.204" y="220.593" transform="matrix(0.0898 -0.996 0.996 0.0898 286.8437 762.7276)" style="fill:#021627;" width="1.063" height="7.658"/>
				</g>
				<g>
					
						<rect x="559.917" y="223.771" transform="matrix(0.0898 -0.996 0.996 0.0898 283.4231 765.3377)" style="fill:#021627;" width="1.063" height="7.659"/>
				</g>
				<g>
					
						<rect x="560.902" y="228.34" transform="matrix(0.0898 -0.996 0.996 0.0898 281.0539 769.3221)" style="fill:#021627;" width="1.063" height="5.106"/>
				</g>
			</g>
		</g>
	</g>
	<g>
		<g>
			<g>
				<path style="fill:#A34F2A;" d="M159.239,289.836c-0.776-0.11-1.303-1.03-1.202-1.775c0,0-0.522,3.84-2.061,3.367
					c-1.232-0.378-1.336-1.973-1.336-1.973s-0.448,3.299-1.988,2.827c-1.539-0.473-1.091-3.772-1.091-3.772
					c-0.113,0.828-0.893,1.288-1.743,1.027c-2.155-0.662-0.523-7.946-0.523-7.946s-2.16,2.557-3.709,1.334
					c-1.731-1.366,5.221-12.458,5.221-12.458c0.435-0.56,11.234,2.572,11.234,2.572S162.217,290.257,159.239,289.836z"/>
			</g>
			<g>
				<path style="fill:#A34F2A;" d="M158.19,279.804l-7.311-5.775c0,0-0.466-17.729-1.015-31.82l11.152-0.435
					c0,0,1.018,30.345,1.026,31.263C162.056,274.673,162.089,278.503,158.19,279.804z"/>
			</g>
			<g>
				<path style="fill:#E9B14D;" d="M164.853,262.231c-5.565-0.133-11.138-0.086-16.708-0.077
					c-0.042-27.386-12.02-79.597-12.02-79.597s1.612-5.402,7.996-7.01C160.782,188.795,164.427,233.243,164.853,262.231z"/>
			</g>
			<path style="fill:#021627;" d="M172.132,285.347l-38.623,3.132l-3.132-38.623L169,246.724c1.376-0.112,2.582,0.914,2.694,2.29
				l2.727,33.64C174.533,284.029,173.508,285.235,172.132,285.347z"/>
		</g>
		<g>
			<g>
				<g>
					<polygon style="fill:#A34F2A;" points="89.897,417.667 77.199,412.558 77.528,362.063 98.887,360.158 					"/>
					<polygon style="fill:#A34F2A;" points="105.456,425.959 76.209,425.043 77.199,412.558 106.423,424.397 					"/>
					<g>
						<g>
							<polygon style="fill:#000E94;" points="90.8,418.068 76.247,416.993 75.718,425.61 105.456,425.959 106.422,424.397 							
								"/>
						</g>
						<polygon style="fill:#021627;" points="106.991,424.411 99.68,421.226 99.496,424.494 75.479,423.459 75.274,426.177 
							106.776,426.177 						"/>
						<path style="fill:#000E94;" d="M92.796,421.112l-3.737-0.93c0,0-0.646-6.572,0.962-6.619
							C91.884,413.508,92.796,421.112,92.796,421.112z"/>
					</g>
				</g>
				<path style="fill:#000E94;" d="M94.737,409.723H73.225l9.142-168.514c0,0,14.656-23.353,41.833-22.263h0l3.299,46.072
					l-8.562,3.425L94.737,409.723z"/>
				<g>
					<path style="fill:#021627;" d="M87.217,265.533c-0.582,0-1.163-0.036-1.742-0.109l0.134-1.055
						c5.591,0.712,11.526-2.36,14.426-7.467l0.924,0.525C98.151,262.371,92.681,265.533,87.217,265.533z"/>
				</g>
			</g>
			<g>
				<g>
					<polygon style="fill:#A34F2A;" points="141.568,418.925 127.643,412.56 124.137,364.332 142.26,375.112 					"/>
					<polygon style="fill:#A34F2A;" points="156.368,425.959 127.089,425.043 127.643,412.558 157.28,424.397 					"/>
					<g>
						<g>
							<polygon style="fill:#000E94;" points="141.436,418.068 126.846,416.993 126.618,425.61 156.368,425.959 157.28,424.397 
															"/>
						</g>
						<polygon style="fill:#021627;" points="157.849,424.411 150.426,421.226 150.357,424.494 126.304,423.459 126.194,426.177 
							157.696,426.177 						"/>
						<path style="fill:#000E94;" d="M143.539,421.112l-3.77-0.93c0,0-0.876-6.572,0.731-6.619
							C142.362,413.508,143.539,421.112,143.539,421.112z"/>
					</g>
				</g>
				<path style="fill:#000E94;" d="M124.341,409.408l20.722-0.252l8.038-170.217c0,0-14.961-20.033-30.135-20.033l-5.397,3.579
					L124.341,409.408z"/>
				<g>
					<polygon style="fill:#021627;" points="95.261,409.815 94.214,409.633 118.699,268.08 127.415,263.991 127.866,264.952 
						119.651,268.807 					"/>
				</g>
			</g>
			<g>
				
					<rect x="126.789" y="405.112" transform="matrix(0.9906 -0.137 0.137 0.9906 -54.294 22.4495)" style="fill:#021627;" width="18.297" height="1.063"/>
			</g>
			<g>
				
					<rect x="137.188" y="339.8" transform="matrix(0.9232 -0.3843 0.3843 0.9232 -119.954 80.4287)" style="fill:#021627;" width="8.125" height="1.062"/>
			</g>
			<g>
				
					<rect x="74.914" y="405.112" transform="matrix(0.9906 -0.137 0.137 0.9906 -54.7823 15.342)" style="fill:#021627;" width="18.297" height="1.063"/>
			</g>
		</g>
		<g>
			<path style="fill:#E9B14D;" d="M153.895,253.983c-0.205-20.393-0.41-40.786-0.615-61.179
				c-0.226-12.56-10.117-22.031-22.076-21.814c-5.944,0.113-11.883,0.113-17.815,0c-11.937-0.216-22.778,9.255-24.264,21.814
				c-2.251,20.393-4.502,40.786-6.752,61.179H153.895z"/>
			<g>
				<path style="fill:#021627;" d="M153.363,253.988l-0.615-61.179c-0.106-5.896-2.407-11.339-6.479-15.324
					c-4.035-3.949-9.399-6.057-15.056-5.964l-0.02-1.063c5.969-0.104,11.579,2.119,15.819,6.268
					c4.273,4.181,6.686,9.888,6.798,16.068l0.615,61.184L153.363,253.988z"/>
			</g>
			<g>
				
					<rect x="105.597" y="247.362" transform="matrix(0.9977 -0.0681 0.0681 0.9977 -16.5857 9.1205)" style="fill:#021627;" width="39.84" height="1.062"/>
			</g>
			<g>
				
					<rect x="90.643" y="249.509" transform="matrix(0.9977 -0.068 0.068 0.9977 -16.7808 6.9638)" style="fill:#021627;" width="6.571" height="1.062"/>
			</g>
		</g>
		<g>
			<g>
				<path style="fill:#A34F2A;" d="M83.262,279.075c0.808-0.095,1.264-0.945,1.061-1.686c0,0,1.043,3.815,2.63,3.432
					c1.27-0.306,1.179-1.873,1.179-1.873s0.897,3.278,2.484,2.895s0.69-3.661,0.69-3.661c0.225,0.823,1.118,1.319,1.994,1.107
					c2.222-0.536-0.444-7.807-0.444-7.807s2.633,2.639,4.136,1.517c1.679-1.254-7.159-12.568-7.159-12.568
					c-0.536-0.576-11.692,1.511-12.305,2.015l2.251,9.464l0.204,0.745C79.984,272.655,81.459,279.287,83.262,279.075z"/>
				<g>
					
						<rect x="89.961" y="271.496" transform="matrix(0.9646 -0.2638 0.2638 0.9646 -69.3911 33.6188)" style="fill:#021627;" width="1.062" height="7.415"/>
				</g>
				<g>
					
						<rect x="86.787" y="272.261" transform="matrix(0.9646 -0.2639 0.2639 0.9646 -69.7244 32.821)" style="fill:#021627;" width="1.062" height="7.415"/>
				</g>
				<g>
					
						<rect x="83.287" y="273.071" transform="matrix(0.9646 -0.2639 0.2639 0.9646 -69.7343 31.8813)" style="fill:#021627;" width="1.062" height="4.943"/>
				</g>
			</g>
			<path style="fill:#E9B14D;" d="M108.242,191.899c-25.43,21.873-23.677,41.097-15.581,68.46
				c0.076,0.257-16.402,3.771-16.484,3.508c-1.452-4.682-26.758-52.296,23.73-88.277"/>
			<g>
				<path style="fill:#021627;" d="M76.267,264.397c-0.481,0-0.526-0.147-0.596-0.371c-0.108-0.348-0.368-0.977-0.728-1.848
					c-18.329-44.336,3.292-71.793,24.658-87.019l0.616,0.865c-21.051,15.003-42.354,42.057-24.292,85.748
					c0.268,0.648,0.482,1.166,0.626,1.553c2.139-0.277,13.153-2.619,15.462-3.285c-7.244-24.643-8.361-41.359,6.149-58.788
					l0.816,0.68c-14.297,17.173-13.071,33.73-5.808,58.278c0.159,0.538-0.41,0.711-0.683,0.793c-1.247,0.377-5.52,1.328-8.962,2.052
					C78.849,264.036,77.021,264.397,76.267,264.397z"/>
			</g>
		</g>
		<g>
			<path style="fill:#021627;" d="M143.106,141.876c0,2.429-2.142,4.49-2.854,6.682c-0.738,2.272-0.242,5.193-1.618,7.084
				c-1.39,1.91-4.331,2.334-6.241,3.724c-1.891,1.376-3.196,4.05-5.468,4.788c-2.192,0.712-4.81-0.661-7.239-0.661
				c-2.429,0-5.047,1.373-7.239,0.661c-2.272-0.738-3.577-3.412-5.468-4.788c-1.91-1.39-4.851-1.815-6.241-3.724
				c-1.376-1.891-0.88-4.812-1.618-7.084c-0.712-2.192-2.854-4.253-2.854-6.682c0-2.429,2.142-4.491,2.854-6.682
				c0.738-2.272,0.242-5.193,1.618-7.084c1.39-1.91,4.331-2.334,6.241-3.724c1.891-1.376,3.196-4.05,5.468-4.788
				c2.192-0.712,4.81,0.661,7.239,0.661c2.429,0,5.047-1.373,7.239-0.661c2.272,0.738,3.577,3.412,5.468,4.788
				c1.91,1.39,4.851,1.815,6.241,3.724c1.376,1.891,0.88,4.812,1.618,7.084C140.964,137.386,143.106,139.447,143.106,141.876z"/>
			<g>
				<g>
					<path style="fill:#A34F2A;" d="M121.265,175.254L121.265,175.254c2.768-0.104,4.927-2.431,4.823-5.199l0.063-2.97
						l-0.742-15.147l-10.022,0.376l0.68,18.117C116.169,173.199,118.497,175.358,121.265,175.254z"/>
					<polygon style="fill:#021627;" points="127.987,169.385 112.852,159.66 126.378,150.638 					"/>
				</g>
				<path style="fill:#A34F2A;" d="M126.887,164.814c8.569-0.619,11.889-9.563,10.656-18.726
					c-1.493-11.09-8.333-20.118-19.574-17.231C97.48,134.12,105.759,166.339,126.887,164.814z"/>
				<g>
					<g>
						<path style="fill:#021627;" d="M120.238,146.978c0.11,0.552,0.647,0.909,1.199,0.799c0.552-0.11,0.909-0.647,0.799-1.199
							c-0.11-0.552-0.647-0.909-1.199-0.799C120.486,145.889,120.128,146.426,120.238,146.978z"/>
					</g>
					<g>
						<path style="fill:#021627;" d="M130.943,145.859c0.11,0.552,0.647,0.909,1.199,0.799c0.552-0.11,0.909-0.647,0.799-1.199
							c-0.11-0.552-0.647-0.909-1.199-0.799C131.191,144.771,130.833,145.307,130.943,145.859z"/>
					</g>
					<g>
						<path style="fill:#021627;" d="M118.436,145.672l-0.979-0.414c0.629-1.487,1.819-2.561,3.182-2.876
							c0.863-0.197,2.185-0.182,3.572,1.028l-0.699,0.801c-0.83-0.725-1.74-1-2.634-0.793
							C119.861,143.652,118.925,144.516,118.436,145.672z"/>
					</g>
					<g>
						<path style="fill:#021627;" d="M126.994,155.015c-0.238,0-0.479-0.016-0.722-0.047c-1.674-0.216-3.261-1.178-4.244-2.574
							l0.868-0.612c0.815,1.157,2.128,1.954,3.512,2.132c0.863,0.113,2.151,0.025,3.383-1.015l0.686,0.813
							C129.457,154.571,128.266,155.015,126.994,155.015z"/>
					</g>
					<g>
						<path style="fill:#021627;" d="M128.855,151.629l-0.211-1.041l1.691-0.343l-1.531-6.557l0.065-0.157
							c0.527-1.28,1.425-2.089,2.527-2.279c1.234-0.209,2.602,0.363,3.656,1.538l-0.791,0.709c-0.796-0.888-1.827-1.349-2.686-1.2
							c-0.699,0.12-1.27,0.632-1.659,1.483l1.701,7.287L128.855,151.629z"/>
					</g>
				</g>
			</g>
			<path style="fill:#021627;" d="M108.015,151.396l8.703-11.59c1.53-2.037,4.133-2.961,6.601-2.326
				c3.686,0.948,9.092,1.833,12.306,0.037c3.464-1.935,6.25-12.5-9.375-13.125C88.188,122.871,108.015,151.396,108.015,151.396z"/>
			<path style="fill:#A34F2A;" d="M112.29,149.838c-0.106,2.354-2.1,4.176-4.454,4.069c-2.354-0.106-4.176-2.1-4.07-4.454
				c0.106-2.354,2.1-4.176,4.454-4.07C110.574,145.49,112.396,147.484,112.29,149.838z"/>
			<g>
				<polygon style="fill:#021627;" points="107.876,151.643 107.123,150.893 108.192,149.821 106.789,149.059 107.295,148.126 
					109.947,149.564 				"/>
			</g>
		</g>
		<g>
			<g>
				<g>
					<g>
						<polygon style="fill:#E9B14D;" points="131.573,183.879 118.632,187.56 124.24,168.909 131.573,165.228 						"/>
						<polygon style="fill:#E9B14D;" points="112.972,183.879 125.913,187.56 120.305,168.909 112.972,165.228 						"/>
					</g>
				</g>
			</g>
			<g>
				<g>
					<polygon style="fill:#021627;" points="125.762,174.061 124.599,170.549 125.608,170.215 126.233,172.102 130.336,168.044 
						131.083,168.8 					"/>
				</g>
				<g>
					<polygon style="fill:#021627;" points="118.783,174.061 113.462,168.8 114.209,168.044 118.312,172.102 118.937,170.215 
						119.946,170.549 					"/>
				</g>
			</g>
		</g>
	</g>
</g>
</svg>
