<?xml version="1.0" encoding="UTF-8"?>
<!DOCTYPE svg PUBLIC "-//W3C//DTD SVG 1.1//EN" "http://www.w3.org/Graphics/SVG/1.1/DTD/svg11.dtd">
<!-- Creator: CorelDRAW -->
<svg xmlns="http://www.w3.org/2000/svg" xml:space="preserve" width="6.82666in" height="6.82666in" style="shape-rendering:geometricPrecision; text-rendering:geometricPrecision; image-rendering:optimizeQuality; fill-rule:evenodd; clip-rule:evenodd"
viewBox="0 0 6.82666 6.82666"
 xmlns:xlink="http://www.w3.org/1999/xlink">
 <defs>
  <style type="text/css">
   <![CDATA[
    .fil13 {fill:none}
    .fil3 {fill:#414141}
    .fil5 {fill:#616161}
    .fil1 {fill:#858585}
    .fil4 {fill:#9E9E9E}
    .fil10 {fill:#ABABAB}
    .fil2 {fill:#E4E5E5}
    .fil0 {fill:#F1F1F2}
    .fil12 {fill:#2D2D2D;fill-rule:nonzero}
    .fil11 {fill:#2F2F2F;fill-rule:nonzero}
    .fil9 {fill:#444444;fill-rule:nonzero}
    .fil8 {fill:#6C6C6C;fill-rule:nonzero}
    .fil6 {fill:#959595;fill-rule:nonzero}
    .fil7 {fill:#C7C7C7;fill-rule:nonzero}
   ]]>
  </style>
 </defs>
 <g id="Layer_x0020_1">
  <metadata id="CorelCorpID_0Corel-Layer"/>
  <g id="_510589024">
   <circle id="_510591136" class="fil0" cx="3.41333" cy="2.99667" r="1.2846"/>
   <path id="_510590416" class="fil1" d="M3.41333 1.49832c0.827512,0 1.49834,0.670831 1.49834,1.49834 0,0.827512 -0.670831,1.49834 -1.49834,1.49834 -0.827512,0 -1.49834,-0.670831 -1.49834,-1.49834 0,-0.827512 0.670827,-1.49834 1.49834,-1.49834zm0 0.241055c0.694382,0 1.25729,0.562906 1.25729,1.25729 0,0.694382 -0.562906,1.25729 -1.25729,1.25729 -0.694378,0 -1.25728,-0.562906 -1.25728,-1.25729 0,-0.694382 0.562906,-1.25729 1.25728,-1.25729z"/>
   <path id="_510590296" class="fil2" d="M3.41333 1.81682c0.651614,0 1.17985,0.528236 1.17985,1.17985 0,0.65161 -0.528236,1.17985 -1.17985,1.17985 -0.65161,0 -1.17985,-0.528236 -1.17985,-1.17985 0,-0.65161 0.528236,-1.17985 1.17985,-1.17985zm0 0.189815c0.546783,0 0.990035,0.443252 0.990035,0.990031 0,0.54678 -0.443252,0.990031 -0.990035,0.990031 -0.54678,0 -0.990031,-0.443252 -0.990031,-0.990031 0,-0.54678 0.443252,-0.990031 0.990031,-0.990031z"/>
   <path id="_510589768" class="fil3" d="M3.43979 2.83031l-0.0389488 -0.817886 -0.0389488 0.817886 0 0.102106c-0.00969291,0.00601575 -0.0178898,0.0142165 -0.0239094,0.0239094l0.00418504 0 -0.81789 0.0389488 0.81789 0.0389488 -0.00418898 0c0.00601969,0.00969291 0.0142205,0.0178937 0.0239134,0.0239134l0 0.0330276c0,0.0215118 0.0174409,0.0389488 0.0389488,0.0389488 0.0215079,0 0.0389488,-0.017437 0.0389488,-0.0389488l0 -0.0330276c0.00969291,-0.00602362 0.0178898,-0.0142205 0.0239094,-0.0239134l0.0110827 0c0.0215079,0 0.0389488,-0.0174409 0.0389488,-0.0389488 0,-0.0215079 -0.0174409,-0.0389488 -0.0389488,-0.0389488l-0.0110827 0c-0.00601969,-0.00969291 -0.0142165,-0.0178898 -0.0239094,-0.0239094l0 -0.102106z"/>
   <circle id="_510589816" class="fil4" cx="3.40017" cy="3.00052" r="0.0434174"/>
   <circle id="_510589840" class="fil5" cx="3.40017" cy="3.00052" r="0.0153621"/>
   <path id="_510590224" class="fil6" d="M3.43898 1.83429c0,-0.0141654 -0.0114843,-0.0256496 -0.0256496,-0.0256496 -0.0141654,0 -0.0256496,0.0114843 -0.0256496,0.0256496l0 0.15763c0,0.0141654 0.0114843,0.0256496 0.0256496,0.0256496 0.0141654,0 0.0256496,-0.0114843 0.0256496,-0.0256496l0 -0.15763z"/>
   <path id="_510589912" class="fil6" d="M2.23909 2.98288c-0.0141654,0 -0.0256496,0.0114843 -0.0256496,0.0256496 0,0.0141654 0.0114843,0.0256496 0.0256496,0.0256496l0.15763 0c0.0141654,0 0.0256496,-0.0114843 0.0256496,-0.0256496 0,-0.0141654 -0.0114843,-0.0256496 -0.0256496,-0.0256496l-0.15763 0z"/>
   <path id="_510590032" class="fil7" d="M2.60115 2.16008c-0.0100157,-0.0100157 -0.0262598,-0.0100157 -0.0362756,0 -0.0100157,0.0100157 -0.0100157,0.0262598 0,0.0362756l0.111465 0.111461c0.0100157,0.0100197 0.0262559,0.0100197 0.0362717,0 0.0100197,-0.0100157 0.0100197,-0.0262559 0,-0.0362717l-0.111461 -0.111465z"/>
   <path id="_510590272" class="fil7" d="M2.60115 3.85698c-0.0100157,0.0100157 -0.0262598,0.0100157 -0.0362756,0 -0.0100157,-0.0100157 -0.0100157,-0.0262559 0,-0.0362717l0.111465 -0.111465c0.0100157,-0.0100157 0.0262559,-0.0100157 0.0362717,0 0.0100197,0.0100157 0.0100197,0.0262598 0,0.0362756l-0.111461 0.111461z"/>
   <path id="_510589192" class="fil6" d="M4.42993 2.98288c-0.0141654,0 -0.0256496,0.0114843 -0.0256496,0.0256496 0,0.0141654 0.0114843,0.0256496 0.0256496,0.0256496l0.157634 0c0.0141654,0 0.0256496,-0.0114843 0.0256496,-0.0256496 0,-0.0141654 -0.0114843,-0.0256496 -0.0256496,-0.0256496l-0.157634 0z"/>
   <path id="_510589096" class="fil7" d="M4.15031 3.70924c-0.0100157,-0.0100157 -0.0262598,-0.0100157 -0.0362756,0 -0.0100157,0.0100157 -0.0100157,0.0262598 0,0.0362756l0.111465 0.111461c0.0100157,0.0100157 0.0262559,0.0100157 0.0362717,0 0.0100157,-0.0100157 0.0100157,-0.0262559 0,-0.0362717l-0.111461 -0.111465z"/>
   <path id="_510589552" class="fil7" d="M4.15031 2.30781c-0.0100157,0.0100197 -0.0262598,0.0100197 -0.0362756,0 -0.0100157,-0.0100157 -0.0100157,-0.0262559 0,-0.0362717l0.111465 -0.111465c0.0100157,-0.0100157 0.0262559,-0.0100157 0.0362717,0 0.0100157,0.0100157 0.0100157,0.0262598 0,0.0362756l-0.111461 0.111461z"/>
  </g>
  <path class="fil8" d="M2.9758 4.53304l0 0.166772 -0.629142 0c0.00697638,-0.063 0.027248,-0.122732 0.0614764,-0.179193 0.0340079,-0.0564606 0.10137,-0.13124 0.201646,-0.224543 0.0810984,-0.0752047 0.130583,-0.126437 0.148894,-0.153252 0.0246378,-0.0370551 0.0370591,-0.0736811 0.0370591,-0.10987 0,-0.0398937 -0.0106772,-0.0706339 -0.0322638,-0.0922126 -0.0215787,-0.0215827 -0.0512283,-0.0322638 -0.0891614,-0.0322638 -0.0374961,0 -0.0671417,0.0113346 -0.089378,0.0337874 -0.0220157,0.0226732 -0.0348819,0.0601693 -0.0383701,0.112488l-0.178756 -0.017874c0.0106811,-0.0987559 0.0440354,-0.169606 0.10028,-0.212768 0.0562441,-0.0429488 0.126441,-0.0645276 0.210803,-0.0645276 0.0924331,0 0.165028,0.0250669 0.217783,0.0747717 0.0527559,0.0499252 0.0791299,0.111835 0.0791299,0.185953 0,0.0420748 -0.00762598,0.082189 -0.0226693,0.120335 -0.0150433,0.0381496 -0.0390236,0.0780472 -0.0717244,0.119681 -0.0217953,0.027689 -0.0610394,0.0675827 -0.1175,0.119469 -0.0566772,0.0518819 -0.0926496,0.0865433 -0.107689,0.103547 -0.0150433,0.0170079 -0.0274685,0.0335709 -0.0368425,0.0497008l0.356425 0zm0.47328 0.166772l0 -0.18835 -0.383244 0 0 -0.157181 0.40635 -0.594697 0.150638 0 0 0.594043 0.116193 0 0 0.157835 -0.116193 0 0 0.18835 -0.173744 0zm0 -0.346185l0 -0.32002 -0.215165 0.32002 0.215165 0zm0.592736 -0.590118l0 0.344217c0.0579882,-0.0675748 0.127094,-0.101587 0.207535,-0.101587 0.0414213,0 0.0784843,0.00785039 0.111839,0.0231102 0.0331299,0.0152598 0.0582047,0.034878 0.0749882,0.0586378 0.0167874,0.0239803 0.0283386,0.0503583 0.0344449,0.0793583 0.00632283,0.0287756 0.00937402,0.0738976 0.00937402,0.13472l0 0.397846 -0.179413 0 0 -0.35839c0,-0.0710669 -0.00348819,-0.116193 -0.010248,-0.135378 -0.00697638,-0.0191811 -0.0189685,-0.0342283 -0.036189,-0.0455591 -0.0172165,-0.0113386 -0.0388031,-0.0170079 -0.0647441,-0.0170079 -0.0298661,0 -0.0564606,0.00719685 -0.0797874,0.0218031 -0.0235433,0.0143858 -0.0407677,0.036185 -0.0514488,0.0653976 -0.0108976,0.0292087 -0.0163504,0.072374 -0.0163504,0.129272l0 0.339862 -0.179413 0 0 -0.936303 0.179413 0z"/>
  <g id="_510588856">
   <g>
    <path id="_510589312" class="fil9" d="M3.02389 5.75881c0.0589094,0 0.106669,-0.0477598 0.106669,-0.106669 0,-0.0589094 -0.0477598,-0.106669 -0.106669,-0.106669l-1.22667 0c-0.16122,0 -0.307866,-0.0660354 -0.414248,-0.172413 -0.106378,-0.106378 -0.172413,-0.253028 -0.172413,-0.414248l0 -3.93701e-006c0,-0.0589094 -0.0477598,-0.106669 -0.106669,-0.106669 -0.0589094,0 -0.106669,0.0477598 -0.106669,0.106669l0 3.93701e-006c0,0.220106 0.0899724,0.420138 0.234917,0.565083 0.144949,0.144945 0.344976,0.234917 0.565083,0.234917l1.22667 0z"/>
    <path id="_510588952" class="fil9" d="M0.959996 3.75882c0,0.0589094 0.0477598,0.106669 0.106669,0.106669 0.0589094,0 0.106669,-0.0477598 0.106669,-0.106669l0 -0.453339c0,-0.61589 0.252035,-1.17587 0.658079,-1.58192 0.406047,-0.406043 0.966028,-0.658079 1.58192,-0.658079l3.93701e-006 0c0.61589,0 1.17587,0.252035 1.58192,0.658079 0.406043,0.406047 0.658079,0.966028 0.658079,1.58192l0 0.453339c0,0.0589094 0.0477598,0.106669 0.106669,0.106669 0.0589094,0 0.106669,-0.0477598 0.106669,-0.106669l0 -0.453339c0,-0.674776 -0.275972,-1.28814 -0.720583,-1.73275 -0.444614,-0.44461 -1.05798,-0.720583 -1.73275,-0.720583l-3.93701e-006 0c-0.674776,0 -1.28814,0.275972 -1.73275,0.720583 -0.44461,0.444614 -0.720583,1.05798 -0.720583,1.73275l0 0.453339z"/>
    <g>
     <path id="_510589528" class="fil10" d="M1.35219 5.13893l-0.152618 -0.0710039 -0.00292913 -1.42119c0,-0.0077126 0.00196063,-0.0150945 0.00552362,-0.0218858l0.138898 -0.0296772c0.0140236,0.0109094 0.0226299,0.0256181 0.0226299,0.0417992l-0.00357874 1.47595c0,0.00930315 -0.00283858,0.0181181 -0.0079252,0.0260039z"/>
     <path id="_510589144" class="fil11" d="M0.836512 3.70638l0.395563 -0.0909331c-0.00345669,0.0080748 -0.00540157,0.0171496 -0.00540157,0.0267402l0 1.44483 -0.417508 -0.191953 0.0441654 -0.0966654 -0.0445591 0.0969134c-0.0396535,-0.0182323 -0.0627874,-0.0577283 -0.0621102,-0.0987362l0 -0.98485c0,-0.053185 0.0389331,-0.0972795 0.0898504,-0.105346zm0.47863 -0.110028l0.094437 -0.0217087c0.0169016,-0.00388583 0.0330197,-0.00573228 0.0482913,-0.00573228 0.063,0 0.119291,0.0275157 0.162642,0.0705197 0.038185,0.037874 0.0663386,0.0889449 0.0786929,0.142701 0.00486614,0.021189 0.00746063,0.042378 0.00746063,0.0629291l0 1.05333c0,0.0414803 -0.0106654,0.085248 -0.0288976,0.124909 -0.0180394,0.0392441 -0.0441378,0.0754449 -0.0752402,0.102339 -0.0383504,0.0331535 -0.0845118,0.0537323 -0.135169,0.0537323 -0.025626,0 -0.0518504,-0.00553937 -0.0781929,-0.0176496l-0.0621063 -0.0285551c0.00401181,-0.00855512 0.00628346,-0.0183268 0.00628346,-0.0287087l0 -1.46228c0,-0.0182717 -0.00704724,-0.0346693 -0.0182008,-0.0458346z"/>
    </g>
    <g>
     <path id="_510588376" class="fil10" d="M5.47447 5.13893l0.152618 -0.0710039 0.00292913 -1.42119c0,-0.0077126 -0.00196063,-0.0150945 -0.00552362,-0.0218858l-0.138898 -0.0296772c-0.0140236,0.0109094 -0.0226299,0.0256181 -0.0226299,0.0417992l0.00357874 1.47595c0,0.00930315 0.00283858,0.0181181 0.0079252,0.0260039z"/>
     <path id="_510588352" class="fil11" d="M5.99015 3.70638l-0.395563 -0.0909331c0.00345669,0.0080748 0.00540157,0.0171496 0.00540157,0.0267402l0 1.44483 0.417508 -0.191953 -0.0441654 -0.0966654 0.0445591 0.0969134c0.0396535,-0.0182323 0.0627874,-0.0577283 0.0621102,-0.0987362l0 -0.98485c0,-0.053185 -0.0389331,-0.0972795 -0.0898504,-0.105346zm-0.47863 -0.110028l-0.094437 -0.0217087c-0.0169016,-0.00388583 -0.0330197,-0.00573228 -0.0482913,-0.00573228 -0.063,0 -0.119291,0.0275157 -0.162642,0.0705197 -0.038185,0.037874 -0.0663386,0.0889449 -0.0786929,0.142701 -0.00486614,0.021189 -0.00746063,0.042378 -0.00746063,0.0629291l0 1.05333c0,0.0414803 0.0106654,0.085248 0.0288976,0.124909 0.0180394,0.0392441 0.0441378,0.0754449 0.0752402,0.102339 0.0383504,0.0331535 0.0845118,0.0537323 0.135169,0.0537323 0.025626,0 0.0518504,-0.00553937 0.0781929,-0.0176496l0.0621063 -0.0285551c-0.00401181,-0.00855512 -0.00628346,-0.0183268 -0.00628346,-0.0287087l0 -1.46228c0,-0.0182717 0.00704724,-0.0346693 0.0182008,-0.0458346z"/>
    </g>
    <path id="_510588664" class="fil12" d="M3.29056 5.33451c0.0883504,0 0.168358,0.0358268 0.226268,0.0937362 0.0579094,0.0579094 0.0937362,0.137917 0.0937362,0.226268 0,0.0883504 -0.0358268,0.168358 -0.0937362,0.226268 -0.0579094,0.0579094 -0.137917,0.0937362 -0.226268,0.0937362 -0.00232677,0 -0.00487402,-3.14961e-005 -0.00754724,-8.26772e-005l0 -0.639843c0.00267323,-5.11811e-005 0.00522047,-8.26772e-005 0.00754724,-8.26772e-005z"/>
   </g>
   <path id="_510588424" class="fil11" d="M3.29056 5.33451c0.0883504,0 0.168358,0.0358268 0.226268,0.0937362 0.0579094,0.0579094 0.0937362,0.137917 0.0937362,0.226268 0,0.0883504 -0.0358268,0.168358 -0.0937362,0.226268 -0.0579094,0.0579094 -0.137917,0.0937362 -0.226268,0.0937362 -0.0883504,0 -0.435024,-0.0358268 -0.492933,-0.0937362 -0.0579094,-0.0579094 -0.0937362,-0.137917 -0.0937362,-0.226268 0,-0.0883504 0.0358268,-0.168358 0.0937362,-0.226268 0.0579094,-0.0579094 0.404583,-0.0937362 0.492933,-0.0937362z"/>
  </g>
 </g>
 <rect class="fil13" width="6.82666" height="6.82666"/>
</svg>
