<?xml version="1.0" encoding="utf-8"?>
<!-- Generator: Adobe Illustrator 24.3.0, SVG Export Plug-In . SVG Version: 6.00 Build 0)  -->
<svg version="1.1" id="Layer_1" xmlns="http://www.w3.org/2000/svg" xmlns:xlink="http://www.w3.org/1999/xlink" x="0px" y="0px"
	 viewBox="0 0 300 300" enable-background="new 0 0 300 300" xml:space="preserve">
<g>
	<g>
		<g>
			<path fill="#9AE8CE" d="M210.455,82.57v194.197h15.656c5.9,0,11.316-4.778,11.316-10.684v-6.453L210.455,82.57z"/>
		</g>
		<g>
			<path fill="#E5E5E4" d="M88.291,82.57l-23.484,177.06v6.453c0,5.906,5.415,10.684,11.316,10.684h134.332V82.57H88.291z"/>
		</g>
		<g>
			<path fill="#EFEFEF" d="M75.596,266.084v-6.453L99.08,82.57H88.291l-23.484,177.06v6.453c0,5.906,5.415,10.684,11.316,10.684
				h10.789C81.011,276.767,75.596,271.99,75.596,266.084z"/>
		</g>
		<g>
			<path fill="#FFDA88" d="M145.722,104.148c-2.718-2.718-8.07-2.718-10.789,0l-32.366,37.761v97.099h75.521v-97.099
				L145.722,104.148z"/>
		</g>
		<g>
			<path fill="#FFE2A9" d="M145.722,104.148c-2.718-2.718-8.07-2.718-10.789,0l-32.366,37.761v97.099h10.789v-97.099
				L145.722,104.148z"/>
		</g>
		<g>
			<path fill="#FE6F80" d="M157.072,186.396c-1.109-1.95-2.476-3.472-4.112-4.589c-1.636-1.101-4.054-2.339-7.251-3.693
				c-4.37-1.754-6.543-3.846-6.543-6.248c0-1.217,0.419-2.265,1.259-3.155c0.843-0.859,1.851-1.312,3.011-1.312
				c1.517,0,4.004,1.022,7.444,3.055l4.765-7.765c-2.11-3.055-4.528-4.994-9.922-4.699v-3.487c0-1.812-1.417-3.282-5.394-3.282
				c-3.977,0-5.394,1.469-5.394,3.282v4.019c0,0-1.957,0.674-4.433,3.25c-2.715,2.813-3.232,7.557-3.232,10.81
				c0,6.522,5.436,9.335,6.727,10.315c1.286,0.98,3.393,2.123,5.953,3.23c5.257,2.249,7.689,4.029,7.689,6.579
				c0,1.227-0.564,2.413-1.725,3.535c-1.167,1.127-2.374,1.601-3.638,1.696c-3.558,0.248-6.497-2.254-10.593-5.273l-5.534,7.712
				c3.753,4.441,8.787,6.448,8.787,6.543v3.277c0,1.817,1.928,3.282,5.394,3.282c3.261,0,5.394-1.465,5.394-3.282v-3.277
				c0-0.043,4.552-0.611,7.639-3.272c3.04-2.629,5.316-6.695,5.316-10.878C158.676,190.479,158.176,188.366,157.072,186.396z"/>
		</g>
		<g>
			<path fill="#FE6F80" d="M131.22,60.993h-3.361c-7.726,0-14.503,7.28-14.503,15.58v5.997h10.789v-5.997
				c0-2.284,1.944-4.791,3.714-4.791h3.361c1.77,0,3.714,2.507,3.714,4.791v11.392v10.789v32.366c0,2.979,2.416,5.394,5.394,5.394
				c2.979,0,5.394-2.416,5.394-5.394V76.573C145.722,68.273,138.945,60.993,131.22,60.993z"/>
		</g>
		<g>
			<g>
				<path fill="#FFA1AA" d="M132.236,61.112c-0.342-0.029-0.672-0.119-1.017-0.119h-3.361c-7.726,0-14.503,7.28-14.503,15.58v5.997
					h5.394v-5.997C118.751,68.645,124.948,61.72,132.236,61.112z"/>
			</g>
			<g>
				<path fill="#FFA1AA" d="M140.328,131.12V98.754V87.965V76.573c0-2.284-1.944-4.791-3.714-4.791h-3.361
					c-0.34,0-0.68,0.163-1.017,0.326c1.423,0.696,2.697,2.618,2.697,4.465v11.392v10.789v32.366c0,2.979,2.416,5.394,5.394,5.394
					c1.003,0,1.891-0.348,2.697-0.827C141.442,134.747,140.328,133.095,140.328,131.12z"/>
			</g>
		</g>
		<g>
			<path fill="#E5E5E4" d="M118.751,82.57V57.5c0-15.919,12.954-28.873,28.879-28.873h1.581c15.925,0,28.879,12.954,28.879,28.873
				v25.07h10.789V57.5c0-21.867-17.795-39.662-39.667-39.662h-1.581c-21.872,0-39.667,17.795-39.667,39.662v25.07H118.751z"/>
		</g>
		<g>
			<g>
				<path fill="#EFEFEF" d="M154.604,28.627h-1.581c-0.653,0-1.264,0.15-1.907,0.192c15.022,1.004,26.972,13.415,26.972,28.681
					v25.07h5.394V57.5C183.483,41.581,170.529,28.627,154.604,28.627z"/>
			</g>
			<g>
				<path fill="#EFEFEF" d="M151.117,17.936c-0.638-0.032-1.264-0.098-1.907-0.098h-1.581c-21.872,0-39.667,17.795-39.667,39.662
					v25.07h5.394V57.5C113.356,36.276,130.132,18.939,151.117,17.936z"/>
			</g>
		</g>
		<g>
			<path fill="#9AE8CE" d="M269.793,50.204V44.81h5.394c2.981,0,5.394-2.413,5.394-5.394c0-2.977-2.413-5.389-5.394-5.394h-5.394
				v-5.394c0-2.977-2.413-5.394-5.394-5.394c-2.981,0-5.394,2.418-5.394,5.394v5.394h-5.394c-2.979,0-5.392,2.413-5.392,5.394
				c-0.003,2.977,2.413,5.394,5.392,5.394h5.394v5.394c0,2.982,2.413,5.394,5.394,5.394
				C267.38,55.599,269.793,53.186,269.793,50.204z"/>
		</g>
		<g>
			<path fill="#9AE8CE" d="M248.215,82.57v-5.394h5.394c2.981,0,5.394-2.413,5.394-5.394c0-2.977-2.413-5.389-5.394-5.394h-5.394
				v-5.394c0-2.977-2.413-5.394-5.394-5.394c-2.981,0-5.394,2.418-5.394,5.394v5.394h-5.394c-2.979,0-5.392,2.413-5.392,5.394
				c-0.003,2.977,2.413,5.394,5.392,5.394h5.394v5.394c0,2.981,2.413,5.394,5.394,5.394
				C245.802,87.965,248.215,85.552,248.215,82.57z"/>
		</g>
		<g>
			<path fill="#9AE8CE" d="M43.886,140.328l-3.817-3.814l3.814-3.814c2.11-2.108,2.11-5.521,0.003-7.628
				c-2.107-2.107-5.519-2.107-7.631,0l-3.814,3.814l-3.814-3.814c-2.105-2.107-5.521-2.112-7.628,0c-2.11,2.107-2.104,5.521,0,7.628
				l3.814,3.814l-3.814,3.814c-2.107,2.108-2.107,5.521,0,7.628c2.104,2.107,5.521,2.107,7.631,0l3.811-3.814l3.814,3.814
				c2.11,2.107,5.524,2.107,7.628,0C45.993,145.849,45.993,142.436,43.886,140.328z"/>
		</g>
		<g>
			<path fill="#FFDA88" d="M54.018,104.148c0,2.977-2.413,5.394-5.394,5.394c-2.981,0-5.394-2.418-5.394-5.394
				s2.413-5.394,5.394-5.394C51.605,98.754,54.018,101.171,54.018,104.148z"/>
		</g>
		<g>
			<path fill="#FFDA88" d="M269.793,109.542c0,2.977-2.413,5.394-5.394,5.394c-2.981,0-5.394-2.418-5.394-5.394
				s2.413-5.394,5.394-5.394C267.38,104.148,269.793,106.566,269.793,109.542z"/>
		</g>
		<g>
			<path fill="#FFDA88" d="M64.807,163.486c0,2.977-2.413,5.394-5.394,5.394c-2.981,0-5.394-2.418-5.394-5.394
				s2.413-5.394,5.394-5.394C62.394,158.091,64.807,160.509,64.807,163.486z"/>
		</g>
	</g>
	<g>
		<g>
			<path fill="#161616" d="M226.111,282.162h-15.656c-2.979,0-5.394-2.415-5.394-5.394V82.57c0-2.821,2.173-5.165,4.986-5.379
				c2.831-0.219,5.318,1.775,5.742,4.567l26.972,177.06c0.039,0.269,0.061,0.54,0.061,0.811v6.453
				C242.821,274.8,235.169,282.162,226.111,282.162z M215.849,271.373h10.262c3.1,0,5.921-2.521,5.921-5.289v-6.045l-16.183-106.236
				V271.373z"/>
		</g>
		<g>
			<path fill="#161616" d="M157.072,186.396c-1.109-1.95-2.476-3.472-4.112-4.589c-1.636-1.101-4.054-2.339-7.251-3.693
				c-4.37-1.754-6.543-3.846-6.543-6.248c0-1.217,0.419-2.265,1.259-3.155c0.843-0.859,1.851-1.312,3.011-1.312
				c1.517,0,4.004,1.022,7.444,3.055l4.765-7.765c-2.11-3.055-4.528-4.994-9.922-4.699v-3.487c0-1.812-1.417-3.282-5.394-3.282
				c-3.977,0-5.394,1.469-5.394,3.282v4.019c0,0-1.957,0.674-4.433,3.25c-2.715,2.813-3.232,7.557-3.232,10.81
				c0,6.522,5.436,9.335,6.727,10.315c1.286,0.98,3.393,2.123,5.953,3.23c5.257,2.249,7.689,4.029,7.689,6.579
				c0,1.227-0.564,2.413-1.725,3.535c-1.167,1.127-2.374,1.601-3.638,1.696c-3.558,0.248-6.497-2.254-10.593-5.273l-5.534,7.712
				c3.753,4.441,8.787,6.448,8.787,6.543v3.277c0,1.817,1.928,3.282,5.394,3.282c3.261,0,5.394-1.465,5.394-3.282v-3.277
				c0-0.043,4.552-0.611,7.639-3.272c3.04-2.629,5.316-6.695,5.316-10.878C158.676,190.479,158.176,188.366,157.072,186.396z"/>
		</g>
		<g>
			<path fill="#161616" d="M131.22,60.993h-3.361c-7.726,0-14.503,7.28-14.503,15.58v5.997h10.789v-5.997
				c0-2.284,1.944-4.791,3.714-4.791h3.361c1.77,0,3.714,2.507,3.714,4.791v11.392v10.789v32.366c0,2.979,2.416,5.394,5.394,5.394
				c2.979,0,5.394-2.416,5.394-5.394V76.573C145.722,68.273,138.945,60.993,131.22,60.993z"/>
		</g>
		<g>
			<path fill="#161616" d="M118.751,82.57V57.5c0-15.919,12.954-28.873,28.879-28.873h1.581c15.925,0,28.879,12.954,28.879,28.873
				v25.07h10.789V57.5c0-21.867-17.795-39.662-39.667-39.662h-1.581c-21.872,0-39.667,17.795-39.667,39.662v25.07H118.751z"/>
		</g>
		<g>
			<path fill="#161616" d="M210.455,282.162h-97.099c-2.979,0-5.394-2.415-5.394-5.394c0-2.979,2.415-5.394,5.394-5.394h91.704
				V87.965H93.017L70.201,259.987v6.098c0,2.768,2.821,5.289,5.921,5.289h15.656c2.979,0,5.394,2.415,5.394,5.394
				c0,2.979-2.415,5.394-5.394,5.394H76.123c-9.058,0-16.71-7.362-16.71-16.078v-6.453c0-0.237,0.016-0.474,0.047-0.708
				l23.484-177.06c0.356-2.681,2.642-4.686,5.347-4.686h122.163c2.979,0,5.394,2.415,5.394,5.394v194.197
				C215.849,279.746,213.434,282.162,210.455,282.162z"/>
		</g>
		<g>
			<path fill="#161616" d="M178.089,244.401h-75.521c-2.979,0-5.394-2.415-5.394-5.394v-97.099c0-1.288,0.461-2.534,1.299-3.511
				l32.366-37.76c5.105-5.123,13.884-5.115,18.699-0.303l32.648,38.063c0.838,0.977,1.299,2.223,1.299,3.511v53.944
				c0,2.979-2.415,5.394-5.394,5.394c-2.979,0-5.394-2.415-5.394-5.394v-51.947l-31.068-36.246
				c-0.327-0.303-2.273-0.305-2.879,0.303l-30.786,35.941v89.71h64.732V217.43c0-2.979,2.415-5.394,5.394-5.394
				c2.979,0,5.394,2.415,5.394,5.394v21.577C183.483,241.986,181.068,244.401,178.089,244.401z"/>
		</g>
		<g>
			<path fill="#161616" d="M269.793,50.204V44.81h5.394c2.981,0,5.394-2.413,5.394-5.394c0-2.977-2.413-5.389-5.394-5.394h-5.394
				v-5.394c0-2.977-2.413-5.394-5.394-5.394c-2.981,0-5.394,2.418-5.394,5.394v5.394h-5.394c-2.979,0-5.392,2.413-5.392,5.394
				c-0.003,2.977,2.413,5.394,5.392,5.394h5.394v5.394c0,2.982,2.413,5.394,5.394,5.394
				C267.38,55.599,269.793,53.186,269.793,50.204z"/>
		</g>
		<g>
			<path fill="#161616" d="M248.215,82.57v-5.394h5.394c2.981,0,5.394-2.413,5.394-5.394c0-2.977-2.413-5.389-5.394-5.394h-5.394
				v-5.394c0-2.977-2.413-5.394-5.394-5.394c-2.981,0-5.394,2.418-5.394,5.394v5.394h-5.394c-2.979,0-5.392,2.413-5.392,5.394
				c-0.003,2.977,2.413,5.394,5.392,5.394h5.394v5.394c0,2.981,2.413,5.394,5.394,5.394
				C245.802,87.965,248.215,85.552,248.215,82.57z"/>
		</g>
		<g>
			<path fill="#161616" d="M43.886,140.328l-3.817-3.814l3.814-3.814c2.11-2.108,2.11-5.521,0.003-7.628
				c-2.107-2.107-5.519-2.107-7.631,0l-3.814,3.814l-3.814-3.814c-2.105-2.107-5.521-2.112-7.628,0c-2.11,2.107-2.104,5.521,0,7.628
				l3.814,3.814l-3.814,3.814c-2.107,2.108-2.107,5.521,0,7.628c2.104,2.107,5.521,2.107,7.631,0l3.811-3.814l3.814,3.814
				c2.11,2.107,5.524,2.107,7.628,0C45.993,145.849,45.993,142.436,43.886,140.328z"/>
		</g>
		<g>
			<path fill="#161616" d="M54.018,104.148c0,2.977-2.413,5.394-5.394,5.394c-2.981,0-5.394-2.418-5.394-5.394
				s2.413-5.394,5.394-5.394C51.605,98.754,54.018,101.171,54.018,104.148z"/>
		</g>
		<g>
			<path fill="#161616" d="M269.793,109.542c0,2.977-2.413,5.394-5.394,5.394c-2.981,0-5.394-2.418-5.394-5.394
				s2.413-5.394,5.394-5.394C267.38,104.148,269.793,106.566,269.793,109.542z"/>
		</g>
		<g>
			<path fill="#161616" d="M64.807,163.486c0,2.977-2.413,5.394-5.394,5.394c-2.981,0-5.394-2.418-5.394-5.394
				s2.413-5.394,5.394-5.394C62.394,158.091,64.807,160.509,64.807,163.486z"/>
		</g>
	</g>
</g>
</svg>
