<?xml version="1.0" encoding="utf-8"?>
<!-- Generator: Adobe Illustrator 27.5.0, SVG Export Plug-In . SVG Version: 6.00 Build 0)  -->
<svg version="1.1" xmlns="http://www.w3.org/2000/svg" xmlns:xlink="http://www.w3.org/1999/xlink" x="0px" y="0px"
	 viewBox="0 0 500 500" style="enable-background:new 0 0 500 500;" xml:space="preserve">
<g id="BACKGROUND">
	<rect style="fill:#FFFFFF;" width="500" height="500"/>
</g>
<g id="OBJECT">
	<g>
		<g>
			<path style="fill:#E7FAF9;" d="M386.003,96.109c-9.175-0.058-18.056,1.159-26.477,3.486c-16.57,4.577-34.128-1.586-44.167-15.54
				c-19.95-27.731-52.71-45.627-89.62-45.019c-58.22,0.96-105.61,48.617-106.261,106.841c-0.004,0.357-0.006,0.713-0.007,1.068
				c-0.026,17.035-9.317,32.781-24.406,40.686c-2.451,1.284-4.851,2.65-7.208,4.08c17.286,2.315,35.345-0.259,52.425-4.529
				c22.788-5.698,44.875-14.301,68.044-18.166c23.169-3.864,48.407-2.466,68.011,10.473c4.69,3.096,8.9,6.746,12.815,10.736
				c38.124-4.565,76.576-5.991,114.678-1.768c26.365,2.922,52.609,8.678,77.572,17.665c0.505-3.74,0.803-7.547,0.869-11.41
				C483.189,141.078,439.642,96.451,386.003,96.109z"/>
			<path style="fill:#E7FAF9;" d="M232.856,276.516c-52.38-33.583-112.925-54.241-174.857-60.061
				c-21.15,23.499-34.017,54.6-33.966,88.717c0.11,73.271,60.555,132.953,133.822,132.172c23.608-0.252,45.733-6.683,64.835-17.754
				c21.477-12.446,47.036-16.25,71.146-10.345c8.064,1.975,16.483,3.045,25.145,3.095c13.528,0.079,26.528-2.372,38.543-6.908
				C326.575,353.673,283.635,309.072,232.856,276.516z"/>
			<path style="fill:#E7FAF9;" d="M341.505,247.967c-22.487-13.24-34.173-39.218-52.351-57.743
				c-3.915-3.989-8.125-7.64-12.815-10.736c-19.604-12.939-44.842-14.337-68.011-10.473c-23.169,3.864-45.257,12.468-68.044,18.166
				c-17.08,4.271-35.139,6.845-52.425,4.529c-11.137,6.756-21.191,15.112-29.859,24.743c61.932,5.82,122.477,26.479,174.857,60.061
				c50.779,32.556,93.719,77.157,124.667,128.915c39.616-14.957,68.497-52.61,70.119-97.19c0.012-0.337,0.023-0.673,0.032-1.009
				c0.258-9.486,3.062-18.597,7.969-26.471c-12.43-7.544-25.923-13.329-39.999-16.987
				C377.368,259.025,357.777,257.548,341.505,247.967z"/>
			<path style="fill:#E7FAF9;" d="M289.154,190.225c18.178,18.525,29.864,44.503,52.351,57.743
				c16.272,9.581,35.863,11.057,54.139,15.807c14.077,3.658,27.569,9.443,39.999,16.987c3.007-4.826,6.8-9.189,11.29-12.885
				c18.407-15.155,31.121-36.969,34.47-61.755c-24.963-8.987-51.207-14.743-77.572-17.665
				C365.729,184.234,327.278,185.66,289.154,190.225z"/>
		</g>
		<g>
			<g>
				<path style="fill:#638674;" d="M332.692,444.876c-1.921,0-3.478-1.557-3.478-3.478c0-1.921,1.557-3.478,3.478-3.478H439.84
					c1.921,0,3.478-1.557,3.478-3.478v0c0-1.921-1.557-3.478-3.478-3.478H60.16c-1.921,0-3.478,1.557-3.478,3.478v0
					c0,1.921,1.557,3.478,3.478,3.478h137.759c1.921,0,3.478,1.557,3.478,3.478c0,1.921-1.557,3.478-3.478,3.478H60.16H39.91
					c-1.921,0-3.478,1.557-3.478,3.478c0,1.921,1.557,3.478,3.478,3.478h20.25h114.259c1.921,0,3.478,1.557,3.478,3.478
					c0,1.921-1.557,3.478-3.478,3.478h-68.551c-1.921,0-3.478,1.557-3.478,3.478c0,1.921,1.557,3.478,3.478,3.478h288.264
					c1.921,0,3.478-1.557,3.478-3.478c0-1.921-1.557-3.478-3.478-3.478H288.351c-1.921,0-3.478-1.557-3.478-3.478
					c0-1.921,1.557-3.478,3.478-3.478h151.49h20.25c1.921,0,3.478-1.557,3.478-3.478c0-1.921-1.557-3.478-3.478-3.478h-20.25
					H332.692z"/>
			</g>
			<g>
				<g>
					<path style="fill:#F4D071;" d="M338.248,152.049L338.248,152.049c-4.636,3.55-7.524,8.92-7.93,14.745l-2.57,36.88
						l-5.625,24.875l5.564-1.012c4.358-0.793,8.853,0.191,12.482,2.731l1.829,1.28l7.031-31.25l-5.156-11.25L338.248,152.049z"/>
					<path style="fill:#ECA85E;" d="M319.623,229.004l8.064-1.466c4.358-0.793,8.853,0.191,12.482,2.731l3.054,2.137l-4.417,13.417
						l-3.054-2.138c-3.629-2.54-8.124-3.524-12.482-2.731l-8.064,1.466L319.623,229.004z"/>
					<polygon style="fill:#E58064;" points="315.206,242.421 317.749,244.675 318.432,241.834 					"/>
					<polygon style="fill:#E58064;" points="338.806,245.823 334.353,247.072 335.753,243.686 					"/>
					<polygon style="fill:#984058;" points="263.136,329.948 307.499,289.849 342.326,272.678 341.451,263.428 302.106,281.72 
						269.611,311.495 					"/>
					<path style="fill:#E78882;" d="M305.873,290.191v1.691c0,2.067,2.138,3.441,4.018,2.582l13.082-5.978
						c1.069-0.489,1.727-1.586,1.653-2.759l-0.205-3.28c-0.144-2.3-2.55-3.739-4.645-2.778l-10.14,4.653
						C307.343,285.375,305.873,287.667,305.873,290.191z"/>
					<g>
						<path style="fill:#472948;" d="M330.287,244.883c1.455,0.526,2.793,1.299,4.075,2.17l1.391-3.367
							c-3.629-2.54-8.124-3.524-12.482-2.732l-4.838,0.88l-0.69,2.871C321.947,243.973,326.305,243.443,330.287,244.883z"/>
						<path style="fill:#EBA58E;" d="M325.79,267.799l8.572-20.746c-1.282-0.871-2.62-1.644-4.075-2.17
							c-3.982-1.44-8.34-0.91-12.544-0.178l-5.952,24.761l-4.149,2.118c-2.452,1.251-4.258,3.483-4.971,6.142l-0.404,1.504
							c-0.774,2.885-0.179,5.965,1.613,8.354l3.411,4.548c1.995-3.671,2.317-8.022,0.883-11.946l-0.05-0.137l18.167-9.417
							L325.79,267.799z"/>
					</g>
				</g>
				<g>
					<polygon style="fill:#F4D071;" points="363.271,132.758 338.248,152.049 343.873,189.049 347.013,179.299 368.928,178.299 
						395.483,173.299 403.623,186.049 416.123,191.049 412.373,143.633 382.373,128.216 					"/>
					<path style="fill:#6CA8BC;" d="M347.013,179.299l-3.14,9.75l-3.083,5.917l6.224,27.583l-23.806,79.308
						c-1.381,4.602-2.064,9.386-2.025,14.19l0.191,23.502l-1.75,23.75l5.5,6.25h27.25l6.25-9l-2.75-48.5l22.5-60.5l-7.17,50.189
						c-1.048,7.337-1.059,14.785-0.031,22.125l5.451,38.935l7,8.75h29.25l5-10.25l-8.5-48.5l12.5-65.5l-5.75-56.25l-12.5-5
						l-8.14-12.75l-26.555,5L347.013,179.299z"/>
					<g>
						<path style="fill:#94C7D3;" d="M351.778,141.618l-1.747,12.678c-0.823,5.967-0.727,12.026,0.284,17.964l3.172,18.642
							c0.404,2.374-1.116,4.65-3.464,5.187l0,0c-2.498,0.571-4.974-1.038-5.467-3.553l-0.683-3.487l-2.427-15.965
							c-0.783-5.148-0.881-10.377-0.292-15.551l1.265-11.11c0.13-1.138,0.745-2.164,1.688-2.814l5.6-3.863
							c1.354-0.934,3.145-0.934,4.5-0.001l0,0L351.778,141.618z"/>
						<path style="fill:#F4D071;" d="M351.623,191.457c0,1.433-1.161,2.594-2.594,2.594c-1.432,0-2.594-1.161-2.594-2.594
							c0-1.432,1.161-2.594,2.594-2.594C350.462,188.863,351.623,190.024,351.623,191.457z"/>
					</g>
					<g>
						<path style="fill:#94C7D3;" d="M392.848,131.063c-1.086-0.511-2.379-0.033-2.871,1.061l0,0l-4.096,9.102
							c-4.113,9.141-6.002,19.127-5.51,29.139l0.822,16.74c0.143,2.917,2.699,5.12,5.605,4.831l0,0
							c2.704-0.268,4.725-2.608,4.597-5.322l-0.669-14.184c-0.504-10.69,1.705-21.335,6.421-30.942l2.227-4.535l3.32,1.706l0,0
							c-0.49-2.102-1.915-3.864-3.868-4.783L392.848,131.063z"/>
						<path style="fill:#F4D071;" d="M388.725,186.722c0,1.432-1.161,2.594-2.594,2.594s-2.594-1.161-2.594-2.594
							c0-1.433,1.161-2.594,2.594-2.594S388.725,185.29,388.725,186.722z"/>
					</g>
					<polygon style="fill:#94C7D3;" points="351.623,202.049 394.873,196.204 399.373,220.299 392.623,229.049 360.443,231.549 
						354.206,225.299 					"/>
					<g>
						<polygon style="fill:#454F6B;" points="415.79,417.633 409.623,371.549 383.623,371.549 389.456,417.299 365.456,430.966 
							416.759,430.966 						"/>
						<polygon style="fill:#472948;" points="365.456,430.966 365.456,435.966 417.123,435.966 416.759,430.966 						"/>
					</g>
					<g>
						<polygon style="fill:#472948;" points="301.206,427.004 301.206,432.004 352.873,432.004 352.509,427.004 						"/>
						<polygon style="fill:#454F6B;" points="351.54,413.671 350.496,369.549 325.123,369.549 325.206,413.338 301.206,427.004 
							352.509,427.004 						"/>
					</g>
					<polygon style="fill:#ECA85E;" points="365.373,142.049 362.998,145.299 360.443,170.674 357.866,146.424 					"/>
					<path style="fill:#468097;" d="M378.373,251.549l-22-4.949l9.203,7.489c3.247,2.643,5.024,6.687,4.773,10.866l-0.584,9.739
						L378.373,251.549z"/>
					<path style="fill:#468097;" d="M363.28,292.133l-5.074,8.361c-3.778,6.225-8.992,11.453-15.206,15.248l-12.376,7.558
						l15.124-1.375c2.945-0.268,5.679,1.549,6.573,4.368l2.477,7.812c0.216,0.681,0.314,1.393,0.291,2.106l-0.404,12.535
						c-0.145,4.482-2.219,8.683-5.69,11.523l-5.538,4.531l3.495-11l-6.42,7.185c-1.773,1.985-4.913,1.876-6.544-0.227l-5.53-7.126
						l1.5,11.167l-2.141-0.681c-3.268-1.04-5.853-3.561-6.973-6.802l-0.642-1.856l-0.578,7.84l5.5,6.25h27.25l6.25-9l-2.75-48.5
						L363.28,292.133z"/>
					<path style="fill:#468097;" d="M373.623,311.133l7.735,15.326c0.814,1.613,2.199,2.866,3.886,3.515l8.212,3.159l-6.771,0.673
						c-4.72,0.469-9.028-2.712-9.968-7.362L373.623,311.133z"/>
					<path style="fill:#468097;" d="M418.463,265.166l-11.349,42.134l-6.709,10.292c-2.046,3.138-5.912,4.556-9.501,3.485
						l-4.281-1.277l5.052,3.913c3.729,2.889,9.101,2.168,11.937-1.603l0,0c1.377-1.831,4.28-1.077,4.593,1.192l3.607,26.185
						c0.735,5.336-0.609,10.751-3.755,15.124l-1.934,2.688l1.232-9.833l-3.93,5.223c-1.754,2.332-5.24,2.375-7.052,0.088
						l-6.584-8.311l2,12.833l-5.099-2.04c-3.734-1.493-6.922-4.093-9.136-7.449l-2.069-3.135l1.137,8.124l7,8.75h29.25l5-10.25
						l-8.5-48.5L418.463,265.166z"/>
					<path style="fill:#ECA85E;" d="M403.623,186.049l-1.249-8.215c-0.605-3.982-0.394-8.045,0.621-11.942l2.628-10.093v12.949
						c0,3.016,0.46,6.015,1.363,8.893l3.503,11.155L403.623,186.049z"/>
				</g>
				<g>
					<g>
						<g>
							<path style="fill:#472948;" d="M372.589,122.401c2.463-1.645,4.428-3.989,5.708-6.658l-0.174-0.86l-18.35,2.417l1.751,7.741
								C365.371,125.462,369.367,124.552,372.589,122.401z"/>
							<path style="fill:#EBA58E;" d="M372.589,122.401c-3.222,2.151-7.218,3.061-11.064,2.64l3.848,17.009l3.555-4.375v-4.625
								l10.695-10.75l-1.326-6.557C377.017,118.412,375.052,120.756,372.589,122.401z"/>
						</g>
						<polygon style="fill:#F5D896;" points="368.928,133.049 378.566,143.216 385.373,127.466 379.623,122.299 						"/>
						<polygon style="fill:#F5D896;" points="362.09,127.541 355.513,132.758 365.373,142.049 						"/>
						<polygon style="fill:#ECA85E;" points="355.513,132.758 354.206,143.633 361.525,138.423 						"/>
					</g>
					<g>
						<g>
							<circle style="fill:#E78882;" cx="347.013" cy="99.049" r="8.5"/>
							<circle style="fill:#DE7274;" cx="347.013" cy="99.049" r="4.61"/>
						</g>
						<path style="fill:#8C404C;" d="M422.491,97.499c-13.382-0.31-47.015-1.593-68.93-8.356
							c-24.21-7.471-36.157-20.475-36.157-20.475l62.173,3.845l28.583,12.493L422.491,97.499z"/>
						<g>
							<path style="fill:#EBA58E;" d="M363.388,120.44L363.388,120.44c-11.867-1.862-19.977-12.992-18.115-24.859l3.412-21.737
								c1.863-11.867,12.992-19.977,24.859-18.115h0c11.867,1.862,19.977,12.992,18.115,24.859l-3.412,21.737
								C386.385,114.192,375.255,122.302,363.388,120.44z"/>
							<path style="fill:#8E5A61;" d="M379.168,72.644c-0.758,6.004-1.007,12.177,0.497,18.039
								c1.504,5.862,4.949,11.424,10.198,14.435l5.01-28.068L379.168,72.644z"/>
						</g>
						<g>
							<path style="fill:#E78882;" d="M372.967,91.818c2.395,0.022,4.787,0.185,7.165,0.464c-0.17-0.53-0.33-1.063-0.467-1.599
								c-1.504-5.862-1.255-12.035-0.497-18.039l12.734,3.572c-0.455-10.117-7.965-18.857-18.358-20.488l0,0
								c-11.867-1.863-22.997,6.248-24.859,18.115l-2.732,17.407c3.509,0.872,7.188,1.151,10.817,1.138
								C362.173,92.368,367.564,91.767,372.967,91.818z"/>
							<path style="fill:#6A3649;" d="M391.902,76.216l-12.734-3.572c-0.758,6.004-1.007,12.177,0.497,18.039
								c0.138,0.537,0.297,1.069,0.467,1.599c3.174,0.372,6.322,0.962,9.412,1.779c0.731,0.194,1.455,0.414,2.18,0.632l3.149-17.644
								L391.902,76.216z"/>
						</g>
						<g>
							<path style="fill:#BD6C67;" d="M378.053,53.987c6.974,1.563,13.577,4.725,19.201,9.134l1.323-11.024
								c-6.25-7-18.125-13.5-37.625-9.375l-6.003,11.791C362.458,52.486,370.461,52.285,378.053,53.987z"/>
							<path style="fill:#A64F5A;" d="M378.053,53.987c-7.592-1.701-15.594-1.501-23.104,0.525l-4.497,8.834l45.5,10.625
								l1.302-10.851C391.629,58.712,385.027,55.549,378.053,53.987z"/>
						</g>
						<g>
							<circle style="fill:#EBA58E;" cx="390.873" cy="106.383" r="8.5"/>
							<circle style="fill:#E78882;" cx="390.873" cy="106.383" r="4.61"/>
						</g>
						<g>
							<circle style="fill:#472948;" cx="355.451" cy="87.253" r="1.891"/>
							<path style="fill:#472948;" d="M372.247,88.659c0,1.044-0.846,1.891-1.891,1.891c-1.044,0-1.891-0.846-1.891-1.891
								c0-1.044,0.846-1.891,1.891-1.891C371.401,86.768,372.247,87.615,372.247,88.659z"/>
							<g>
								<path style="fill:#472948;" d="M354.474,79.184c-2.2,0.159-4.011,1.467-4.885,3.227c3.358-0.588,6.777-0.836,10.184-0.739
									C358.654,80.057,356.674,79.023,354.474,79.184z"/>
							</g>
							<g>
								<path style="fill:#472948;" d="M372.491,80.541c2.156,0.465,3.766,2.014,4.385,3.879c-3.243-1.052-6.593-1.775-9.981-2.156
									C368.23,80.82,370.335,80.074,372.491,80.541z"/>
							</g>
							<path style="fill:#E78882;" d="M362.09,97.988c-2.333-0.089-4.666-0.178-6.999-0.267c0.331,0.967,0.914,1.925,1.709,2.568
								c0.377,0.306,0.827,0.57,1.312,0.559c0.377-0.009,0.729-0.182,1.057-0.37C360.209,99.882,361.264,98.857,362.09,97.988z"/>
							<path style="fill:#FFFFFF;" d="M370.797,102.945c-5.171,1.682-10.555,2.707-15.982,3.044
								c1.969,2.535,5.598,3.959,8.761,3.412C366.738,108.853,369.794,105.994,370.797,102.945z"/>
						</g>
						<path style="fill:#BD6C67;" d="M422.491,97.499c-14.567-11.098-32.665-17.488-50.971-17.996
							c-9.531-0.264-19.082,1.017-28.589,0.29c-9.507-0.727-19.389-3.829-25.527-11.125l44.219-8.993
							c10.582-2.152,21.561,0.613,29.867,7.514C402.493,76.33,417.068,89.21,422.491,97.499z"/>
					</g>
				</g>
				<g>
					<g>
						<path style="fill:#F4D071;" d="M412.373,143.633L412.373,143.633c6.117,3.81,10.614,9.743,12.629,16.662l17.069,58.629
							c1.79,6.149,0.995,12.762-2.203,18.311l-3.495,6.064l-1.155-1.229c-4.218-4.49-10.067-7.09-16.226-7.213l-2.87-0.057
							l5.75-9.75l-14.887-47.408c-0.904-2.878-1.363-5.876-1.363-8.893v-12.949L412.373,143.633z"/>
						<path style="fill:#ECA85E;" d="M438.012,245.044l-2.794-2.974c-4.218-4.49-10.067-7.09-16.226-7.213l-4.746-0.095
							l-7.132,11.771l4.746,0.095c6.159,0.123,12.008,2.723,16.225,7.213l2.794,2.974L438.012,245.044z"/>
						<polygon style="fill:#E58064;" points="407.115,246.533 409.118,249.213 410.497,246.601 						"/>
						<polygon style="fill:#E58064;" points="430.88,256.815 428.086,253.841 425.654,256.165 						"/>
						<path style="fill:#ECA85E;" d="M421.873,225.049l15.125-0.75l-2.704-1.922C430.172,219.447,424.425,220.684,421.873,225.049
							L421.873,225.049z"/>
						<g>
							<path style="fill:#EBA58E;" d="M419.692,250.62c-2.819-2.056-6.363-3.289-9.804-2.867l-10.516,19.921l-6.725,2.339
								c-2.928,1.018-5.033,3.599-5.443,6.672l-0.582,4.364l3.295-1.346c2.779-1.135,5.865,0.733,6.148,3.722l0,0
								c0.183,1.936-0.905,3.769-2.693,4.535l-4.875,2.089l1.47,2.737c1.161,2.161,3.92,2.87,5.979,1.536l10.862-7.037
								c1.934-1.253,3.185-3.327,3.39-5.623l1.05-11.738l14.066-13.435C423.705,254.28,421.893,252.225,419.692,250.62z"/>
							<path style="fill:#472948;" d="M428.086,253.841c-4.218-4.49-10.067-7.09-16.225-7.213l-1.364-0.027l-0.608,1.152
								c3.441-0.422,6.985,0.811,9.804,2.867c2.2,1.605,4.013,3.659,5.622,5.869L428.086,253.841L428.086,253.841z"/>
						</g>
					</g>
					<path style="fill:#984058;" d="M315.999,342.206l44.363-40.099l33.011-14.148c1.788-0.766,2.876-2.599,2.693-4.535l0,0
						c-0.283-2.988-3.369-4.857-6.148-3.722l-31.803,12.99c-2.081,0.85-3.994,2.062-5.652,3.581l-29.989,27.479L315.999,342.206z"/>
				</g>
				<g>
					<g>
						<path style="fill:#7DB994;" d="M172.778,230.063c0.721-0.858,1.514-1.693,2.521-2.184c1.007-0.491,2.274-0.581,3.214,0.028
							c1.425,0.923,1.55,3.012,0.987,4.614c-0.729,2.073-2.287,3.747-3.961,5.172c-1.673,1.424-3.506,2.669-5.044,4.238
							c-2.304,2.351-3.879,5.406-4.457,8.646c-0.176,0.986-1.7,3.667-2.27,1.518c-0.385-1.451,0.497-3.563,0.862-4.934
							c1.059-3.973,2.423-7.892,4.384-11.516C170.084,233.669,171.331,231.785,172.778,230.063z"/>
						<path style="fill:#7DB994;" d="M160.723,229.993c-0.589-1.093-1.306-2.188-2.398-2.779c-1.091-0.591-2.645-0.495-3.368,0.514
							c-0.697,0.972-0.39,2.321,0.042,3.436c1.195,3.085,3.113,5.827,4.693,8.735c1.579,2.907,2.851,6.143,2.566,9.439
							c-0.128,1.489,1.035,2.688,1.554,0.757c0.409-1.522,0.319-3.394,0.331-4.96c0.025-3.351-0.357-6.72-1.301-9.941
							C162.315,233.393,161.613,231.644,160.723,229.993z"/>
						<path style="fill:#CACE87;" d="M163.763,239.455c-0.208-4.356-0.868-8.704-0.627-13.058c0.05-0.907,0.145-1.832,0.521-2.659
							c0.376-0.827,1.083-1.551,1.973-1.731c1.124-0.228,2.282,0.473,2.895,1.442c0.613,0.969,0.781,2.151,0.836,3.296
							c0.151,3.163-0.449,6.309-1.101,9.408c-0.937,4.456-1.988,8.887-3.151,13.289c-0.208,0.788-0.699,2.974-1.883,2.712
							c-1.449-0.32-0.516-2.298-0.294-3.083C163.815,245.956,163.917,242.67,163.763,239.455z"/>
						<path style="fill:#F0BF93;" d="M160.515,254.552c-2.596-0.447-5.295-0.282-7.822,0.459c-0.196,0.466-0.365,0.948-0.486,1.456
							c-0.108,0.456-0.255,1.225-0.428,2.243c2.671-1.534,5.656-2.543,8.698-2.874C161.222,255.755,161.254,254.68,160.515,254.552z
							"/>
						<path style="fill:#F0BF93;" d="M163.679,260.242c-0.701-0.109-1.056,0.789-0.465,1.182c2.058,1.366,3.857,3.09,5.292,5.086
							c0.436-1.312,0.807-2.468,1.1-3.416C167.967,261.593,165.875,260.583,163.679,260.242z"/>
						<path style="fill:#F0BF93;" d="M155.541,262.19c-1.422-0.218-2.873-0.237-4.3-0.06c-0.134,0.906-0.274,1.887-0.418,2.934
							c1.469-0.782,3.066-1.327,4.709-1.593C156.262,263.353,156.272,262.302,155.541,262.19z"/>
						<path style="fill:#F0BF93;" d="M158.123,267.146c-0.712-0.096-1.036,0.872-0.403,1.211c2.988,1.599,5.7,3.708,7.987,6.203
							c0.46-1.272,0.897-2.504,1.306-3.676C164.444,268.893,161.343,267.579,158.123,267.146z"/>
						<path style="fill:#E36F73;" d="M157.72,268.358c-0.633-0.339-0.309-1.307,0.403-1.211c3.22,0.432,6.321,1.747,8.891,3.738
							c0.553-1.585,1.055-3.058,1.492-4.375c-1.435-1.996-3.234-3.72-5.292-5.086c-0.591-0.392-0.236-1.291,0.465-1.182
							c2.196,0.342,4.288,1.351,5.927,2.851c0.326-1.055,0.555-1.857,0.669-2.333c1.185-4.989-1.898-9.995-6.888-11.18
							c-4.482-1.065-8.967,1.321-10.694,5.432c2.527-0.741,5.226-0.906,7.822-0.459c0.739,0.127,0.707,1.202-0.038,1.284
							c-3.041,0.331-6.027,1.34-8.698,2.874c-0.16,0.941-0.342,2.097-0.538,3.42c1.427-0.177,2.878-0.159,4.3,0.06
							c0.731,0.112,0.722,1.163-0.009,1.281c-1.643,0.266-3.24,0.811-4.709,1.593c-0.307,2.234-0.628,4.757-0.936,7.42
							c2.336-0.57,4.857-0.379,7.082,0.536c0.657,0.27,0.464,1.239-0.247,1.248c-2.522,0.033-5.037,0.713-7.246,1.936
							c-0.466,4.446-0.863,9.083-1.071,13.303c1.611,0.146,3.202,0.517,4.708,1.107c0.689,0.27,0.485,1.276-0.255,1.255
							c-1.544-0.044-3.094,0.174-4.569,0.63c-0.187,6.816,0.267,11.967,1.963,12.37c2.44,0.58,6.998-8.764,11.158-19.046
							c-1.294-1.022-2.722-1.875-4.244-2.508c-0.682-0.283-0.413-1.323,0.321-1.239c1.691,0.194,3.346,0.662,4.865,1.387
							c1.189-3.02,2.328-6.06,3.355-8.901C163.42,272.065,160.708,269.957,157.72,268.358z"/>
						<path style="fill:#F0BF93;" d="M157.487,282.075c-0.733-0.084-1.002,0.955-0.321,1.239c1.522,0.633,2.95,1.486,4.244,2.508
							c0.317-0.783,0.631-1.571,0.942-2.36C160.833,282.737,159.178,282.269,157.487,282.075z"/>
						<path style="fill:#F0BF93;" d="M156.968,273.02c-2.225-0.915-4.746-1.105-7.082-0.536c-0.141,1.215-0.278,2.46-0.41,3.72
							c2.209-1.222,4.723-1.902,7.246-1.936C157.432,274.259,157.625,273.29,156.968,273.02z"/>
						<path style="fill:#F0BF93;" d="M153.113,290.613c-1.506-0.59-3.097-0.961-4.708-1.107c-0.051,1.025-0.09,2.024-0.116,2.991
							c1.476-0.455,3.026-0.674,4.569-0.63C153.598,291.889,153.802,290.883,153.113,290.613z"/>
					</g>
					<g>
						<path style="fill:#7DB994;" d="M94.938,245.921c-0.353-1.132-0.645-2.316-0.507-3.494c0.137-1.178,0.78-2.358,1.86-2.848
							c1.636-0.743,3.57,0.337,4.676,1.754c1.432,1.833,2.034,4.178,2.349,6.482c0.314,2.304,0.377,4.648,0.899,6.914
							c0.781,3.395,2.605,6.543,5.162,8.908c0.779,0.72,2.298,3.608,0.057,2.89c-1.513-0.485-2.892-2.476-3.906-3.585
							c-2.936-3.212-5.651-6.664-7.762-10.48C96.614,250.379,95.647,248.193,94.938,245.921z"/>
						<path style="fill:#7DB994;" d="M87.995,256.624c-1.31-0.099-2.695-0.085-3.846,0.551c-1.15,0.635-1.951,2.074-1.465,3.295
							c0.468,1.176,1.846,1.672,3.087,1.924c3.432,0.695,6.971,0.551,10.464,0.803c3.493,0.252,7.102,0.966,9.878,3.1
							c1.254,0.965,2.987,0.612,1.561-0.953c-1.123-1.234-2.843-2.221-4.232-3.126c-2.972-1.935-6.194-3.518-9.603-4.515
							C91.934,257.146,89.975,256.773,87.995,256.624z"/>
						<path style="fill:#CACE87;" d="M98.164,259.316c-4.001-2.301-8.253-4.195-11.996-6.895c-0.78-0.563-1.55-1.174-2.073-1.982
							c-0.522-0.807-0.764-1.85-0.417-2.747c0.438-1.132,1.724-1.764,2.937-1.757c1.214,0.006,2.363,0.531,3.415,1.137
							c2.905,1.671,5.368,4.001,7.757,6.351c3.436,3.378,6.786,6.844,10.045,10.394c0.584,0.636,2.252,2.32,1.343,3.226
							c-1.112,1.109-2.343-0.852-2.916-1.498C103.988,262.981,101.117,261.014,98.164,259.316z"/>
						<path style="fill:#F0BF93;" d="M109.765,270.829c-1.881,2.058-3.273,4.558-4.056,7.233c0.303,0.44,0.636,0.867,1.02,1.264
							c0.344,0.357,0.947,0.927,1.755,1.662c0.158-3.256,0.962-6.493,2.403-9.392C111.241,270.885,110.301,270.243,109.765,270.829z
							"/>
						<path style="fill:#F0BF93;" d="M116.642,271.256c-0.497,0.563,0.101,1.392,0.787,1.089c2.392-1.054,4.956-1.674,7.554-1.814
							c-0.921-1.137-1.739-2.129-2.417-2.931C120.294,268.205,118.2,269.494,116.642,271.256z"/>
						<path style="fill:#F0BF93;" d="M113.733,279.621c-1.006,1.143-1.851,2.426-2.508,3.799c0.731,0.636,1.525,1.322,2.377,2.048
							c0.142-1.756,0.567-3.49,1.268-5.107C115.182,279.642,114.251,279.034,113.733,279.621z"/>
						<path style="fill:#F0BF93;" d="M119.625,280.149c-0.492,0.58,0.186,1.422,0.849,1.051c3.131-1.75,6.559-2.964,10.088-3.578
							c-0.871-1.136-1.72-2.229-2.531-3.263C124.79,275.512,121.848,277.526,119.625,280.149z"/>
						<path style="fill:#E36F73;" d="M120.475,281.199c-0.664,0.371-1.341-0.47-0.849-1.051c2.223-2.623,5.165-4.637,8.406-5.791
							c-1.097-1.398-2.124-2.686-3.048-3.827c-2.598,0.14-5.162,0.759-7.554,1.814c-0.687,0.303-1.285-0.527-0.787-1.089
							c1.558-1.762,3.652-3.051,5.924-3.655c-0.754-0.893-1.338-1.555-1.698-1.928c-3.771-3.904-9.992-4.013-13.897-0.243
							c-3.507,3.387-3.941,8.746-1.263,12.632c0.782-2.675,2.175-5.175,4.056-7.233c0.535-0.586,1.475,0.056,1.122,0.767
							c-1.441,2.9-2.245,6.136-2.403,9.392c0.747,0.68,1.674,1.502,2.741,2.432c0.657-1.373,1.502-2.656,2.508-3.799
							c0.518-0.588,1.449,0.021,1.137,0.739c-0.701,1.617-1.126,3.351-1.268,5.107c1.816,1.549,3.881,3.275,6.079,5.07
							c0.826-2.408,2.434-4.545,4.52-6.006c0.616-0.431,1.369,0.294,0.972,0.932c-1.41,2.267-2.239,4.896-2.411,7.563
							c3.697,2.953,7.603,5.954,11.245,8.548c1.049-1.353,2.288-2.559,3.674-3.565c0.633-0.46,1.414,0.296,0.973,0.943
							c-0.921,1.351-1.61,2.857-2.047,4.432c5.969,4.057,10.818,6.593,12.146,5.311c1.909-1.844-3.816-11.24-10.606-20.817
							c-1.65,0.57-3.225,1.356-4.658,2.351c-0.642,0.446-1.415-0.387-0.921-0.993c1.138-1.396,2.5-2.604,4.013-3.545
							c-2.013-2.784-4.072-5.534-6.019-8.071C127.033,278.236,123.606,279.449,120.475,281.199z"/>
						<path style="fill:#F0BF93;" d="M132.568,289.237c-0.494,0.606,0.279,1.439,0.921,0.993c1.433-0.995,3.008-1.781,4.658-2.351
							c-0.517-0.729-1.04-1.459-1.566-2.187C135.067,286.633,133.706,287.841,132.568,289.237z"/>
						<path style="fill:#F0BF93;" d="M124.201,284.531c-2.086,1.461-3.694,3.599-4.52,6.006c1.003,0.819,2.034,1.652,3.081,2.489
							c0.171-2.667,1.001-5.296,2.411-7.563C125.57,284.825,124.817,284.1,124.201,284.531z"/>
						<path style="fill:#F0BF93;" d="M137.682,298.009c-1.386,1.006-2.625,2.212-3.674,3.565c0.885,0.63,1.753,1.235,2.599,1.81
							c0.437-1.575,1.126-3.081,2.047-4.432C139.095,298.305,138.315,297.549,137.682,298.009z"/>
					</g>
					<g>
						<path style="fill:#7DB994;" d="M73.141,274.24c-0.793-0.881-1.552-1.836-1.92-2.963c-0.367-1.128-0.275-2.468,0.501-3.365
							c1.177-1.358,3.385-1.183,4.981-0.358c2.066,1.068,3.592,2.947,4.84,4.91c1.247,1.963,2.283,4.066,3.702,5.908
							c2.126,2.76,5.098,4.859,8.409,5.941c1.008,0.329,3.595,2.32,1.258,2.602c-1.577,0.191-3.661-1.043-5.046-1.628
							c-4.009-1.693-7.916-3.697-11.428-6.284C76.525,277.592,74.733,276.009,73.141,274.24z"/>
						<path style="fill:#7DB994;" d="M71.299,286.865c-1.232,0.457-2.485,1.048-3.265,2.105s-0.907,2.699,0.044,3.606
							c0.916,0.873,2.375,0.749,3.608,0.46c3.409-0.801,6.565-2.409,9.844-3.638c3.279-1.229,6.857-2.087,10.271-1.306
							c1.542,0.353,2.97-0.69,1.021-1.518c-1.536-0.652-3.51-0.832-5.151-1.074c-3.509-0.518-7.096-0.612-10.611-0.095
							C75.096,285.695,73.16,286.174,71.299,286.865z"/>
						<path style="fill:#CACE87;" d="M81.663,285.067c-4.596-0.421-9.251-0.367-13.779-1.258c-0.944-0.186-1.899-0.42-2.711-0.936
							c-0.812-0.516-1.467-1.362-1.525-2.322c-0.074-1.211,0.83-2.322,1.936-2.823c1.105-0.501,2.369-0.503,3.578-0.393
							c3.337,0.306,6.548,1.396,9.7,2.534c4.533,1.636,9.023,3.387,13.467,5.252c0.796,0.334,3.014,1.169,2.567,2.371
							c-0.548,1.472-2.485,0.204-3.275-0.144C88.485,285.966,85.055,285.377,81.663,285.067z"/>
						<path style="fill:#F0BF93;" d="M97.011,290.686c-0.85,2.656-1.072,5.508-0.666,8.266c0.459,0.273,0.94,0.522,1.454,0.723
							c0.462,0.18,1.247,0.447,2.288,0.778c-1.216-3.025-1.835-6.302-1.736-9.538C98.375,290.121,97.253,289.93,97.011,290.686z"/>
						<path style="fill:#F0BF93;" d="M103.439,288.204c-0.217,0.719,0.672,1.223,1.17,0.661c1.734-1.956,3.805-3.59,6.107-4.801
							c-1.312-0.649-2.469-1.208-3.42-1.654C105.484,283.908,104.119,285.953,103.439,288.204z"/>
						<path style="fill:#F0BF93;" d="M104.287,297.02c-0.437,1.458-0.67,2.977-0.693,4.499c0.93,0.273,1.938,0.564,3.015,0.869
							c-0.604-1.655-0.941-3.409-0.979-5.17C105.612,296.434,104.512,296.27,104.287,297.02z"/>
						<path style="fill:#F0BF93;" d="M109.861,295.04c-0.205,0.732,0.762,1.214,1.21,0.6c2.115-2.898,4.723-5.431,7.673-7.462
							c-1.266-0.668-2.493-1.308-3.661-1.909C112.62,288.671,110.787,291.728,109.861,295.04z"/>
						<path style="fill:#E9967C;" d="M111.072,295.641c-0.448,0.614-1.415,0.132-1.21-0.6c0.925-3.312,2.758-6.37,5.222-8.771
							c-1.58-0.813-3.051-1.554-4.367-2.206c-2.302,1.211-4.374,2.845-6.107,4.801c-0.498,0.562-1.387,0.058-1.17-0.661
							c0.68-2.251,2.046-4.297,3.858-5.795c-1.058-0.496-1.865-0.855-2.348-1.043c-5.056-1.974-10.755,0.524-12.729,5.58
							c-1.773,4.542,0.069,9.593,4.125,12.007c-0.406-2.758-0.183-5.611,0.666-8.266c0.242-0.756,1.364-0.565,1.34,0.228
							c-0.099,3.236,0.521,6.513,1.736,9.538c0.963,0.306,2.148,0.666,3.506,1.066c0.024-1.522,0.256-3.04,0.693-4.499
							c0.225-0.75,1.325-0.586,1.342,0.197c0.038,1.762,0.375,3.515,0.979,5.17c2.297,0.649,4.894,1.356,7.64,2.07
							c-0.254-2.533,0.315-5.147,1.6-7.345c0.379-0.649,1.367-0.304,1.272,0.442c-0.335,2.649,0.009,5.384,0.966,7.879
							c4.592,1.141,9.394,2.237,13.787,3.074c0.389-1.667,1.011-3.28,1.851-4.773c0.384-0.682,1.408-0.321,1.277,0.451
							c-0.273,1.612-0.271,3.268-0.01,4.882c7.117,1.195,12.583,1.476,13.254-0.243c0.966-2.473-8.159-8.621-18.327-14.49
							c-1.261,1.206-2.365,2.579-3.252,4.081c-0.397,0.673-1.447,0.238-1.251-0.518c0.451-1.744,1.185-3.41,2.167-4.896
							c-2.991-1.689-6.01-3.329-8.838-4.822C115.794,290.21,113.186,292.743,111.072,295.641z"/>
						<path style="fill:#F0BF93;" d="M125.416,297.897c-0.196,0.756,0.854,1.191,1.251,0.518c0.887-1.502,1.99-2.875,3.252-4.081
							c-0.774-0.447-1.554-0.892-2.336-1.333C126.6,294.487,125.867,296.153,125.416,297.897z"/>
						<path style="fill:#F0BF93;" d="M115.849,297.112c-1.285,2.198-1.855,4.812-1.6,7.345c1.253,0.326,2.537,0.652,3.839,0.976
							c-0.957-2.495-1.301-5.23-0.966-7.879C117.215,296.808,116.228,296.464,115.849,297.112z"/>
						<path style="fill:#F0BF93;" d="M133.724,303.734c-0.839,1.493-1.462,3.106-1.851,4.773c1.067,0.203,2.108,0.391,3.118,0.56
							c-0.26-1.614-0.262-3.27,0.01-4.882C135.132,303.413,134.108,303.052,133.724,303.734z"/>
					</g>
					<g>
						<path style="fill:#7DB994;" d="M129.033,237.188c0.153-1.11,0.379-2.24,0.97-3.192s1.615-1.703,2.735-1.689
							c1.698,0.022,2.917,1.723,3.294,3.378c0.488,2.142,0.061,4.39-0.596,6.487c-0.657,2.097-1.545,4.126-2.01,6.274
							c-0.697,3.217-0.401,6.642,0.835,9.692c0.377,0.929,0.516,4.009-1.112,2.494c-1.099-1.023-1.478-3.279-1.9-4.635
							c-1.221-3.926-2.155-7.969-2.427-12.081C128.675,241.673,128.726,239.415,129.033,237.188z"/>
						<path style="fill:#7DB994;" d="M118.795,243.551c-1.081-0.611-2.271-1.155-3.51-1.074c-1.239,0.081-2.502,0.99-2.576,2.229
							c-0.072,1.194,0.907,2.172,1.867,2.885c2.656,1.973,5.74,3.272,8.626,4.89c2.886,1.618,5.686,3.679,7.201,6.62
							c0.685,1.328,2.308,1.724,1.718-0.188c-0.465-1.506-1.539-3.042-2.363-4.374c-1.764-2.849-3.883-5.497-6.398-7.719
							C121.954,245.58,120.428,244.474,118.795,243.551z"/>
						<path style="fill:#CACE87;" d="M126.409,249.938c-2.497-3.575-5.372-6.903-7.488-10.715c-0.441-0.794-0.854-1.627-0.976-2.528
							c-0.122-0.9,0.09-1.889,0.747-2.517c0.83-0.792,2.183-0.816,3.218-0.323c1.035,0.493,1.807,1.404,2.464,2.344
							c1.813,2.596,2.982,5.578,4.082,8.548c1.581,4.27,3.053,8.579,4.415,12.924c0.244,0.778,0.993,2.889-0.148,3.298
							c-1.397,0.502-1.661-1.67-1.892-2.452C129.917,255.413,128.252,252.577,126.409,249.938z"/>
						<path style="fill:#F0BF93;" d="M131.705,264.445c-2.435,1.005-4.631,2.583-6.374,4.556c0.082,0.498,0.196,0.997,0.364,1.491
							c0.151,0.443,0.437,1.173,0.833,2.126c1.443-2.721,3.432-5.166,5.828-7.066C132.944,265.085,132.398,264.159,131.705,264.445z
							"/>
						<path style="fill:#F0BF93;" d="M137.414,267.573c-0.651,0.281-0.473,1.231,0.236,1.248c2.469,0.059,4.911,0.559,7.188,1.484
							c-0.331-1.342-0.632-2.519-0.889-3.477C141.763,266.431,139.454,266.692,137.414,267.573z"/>
						<path style="fill:#F0BF93;" d="M131.565,273.558c-1.319,0.573-2.557,1.331-3.671,2.241c0.369,0.838,0.773,1.743,1.21,2.706
							c0.827-1.445,1.887-2.757,3.136-3.858C132.796,274.158,132.244,273.263,131.565,273.558z"/>
						<path style="fill:#F0BF93;" d="M136.392,276.376c-0.654,0.299-0.412,1.29,0.304,1.24c3.381-0.239,6.799,0.1,10.064,0.993
							c-0.289-1.321-0.575-2.597-0.853-3.807C142.672,274.486,139.347,275.026,136.392,276.376z"/>
						<path style="fill:#E9967C;" d="M136.696,277.616c-0.717,0.051-0.958-0.941-0.304-1.24c2.955-1.35,6.28-1.89,9.515-1.574
							c-0.376-1.636-0.737-3.15-1.069-4.497c-2.277-0.924-4.719-1.424-7.188-1.484c-0.709-0.017-0.887-0.967-0.236-1.248
							c2.04-0.881,4.349-1.142,6.535-0.746c-0.286-1.066-0.519-1.867-0.677-2.331c-1.656-4.854-6.932-7.446-11.786-5.791
							c-4.36,1.487-6.884,5.896-6.155,10.295c1.744-1.974,3.939-3.552,6.374-4.556c0.693-0.286,1.239,0.641,0.651,1.107
							c-2.397,1.901-4.385,4.345-5.828,7.066c0.366,0.881,0.828,1.957,1.367,3.181c1.113-0.91,2.351-1.668,3.671-2.241
							c0.679-0.295,1.231,0.6,0.676,1.089c-1.249,1.101-2.309,2.413-3.136,3.858c0.931,2.054,2.003,4.36,3.162,6.778
							c1.674-1.727,3.908-2.909,6.278-3.32c0.7-0.121,1.053,0.802,0.457,1.188c-2.117,1.372-3.882,3.287-5.1,5.499
							c1.975,4.011,4.11,8.146,6.182,11.827c1.441-0.735,2.985-1.269,4.574-1.572c0.727-0.139,1.09,0.821,0.453,1.197
							c-1.33,0.785-2.525,1.796-3.531,2.968c3.474,5.867,6.602,9.984,8.253,9.421c2.374-0.81,1.252-11.145-0.707-22.063
							c-1.639-0.176-3.303-0.136-4.928,0.139c-0.728,0.123-1.054-0.9-0.389-1.219c1.534-0.737,3.184-1.223,4.856-1.419
							c-0.603-3.189-1.259-6.368-1.904-9.32C143.496,277.716,140.077,277.377,136.696,277.616z"/>
						<path style="fill:#F0BF93;" d="M143.809,289.348c-0.665,0.32-0.339,1.342,0.389,1.219c1.625-0.275,3.288-0.315,4.928-0.139
							c-0.149-0.831-0.303-1.665-0.461-2.499C146.992,288.125,145.343,288.611,143.809,289.348z"/>
						<path style="fill:#F0BF93;" d="M138.545,281.962c-2.37,0.411-4.605,1.593-6.278,3.32c0.529,1.103,1.075,2.23,1.635,3.366
							c1.218-2.212,2.983-4.127,5.1-5.499C139.597,282.764,139.245,281.841,138.545,281.962z"/>
						<path style="fill:#F0BF93;" d="M144.658,298.904c-1.589,0.304-3.133,0.837-4.574,1.572c0.503,0.894,1.003,1.761,1.495,2.593
							c1.006-1.172,2.201-2.182,3.531-2.968C145.747,299.725,145.384,298.765,144.658,298.904z"/>
					</g>
					<g>
						<path style="fill:#454F6B;" d="M226.223,235.404c-0.373-1.23-0.833-2.434-1.375-3.601c-1.819,0.235-3.611,0.669-5.332,1.304
							c0.702,1.057,1.312,2.176,1.823,3.337c0.717-0.187,1.441-0.363,2.174-0.523C224.418,235.723,225.321,235.556,226.223,235.404z
							"/>
						<path style="fill:#638674;" d="M208.95,217.225c-1.237-0.419-2.895,1.359-3.515,2.509c-0.62,1.15-0.673,2.588-0.139,3.78
							c4.514,0.829,8.797,3.38,11.947,6.717c0.84,0.89,1.595,1.856,2.272,2.876c1.721-0.635,3.513-1.068,5.332-1.304
							C221.739,225.104,215.964,219.6,208.95,217.225z"/>
						<path style="fill:#5A3B7B;" d="M274.371,257.998c-4.421-1.098-10.168-1.671-16.389-1.51c1.316,2.86,2.364,5.937,3.078,9.195
							c4.383,20.018-5.322,39.148-21.677,42.728c24.455-5.354,40.726-25.922,36.343-45.94
							C275.389,260.929,274.927,259.44,274.371,257.998z"/>
						<path style="fill:#E36F73;" d="M257.983,256.488c6.221-0.161,11.968,0.412,16.389,1.51
							c-6.383-16.574-26.577-26.217-48.149-22.594c-0.902,0.151-1.805,0.319-2.71,0.517
							C237.205,232.923,251.212,241.779,257.983,256.488z"/>
						<path style="fill:#5A3B7B;" d="M201.836,278.65c-0.965-4.409-1.245-8.774-0.923-12.94c-4.3-0.364-8.626-0.417-12.933-0.149
							c-1.657,5.257-2.015,10.799-0.811,16.3c4.383,20.018,27.76,31.905,52.215,26.55
							C223.029,311.992,206.219,298.667,201.836,278.65z"/>
						<path style="fill:#E36F73;" d="M200.912,265.709c1.14-14.749,9.848-26.996,22.6-29.788c-0.732,0.16-1.456,0.336-2.174,0.523
							c-16.653,4.346-29.168,15.817-33.359,29.116C192.286,265.293,196.612,265.346,200.912,265.709z"/>
						<path style="fill:#804983;" d="M217.089,275.31c-0.523-2.388-0.939-4.741-1.259-7.038c-4.887-1.281-9.883-2.137-14.917-2.563
							c-0.322,4.166-0.042,8.531,0.923,12.94c4.383,20.018,21.193,33.342,37.548,29.762
							C231.453,310.148,221.471,295.328,217.089,275.31z"/>
						<path style="fill:#E9967C;" d="M223.512,235.921c-12.752,2.792-21.46,15.039-22.6,29.788
							c5.034,0.426,10.03,1.282,14.917,2.563C213.467,251.313,216.528,237.45,223.512,235.921z"/>
						<path style="fill:#E9967C;" d="M223.512,235.921c6.437-1.409,14.226,8.091,19.275,22.425c5.074-1.145,10.28-1.73,15.195-1.858
							C251.212,241.779,237.205,232.923,223.512,235.921z"/>
						<path style="fill:#804983;" d="M261.06,265.683c-0.714-3.258-1.761-6.335-3.078-9.195c-4.915,0.127-10.121,0.713-15.195,1.858
							c1.171,3.324,2.195,6.908,3.02,10.677c4.383,20.018,1.507,37.653-6.424,39.389
							C255.738,304.831,265.443,285.701,261.06,265.683z"/>
						<path style="fill:#BD5983;" d="M245.807,269.022c-0.825-3.768-1.849-7.352-3.02-10.677
							c-8.62,1.945-16.856,5.503-22.617,11.179c-1.436-0.457-2.884-0.871-4.341-1.253c0.32,2.297,0.736,4.65,1.259,7.038
							c4.383,20.018,14.365,34.838,22.295,33.101C247.314,306.675,250.19,289.04,245.807,269.022z"/>
						<path style="fill:#F0BF93;" d="M223.512,235.921c-6.984,1.529-10.045,15.392-7.683,32.351
							c1.457,0.382,2.906,0.796,4.341,1.253c5.761-5.676,13.996-9.234,22.617-11.179
							C237.739,244.012,229.95,234.512,223.512,235.921z"/>
					</g>
					<g>
						<path style="fill:#454F6B;" d="M276.549,260.966c0.511-1.162,1.121-2.28,1.823-3.337c-1.721-0.635-3.513-1.068-5.332-1.304
							c-0.542,1.168-1.003,2.371-1.375,3.601c0.902,0.151,1.805,0.319,2.71,0.517C275.108,260.603,275.832,260.779,276.549,260.966z
							"/>
						<path style="fill:#638674;" d="M280.645,254.753c3.151-3.338,7.433-5.889,11.947-6.718c0.534-1.192,0.481-2.63-0.139-3.78
							c-0.62-1.15-2.278-2.928-3.515-2.509c-7.014,2.375-12.789,7.879-15.898,14.578c1.819,0.235,3.611,0.669,5.332,1.304
							C279.049,256.609,279.805,255.643,280.645,254.753z"/>
						<path style="fill:#E36F73;" d="M276.549,260.966c-0.717-0.187-1.441-0.363-2.174-0.523
							c16.354,3.581,26.059,22.711,21.677,42.728c-4.383,20.018-21.193,33.342-37.548,29.762
							c24.455,5.354,47.832-6.533,52.215-26.551C314.971,286.965,299.786,267.03,276.549,260.966z"/>
						<path style="fill:#E36F73;" d="M236.828,290.205c4.383-20.017,21.193-33.342,37.548-29.762
							c-0.905-0.198-1.809-0.365-2.71-0.517c-23.449-3.938-45.284,7.791-49.504,27.067c-4.383,20.017,11.889,40.586,36.344,45.94
							C242.15,329.353,232.445,310.222,236.828,290.205z"/>
						<path style="fill:#E9967C;" d="M252.081,293.544c4.383-20.018,14.365-34.838,22.295-33.101
							c-16.354-3.581-33.165,9.744-37.548,29.762c-4.383,20.018,5.322,39.148,21.677,42.729
							C250.574,331.197,247.698,313.562,252.081,293.544z"/>
						<path style="fill:#E9967C;" d="M296.052,303.171c4.383-20.018-5.322-39.148-21.677-42.728
							c7.93,1.736,10.807,19.371,6.424,39.389c-4.383,20.018-14.365,34.837-22.295,33.101
							C274.859,336.514,291.67,323.189,296.052,303.171z"/>
						
							<ellipse transform="matrix(0.2139 -0.9769 0.9769 0.2139 -80.3684 493.5076)" style="fill:#F0BF93;" cx="266.44" cy="296.688" rx="37.104" ry="14.699"/>
					</g>
					<g>
						<circle style="fill:#638674;" cx="184.44" cy="303.821" r="43.75"/>
						<path style="fill:#454F6B;" d="M191.117,323.065c-1.181-2.781,0.242-5.953,1.895-8.483c1.652-2.53,3.643-5.117,3.671-8.138
							c0.023-2.49-1.329-4.799-2.972-6.671c-1.643-1.871-3.606-3.445-5.199-5.36c-1.592-1.914-2.827-4.315-2.606-6.796
							c0.174-1.955,1.217-3.704,2.029-5.492c0.811-1.787,1.404-3.868,0.655-5.682c-0.791-1.918-2.817-2.961-4.654-3.925
							c-1.837-0.964-3.805-2.225-4.272-4.246c-0.219-0.949-0.067-1.944-0.192-2.91c-0.125-0.965-0.945-1.737-1.899-1.928
							c0.233,1.863-1.132,3.499-2.35,4.928c-1.218,1.429-2.448,3.245-1.903,5.042c0.414,1.366,1.737,2.245,2.431,3.491
							c0.985,1.768,0.555,4.019-0.394,5.806c-0.949,1.787-2.359,3.285-3.445,4.993c-1.086,1.707-1.855,3.795-1.308,5.743
							c1.014,3.612,5.828,4.886,7.312,8.332c0.703,1.632,0.533,3.52,0.03,5.224c-0.503,1.705-1.319,3.3-1.908,4.977
							c-1.511,4.301-1.462,9.131,0.133,13.401c1.139,0.393,1.962,1.671,2.162,2.859c0.201,1.189,0.029,2.404,0.024,3.609
							c-0.024,5.856,4.419,11.43,10.132,12.713c-1.688-2.023-2.529-4.969-2.45-7.602c0.079-2.634,1.153-5.225,2.96-7.143
							c0.759-0.806,1.65-1.507,2.239-2.444C191.828,326.427,191.55,324.085,191.117,323.065z"/>
						<path style="fill:#454F6B;" d="M206.587,320.764c3.858-4.884,4.02-12.346,0.378-17.393c-1.269-1.758-2.989-3.345-3.384-5.477
							c-0.413-2.229,0.738-4.409,1.717-6.453c0.978-2.045,1.814-4.475,0.817-6.511c-0.941-1.922-3.159-2.777-5.146-3.57
							c-1.987-0.793-4.159-1.942-4.689-4.015c-0.311-1.215,0.025-2.488,0.2-3.731c0.175-1.242,0.13-2.656-0.748-3.552
							c-1.872-1.91-5.39,0.204-7.711-1.125c-1.156-0.662-1.697-2.003-2.297-3.192c-0.6-1.189-1.525-2.433-2.854-2.532
							c0.717-1.198,2.998-0.95,4.204-0.247c1.206,0.703,2.252,1.788,3.627,2.024c1.191,0.204,2.378-0.276,3.57-0.472
							c3.536-0.582,7.327,1.688,8.483,5.081c0.724,2.126,0.612,4.734,2.305,6.21c1.489,1.298,3.707,1.112,5.633,1.549
							c3.814,0.865,6.711,4.723,6.478,8.628c-0.105,1.749-0.754,3.411-1.296,5.078c-0.543,1.666-0.988,3.434-0.672,5.157
							c0.316,1.724,1.586,3.383,3.32,3.632c2.719,3.817,0.931,6.235-0.713,10.624C216.164,314.865,211.145,319.671,206.587,320.764z
							"/>
						<path style="fill:#454F6B;" d="M157.243,324.384c-3.645-5.031-3.612-12.425,0.077-17.423c0.972-1.317,2.195-2.533,2.607-4.117
							c0.544-2.096-0.467-4.246-1.405-6.199c-0.937-1.953-1.843-4.186-1.099-6.221c1.057-2.891,4.919-3.951,6.057-6.811
							c0.746-1.877,0.105-3.983-0.457-5.922c-0.563-1.94-1.011-4.153,0.04-5.877c0.73-1.197,2.048-1.902,3.355-2.41
							s2.687-0.888,3.844-1.682c1.156-0.793,2.072-2.137,1.872-3.525c-0.611,1.27-2.365,1.799-3.746,2.079
							c-1.382,0.281-2.813,0.244-4.192,0.539c-3.768,0.806-6.782,4.323-7.001,8.171c-0.064,1.129,0.084,2.293-0.257,3.372
							c-0.816,2.577-3.88,3.514-6.058,5.116c-2.356,1.733-3.841,4.595-3.9,7.52c-0.05,2.471,0.854,4.898,0.713,7.365
							c-0.188,3.281-2.172,6.148-4.084,8.82c0.304,5.361,2.012,10.485,5.555,14.521
							C150.934,323.717,154.645,325.061,157.243,324.384z"/>
					</g>
					<g>
						<path style="fill:#7CA566;" d="M96.806,297.291c-1.46-1.285-3.344-2.195-5.292-2.761c-6.673,1.642-13.024,4.662-18.086,9.279
							c-6.091,5.555-10.17,13.51-10.216,21.754c-0.024,4.314,1.157,8.648,3.313,12.379c2.387,1.613,5.08,2.774,7.907,3.333
							c1.62,0.32,3.387,0.434,4.844-0.344c2.384-1.274,3.028-4.319,3.597-6.961c1.762-8.186,5.254-16.017,10.336-22.672
							c1.529-2.002,3.219-3.93,4.236-6.235C98.471,302.736,98.922,299.155,96.806,297.291z"/>
						<path style="fill:#ADBF53;" d="M73.427,303.809c5.062-4.617,11.413-7.637,18.086-9.279c-1.137-0.33-2.296-0.545-3.406-0.644
							c-3.181-0.285-6.391,0.25-9.457,1.145c-5.23,1.527-10.193,4.15-14.09,7.956c-3.898,3.807-6.681,8.838-7.39,14.24
							c-0.707,5.386,0.708,11.023,3.876,15.436c1.488,2.072,3.364,3.851,5.478,5.279c-2.155-3.73-3.336-8.065-3.313-12.379
							C63.257,317.32,67.337,309.365,73.427,303.809z"/>
					</g>
					<g>
						<g>
							<g>
								<path style="fill:#984058;" d="M121.277,408.561c-1.07,1.864-0.426,4.244,1.439,5.314c0.611,0.351,1.277,0.518,1.934,0.518
									c1.349,0,2.661-0.702,3.381-1.957l18.829-32.804h-8.978L121.277,408.561z"/>
								<path style="fill:#422C4F;" d="M159.503,357.605c1.07-1.864,0.426-4.245-1.439-5.314c-1.864-1.071-4.243-0.427-5.315,1.439
									l-8.747,15.24l-6.12,10.663h8.978l6.12-10.663L159.503,357.605z"/>
							</g>
							<g>
								<path style="fill:#422C4F;" d="M154.416,386.784c-3.292-2.693-7.214-4.266-11.43-4.266
									c-11.621,0-21.041,11.88-21.041,26.534c0,14.654,9.421,26.534,21.041,26.534c4.208,0,8.125-1.561,11.413-4.244
									c4.659-5.724,7.538-13.597,7.538-22.29C161.937,400.37,159.064,392.506,154.416,386.784z"/>
								<g>
									<path style="fill:#984058;" d="M143.466,387.052c-4.524,0-8.605,2.565-11.527,6.678c2.116-1.91,4.648-3.029,7.373-3.029
										c7.408,0,13.414,8.216,13.414,18.351c0,10.135-6.006,18.351-13.414,18.351c-2.725,0-5.257-1.119-7.373-3.029
										c2.922,4.114,7.003,6.678,11.527,6.678c8.882,0,16.082-9.85,16.082-22C159.548,396.902,152.348,387.052,143.466,387.052z"
										/>
									<path style="fill:#DE7274;" d="M152.726,409.052c0-10.135-6.006-18.351-13.414-18.351c-2.725,0-5.257,1.119-7.373,3.029
										c-2.815,3.962-4.554,9.361-4.554,15.322s1.74,11.36,4.555,15.322c2.116,1.91,4.648,3.029,7.373,3.029
										C146.72,427.403,152.726,419.187,152.726,409.052z"/>
								</g>
								<g>
									<path style="fill:#717D99;" d="M124.768,395.816c3.636-7.941,10.424-13.298,18.218-13.298c4.216,0,8.138,1.573,11.43,4.266
										c-4.719-5.808-11.267-9.41-18.509-9.41c-10.102,0-18.853,7.007-23.168,17.241c2.063,1.417,4.547,2.224,7.051,2.235
										C121.498,396.858,123.198,396.488,124.768,395.816z"/>
									<path style="fill:#454F6B;" d="M121.944,409.052c0-4.826,1.038-9.338,2.823-13.236c-1.57,0.672-3.27,1.042-4.978,1.035
										c-2.505-0.011-4.988-0.818-7.051-2.235c-1.826,4.331-2.863,9.235-2.863,14.437c0,17.495,11.654,31.678,26.03,31.678
										c7.233,0,13.774-3.592,18.492-9.387c-3.288,2.683-7.205,4.244-11.413,4.244
										C131.365,435.586,121.944,423.707,121.944,409.052z"/>
								</g>
							</g>
							<g>
								<path style="fill:#984058;" d="M158.617,379.633l-16.604,28.929c-1.07,1.864-0.426,4.244,1.439,5.314
									c0.611,0.351,1.277,0.518,1.934,0.518c1.349,0,2.661-0.702,3.381-1.957l18.829-32.804H158.617z"/>
								<path style="fill:#422C4F;" d="M173.716,368.969l6.523-11.365c1.07-1.864,0.426-4.245-1.439-5.314
									c-1.864-1.071-4.243-0.427-5.315,1.439l-8.747,15.24l-6.12,10.663h8.978L173.716,368.969z"/>
							</g>
						</g>
						<rect x="71.956" y="310.966" style="fill:#DE7274;" width="108.667" height="11.667"/>
						<path style="fill:#984058;" d="M106.957,374.797l97.666,0.624l-24-52.788H76.757l6.911,33.074
							C85.977,366.754,95.671,374.701,106.957,374.797z"/>
						<polygon style="fill:#EBA58E;" points="180.623,322.633 331.623,311.133 331.623,299.466 180.623,310.966 						"/>
						<path style="fill:#DE7274;" d="M180.623,322.633v28.788c0,13.255,10.745,24,24,24h80.581c11.48,0,21.704-7.259,25.49-18.096
							l16.079-45.822L180.623,322.633z"/>
						<polygon style="fill:#472948;" points="76.757,322.633 180.623,322.633 180.623,330.841 78.472,330.841 						"/>
						<polygon style="fill:#984058;" points="180.623,322.633 326.773,311.502 322.917,322.492 180.623,330.841 						"/>
						<g>
							<g>
								<polygon style="fill:#472948;" points="284.873,375.421 274.873,422.549 264.873,422.549 274.873,375.421 								"/>
							</g>
							<g>
								<polygon style="fill:#984058;" points="274.873,422.549 264.873,375.421 254.873,375.421 264.873,422.549 								"/>
							</g>
						</g>
						<g>
							<g>
								<polygon style="fill:#472948;" points="241.448,375.421 231.448,422.549 221.448,422.549 231.448,375.421 								"/>
							</g>
							<g>
								<polygon style="fill:#984058;" points="231.448,422.549 221.448,375.421 211.448,375.421 221.448,422.549 								"/>
							</g>
						</g>
					</g>
					<g>
						<path style="fill:#7CA566;" d="M73.698,315.285c5.841-7.893,13.999-14.249,22.802-18.6c3.717-1.837,7.627-3.269,11.636-4.328
							c-2.615,0.007-5.229,0.272-7.787,0.811c-2.022,0.426-4.001,1.007-5.937,1.707C86.051,299.956,78.857,306.969,73.698,315.285z"
							/>
						<g>
							<path style="fill:#ADBF53;" d="M86.844,320.254c2.858-7.465,7.938-14.062,14.425-18.732
								c5.39-3.881,11.738-6.394,18.311-7.338c-3.288-1.152-6.823-1.724-10.221-1.827c-0.407-0.012-0.815-0.001-1.222,0
								c-4.009,1.059-7.919,2.491-11.636,4.328c-8.803,4.35-16.961,10.707-22.802,18.6c5.159-8.316,12.353-15.329,20.714-20.41
								c-6.423,2.325-12.356,6.034-17.682,10.354c-3.423,2.776-6.686,5.881-8.82,9.737c-2.133,3.856-3.023,8.582-1.547,12.734
								c0.661,1.86,1.828,3.602,3.524,4.613c1.696,1.011,3.961,1.173,5.623,0.107c1.284-0.824,2.09-2.257,3.394-3.049
								c1.714-1.041,3.768-0.743,5.84-0.389c0.043-0.47,0.087-0.941,0.153-1.409C85.252,325.069,85.939,322.617,86.844,320.254z"/>
							<path style="fill:#7CA566;" d="M124.441,296.461c-1.515-0.935-3.157-1.68-4.862-2.277
								c-6.573,0.944-12.921,3.457-18.311,7.338c-6.486,4.67-11.567,11.268-14.425,18.732c-0.905,2.363-1.592,4.814-1.948,7.319
								c-0.066,0.468-0.11,0.938-0.153,1.409c2.23,0.381,4.479,0.827,6.344-0.259c2.075-1.208,2.781-3.851,2.979-6.243
								c0.198-2.392,0.11-4.928,1.291-7.018c1.256-2.224,3.743-3.5,6.237-4.049c2.494-0.548,5.077-0.49,7.619-0.734
								c3.765-0.362,7.526-1.426,10.642-3.571C122.342,305.397,128.548,298.997,124.441,296.461z"/>
						</g>
					</g>
					<g>
						<path style="fill:#7CA566;" d="M100.908,324.192c3.977-8.473,10.381-15.658,18.027-21.057
							c5.031-3.552,10.677-6.221,16.603-7.895c-3.054-0.6-6.172-0.753-9.234-0.406c-5.055,2.276-9.71,5.443-13.635,9.358
							C107.132,309.712,103.041,316.67,100.908,324.192z"/>
						<path style="fill:#ADBF53;" d="M157.867,310.966c-4.533-8.106-13.126-13.918-22.329-15.727
							c-5.926,1.674-11.572,4.343-16.603,7.895c-7.646,5.399-14.051,12.584-18.027,21.057c2.133-7.522,6.224-14.48,11.76-20.001
							c3.926-3.915,8.58-7.082,13.635-9.358c-0.132,0.015-0.266,0.017-0.398,0.034c-12.402,1.584-23.419,10.057-29.298,21.091
							c-1.983,3.722-3.453,7.819-3.465,12.036c-0.011,4.217,1.598,8.57,4.883,11.214c3.285,2.644,8.334,3.186,11.75,0.713
							c2.626-1.901,4.267-5.366,7.433-6.064c3.544-0.781,7.892,2.236,10.529-0.257c1.519-1.437,1.349-3.845,1.238-5.934
							c-0.111-2.088,0.226-4.628,2.133-5.486c1.267-0.57,2.729-0.141,4.117-0.075c4.819,0.23,9.609-6.466,8.338-11.12
							L157.867,310.966z"/>
					</g>
					<g>
						<path style="fill:#7CA566;" d="M210.364,299.832c-1.952,1.239-4.816,2.908-4.798,5.472c0.019,2.659,2.332,5.368,4.775,6.153
							c2.383,0.766,4.956,0.162,7.443-0.12c1.311-0.149,2.716-0.159,4,0.13C219.363,306.501,215.283,302.344,210.364,299.832z"/>
						<path style="fill:#ADBF53;" d="M260.639,321.297c-2.09-11.619-10.964-21.758-22.203-25.37
							c-0.021-0.007-0.043-0.011-0.064-0.017c5.769,3.169,10.787,7.713,14.385,13.227c2.81,4.306,4.742,9.347,3.807,14.403
							c-1.263-8.566-5.887-16.592-12.663-21.982c-4.7-3.738-10.403-6.179-16.336-7.093c-6.007,0.209-11.968,2.018-17.033,5.261
							c-0.054,0.035-0.112,0.071-0.167,0.106c4.919,2.512,8.999,6.669,11.42,11.634c1.153,0.259,2.209,0.757,2.998,1.64
							c2.834,3.171,0.485,9.019,3.577,11.938c1.86,1.757,4.779,1.529,7.312,1.17c2.533-0.359,5.435-0.63,7.341,1.077
							c1.155,1.034,1.673,2.586,2.533,3.876c1.501,2.25,4.159,3.681,6.864,3.695c2.705,0.014,5.378-1.388,6.903-3.621
							C261.247,328.407,261.246,324.674,260.639,321.297z"/>
						<path style="fill:#7CA566;" d="M256.564,323.54c0.935-5.056-0.997-10.097-3.807-14.403
							c-3.598-5.514-8.617-10.058-14.385-13.227c-3.35-1.068-6.878-1.547-10.391-1.469c-0.139,0.003-0.277,0.019-0.416,0.023
							c5.933,0.914,11.636,3.355,16.336,7.093C250.677,306.948,255.3,314.973,256.564,323.54z"/>
					</g>
					<g>
						<path style="fill:#7CA566;" d="M208.906,310.33c4.469,7.383,6.938,15.965,7.074,24.595c-0.101-7.971-0.651-16.505-3.956-23.76
							c-1.583-3.474-3.701-6.746-6.277-9.567c-2.884-1.551-6.022-2.589-9.262-2.97c1.798,0.744,3.493,1.762,5.02,2.968
							C204.517,303.973,206.919,307.048,208.906,310.33z"/>
						<path style="fill:#ADBF53;" d="M215.25,309.753c-2.53-3.35-5.808-6.168-9.503-8.156c2.576,2.821,4.694,6.093,6.277,9.567
							c3.305,7.255,3.855,15.789,3.956,23.76c-0.137-8.63-2.605-17.211-7.074-24.595c-1.987-3.282-4.389-6.357-7.4-8.735
							c-1.527-1.206-3.222-2.224-5.02-2.968c-0.675-0.08-1.354-0.141-2.036-0.162c-8.154-0.25-17.446,5.238-21.16,12.501h7.333
							l4.665-0.355c1.13,0,2.636,1.534,2.726,2.66c0.09,1.126-0.39,2.207-0.768,3.272c-0.378,1.065-0.655,2.272-0.18,3.297
							c0.741,1.6,2.867,1.956,4.124,3.191c1.882,1.85,1.31,4.959,0.594,7.499c-0.716,2.54-1.312,5.637,0.546,7.512
							c2.252,2.273,6.297,0.931,9.096,2.481c2.36,1.307,3.215,4.293,5.211,6.108c2.184,1.986,5.596,2.277,8.305,1.104
							c2.709-1.173,4.732-3.615,5.871-6.338c1.139-2.723,1.471-5.719,1.503-8.671C222.402,324.568,220.167,316.263,215.25,309.753z"
							/>
					</g>
				</g>
			</g>
			<g>
				<g>
					<g>
						<circle style="fill:#6F3270;" cx="156.74" cy="147.002" r="11.11"/>
					</g>
					<g>
						<circle style="fill:#6F3270;" cx="122.353" cy="148.491" r="11.11"/>
					</g>
					<g>
						<g>
							<path style="fill:#E04988;" d="M81.519,149.046c-1.695-0.975-3.654-1.542-5.75-1.542c-6.381,0-11.554,5.173-11.554,11.554
								c0,6.381,5.173,11.554,11.554,11.554c2.13,0,4.118-0.586,5.831-1.591c-2.175-2.381-3.596-5.46-3.89-8.675
								C77.338,156.271,78.786,152.083,81.519,149.046z"/>
							<path style="fill:#AF3D80;" d="M87.323,159.058c0-4.285-2.339-8.017-5.804-10.012c-2.733,3.036-4.181,7.225-3.809,11.3
								c0.294,3.215,1.715,6.294,3.89,8.675C85.02,167.015,87.323,163.31,87.323,159.058z"/>
						</g>
					</g>
					<g>
						<circle style="fill:#E04988;" cx="95.201" cy="154.933" r="12.875"/>
					</g>
					<g>
						<circle style="fill:#AF3D80;" cx="116.989" cy="160.351" r="12.875"/>
					</g>
					<g>
						<circle style="fill:#E04988;" cx="141.079" cy="154.933" r="12.875"/>
					</g>
					<g>
						<circle style="fill:#AF3D80;" cx="165.382" cy="159.034" r="12.875"/>
					</g>
					<g>
						<g>
							<path style="fill:#638674;" d="M89.892,140.612c-0.797-1.606-1.882-3.104-3.204-4.388c-0.978,0.214-1.625,1.191-1.711,2.112
								c1.295,0.837,2.485,1.93,3.463,3.213C88.863,141.158,89.355,140.826,89.892,140.612z"/>
							<path style="fill:#454F6B;" d="M88.441,141.549c0.59,0.767,1.099,1.603,1.527,2.483l1.061-0.381
								c-0.27-1.034-0.647-2.057-1.136-3.038C89.355,140.826,88.863,141.158,88.441,141.549z"/>
						</g>
						<path style="fill:#B0B369;" d="M89.289,140.182c1.515-0.828,2.635-2.146,2.908-3.824c0.284-1.652-0.331-3.652-1.939-5.133
							c-1.235,1.232-1.695,2.92-1.807,4.51C88.357,137.342,88.605,138.856,89.289,140.182z"/>
					</g>
					<g>
						<g>
							<path style="fill:#638674;" d="M76.643,145.342c0.85-1.748,2.017-3.31,3.419-4.591c-0.027-0.907-0.665-1.658-1.658-1.572
								c-1.414,1.699-2.467,3.629-3.125,5.665C75.774,144.88,76.238,145.062,76.643,145.342z"/>
							<path style="fill:#454F6B;" d="M75.279,144.845c-0.398,1.22-0.649,2.481-0.759,3.751l0.937,0.14
								c0.267-1.186,0.665-2.325,1.186-3.393C76.238,145.062,75.774,144.88,75.279,144.845z"/>
						</g>
						<path style="fill:#B0B369;" d="M76.729,144.552c1.256,0.757,2.709,0.844,3.981,0.724c1.287-0.138,2.389-0.481,3.221-1.106
							c-0.946-1.099-2.172-1.855-3.544-1.854C79.035,142.297,77.569,143.081,76.729,144.552z"/>
					</g>
					<g>
						<g>
							<path style="fill:#638674;" d="M109.985,146.943c-0.46-1.54-1.238-3.021-2.289-4.303c-0.906,0.103-1.583,0.941-1.775,1.75
								c1.036,0.835,1.945,1.928,2.607,3.176C108.972,147.282,109.468,147.056,109.985,146.943z"/>
							<path style="fill:#454F6B;" d="M108.528,147.566c0.401,0.747,0.708,1.548,0.924,2.377l1.023-0.145
								c-0.047-0.95-0.206-1.913-0.49-2.854C109.468,147.056,108.972,147.282,108.528,147.566z"/>
						</g>
						<path style="fill:#B0B369;" d="M109.51,146.478c1.491-0.528,2.709-1.548,3.176-3.052c0.474-1.473,0.138-3.425-1.236-4.986
							c-1.253,0.997-1.821,2.505-2.103,3.937C109.082,143.829,109.102,145.21,109.51,146.478z"/>
					</g>
					<g>
						<g>
							<path style="fill:#638674;" d="M126.842,135.647c1.272-1.362,2.798-2.448,4.463-3.183c0.255-0.827-0.087-1.702-1.018-1.92
								c-1.82,1.119-3.359,2.582-4.545,4.269C126.182,134.982,126.553,135.278,126.842,135.647z"/>
							<path style="fill:#454F6B;" d="M125.741,134.813c-0.714,1.01-1.296,2.105-1.741,3.251l0.819,0.377
								c0.564-1.023,1.244-1.962,2.023-2.794C126.553,135.278,126.182,134.982,125.741,134.813z"/>
						</g>
						<path style="fill:#B0B369;" d="M127.147,134.948c0.926,1.044,2.224,1.532,3.407,1.794c1.202,0.25,2.284,0.276,3.199-0.019
							c-0.52-1.278-1.388-2.338-2.629-2.748C129.908,133.553,128.337,133.839,127.147,134.948z"/>
					</g>
					<g>
						<g>
							<path style="fill:#638674;" d="M139.441,140.204c-0.17-1.243-0.583-2.479-1.223-3.602c-0.708-0.041-1.337,0.508-1.586,1.107
								c0.693,0.788,1.257,1.75,1.618,2.799C138.624,140.342,139.031,140.228,139.441,140.204z"/>
							<path style="fill:#454F6B;" d="M138.25,140.508c0.22,0.628,0.363,1.287,0.435,1.956l0.802,0.003
								c0.071-0.741,0.06-1.503-0.046-2.263C139.031,140.228,138.624,140.342,138.25,140.508z"/>
						</g>
						<path style="fill:#B0B369;" d="M139.132,139.787c1.207-0.224,2.262-0.861,2.807-1.951c0.546-1.067,0.538-2.592-0.299-3.954
							c-1.089,0.599-1.724,1.674-2.124,2.734C139.127,137.693,138.97,138.76,139.132,139.787z"/>
					</g>
					<g>
						<g>
							<path style="fill:#638674;" d="M159.726,135.156c1.134-1.395,2.518-2.553,4.055-3.403c0.171-0.821-0.24-1.634-1.152-1.768
								c-1.64,1.225-3.001,2.74-4.025,4.437C159.042,134.558,159.421,134.819,159.726,135.156z"/>
							<path style="fill:#454F6B;" d="M158.604,134.422c-0.617,1.015-1.108,2.1-1.473,3.222l0.814,0.321
								c0.488-1.013,1.086-1.956,1.781-2.809C159.421,134.819,159.042,134.558,158.604,134.422z"/>
						</g>
						<path style="fill:#B0B369;" d="M159.971,134.463c0.969,0.946,2.258,1.332,3.427,1.494c1.185,0.15,2.247,0.078,3.125-0.301
							c-0.614-1.191-1.552-2.134-2.785-2.427C162.526,132.923,161.039,133.316,159.971,134.463z"/>
					</g>
					<g>
						<g>
							<path style="fill:#638674;" d="M172.506,146.395c0.616-1.327,0.975-2.81,1.019-4.32c-0.687-0.471-1.655-0.296-2.273,0.143
								c0.213,1.185,0.181,2.475-0.119,3.72C171.607,146.014,172.084,146.159,172.506,146.395z"/>
							<path style="fill:#454F6B;" d="M171.132,145.939c-0.176,0.749-0.451,1.477-0.806,2.168l0.785,0.525
								c0.545-0.672,1.02-1.423,1.395-2.236C172.084,146.159,171.607,146.014,171.132,145.939z"/>
						</g>
						<path style="fill:#B0B369;" d="M172.462,145.791c1.34,0.54,2.793,0.579,4.021-0.174c1.215-0.726,2.162-2.279,2.149-4.191
							c-1.462-0.064-2.757,0.64-3.811,1.456C173.766,143.724,172.947,144.681,172.462,145.791z"/>
					</g>
				</g>
				<g>
					<g>
						<rect x="57.006" y="160.351" style="fill:#DF8D6D;" width="59.619" height="9.489"/>
						
							<rect x="116.624" y="160.351" transform="matrix(-1 -1.224647e-16 1.224647e-16 -1 307.9086 330.1903)" style="fill:#BD6C67;" width="74.66" height="9.489"/>
					</g>
					<g>
						<rect x="60.265" y="169.839" style="fill:#BD6C67;" width="56.724" height="13.997"/>
						
							<rect x="116.989" y="169.839" transform="matrix(-1 -1.224647e-16 1.224647e-16 -1 305.014 353.6755)" style="fill:#A64F5A;" width="71.035" height="13.997"/>
					</g>
					<g>
						<rect x="60.265" y="169.839" style="fill:#8C404C;" width="56.724" height="5.219"/>
						
							<rect x="116.989" y="169.839" transform="matrix(-1 -1.224647e-16 1.224647e-16 -1 305.014 344.8979)" style="fill:#422C4F;" width="71.035" height="5.219"/>
					</g>
					<g>
						<rect x="60.265" y="183.836" style="fill:#A64F5A;" width="56.724" height="13.997"/>
						
							<rect x="116.989" y="183.836" transform="matrix(-1 -1.224647e-16 1.224647e-16 -1 305.014 381.6685)" style="fill:#8C404C;" width="71.035" height="13.997"/>
					</g>
					<g>
						<rect x="60.265" y="197.833" style="fill:#BD6C67;" width="56.724" height="13.997"/>
						
							<rect x="116.989" y="197.833" transform="matrix(-1 -1.224647e-16 1.224647e-16 -1 305.014 409.6615)" style="fill:#A64F5A;" width="71.035" height="13.997"/>
					</g>
				</g>
			</g>
			<g>
				<g>
					<g>
						<path style="fill:#A59B95;" d="M273.409,46.222h-9.543v-7.192c0-2.631,2.14-4.771,4.771-4.771c2.631,0,4.771,2.14,4.771,4.771
							V46.222z M265.55,44.537h6.175v-5.508c0-1.702-1.385-3.087-3.087-3.087c-1.702,0-3.087,1.385-3.087,3.087V44.537z"/>
					</g>
					<path style="fill:#E4E4E0;" d="M258.253,49.304h20.77l-5.04-3.753c-0.919-0.684-2.034-1.054-3.179-1.054h-4.33
						c-1.146,0-2.261,0.37-3.18,1.054L258.253,49.304z"/>
					<g>
						<rect x="250.534" y="67.961" style="fill:#A59B95;" width="9.824" height="61.541"/>
						<rect x="267.375" y="67.961" style="fill:#A59B95;" width="19.367" height="61.541"/>
						<rect x="260.358" y="67.961" style="fill:#D4CFBE;" width="7.017" height="61.541"/>
					</g>
					<g>
						<rect x="258.253" y="100.345" style="fill:none;" width="7.017" height="15.6"/>
						<rect x="258.253" y="82.497" style="fill:none;" width="7.017" height="15.6"/>
						<rect x="258.253" y="80.25" style="fill:#FFFFFF;" width="7.017" height="2.247"/>
						<path style="fill:#E4E4E0;" d="M287.723,82.497c0.62,0,1.124-0.503,1.124-1.124s-0.503-1.124-1.124-1.124H265.27v2.247
							H287.723z"/>
						<path style="fill:#E4E4E0;" d="M249.552,80.25c-0.62,0-1.123,0.503-1.123,1.124s0.503,1.124,1.123,1.124h8.7V80.25H249.552z"
							/>
						<path style="fill:#E4E4E0;" d="M249.552,98.098c-0.62,0-1.123,0.503-1.123,1.123s0.503,1.123,1.123,1.123h8.7v-2.247H249.552z
							"/>
						<rect x="258.253" y="98.098" style="fill:#FFFFFF;" width="7.017" height="2.247"/>
						<path style="fill:#E4E4E0;" d="M287.723,100.345c0.62,0,1.124-0.503,1.124-1.123s-0.503-1.123-1.124-1.123H265.27v2.247
							H287.723z"/>
						<path style="fill:#E4E4E0;" d="M287.723,118.192c0.62,0,1.124-0.503,1.124-1.124s-0.503-1.123-1.124-1.123H265.27v2.247
							H287.723z"/>
						<path style="fill:#E4E4E0;" d="M249.552,115.945c-0.62,0-1.123,0.503-1.123,1.123s0.503,1.124,1.123,1.124h8.7v-2.247H249.552
							z"/>
						<rect x="258.253" y="115.945" style="fill:#FFFFFF;" width="7.017" height="2.247"/>
					</g>
					<g>
						<polygon style="fill:#D4CFBE;" points="258.253,57.146 250.534,67.961 260.172,67.961 264.48,57.146 						"/>
						<polygon style="fill:#D4CFBE;" points="279.023,57.146 267.796,57.146 267.375,67.961 286.741,67.961 						"/>
						<polygon style="fill:#E4E4E0;" points="264.48,57.146 260.172,67.961 267.375,67.961 267.796,57.146 						"/>
					</g>
					<g>
						<rect x="258.253" y="49.304" style="fill:#A59B95;" width="6.227" height="7.842"/>
						<rect x="267.796" y="49.304" style="fill:#A59B95;" width="11.227" height="7.842"/>
						<rect x="264.48" y="49.304" style="fill:#D4CFBE;" width="3.316" height="7.842"/>
					</g>
				</g>
				<g>
					<path style="fill:#FFFFFF;" d="M290.696,97.231l1.786-1.449l-0.563-0.457c-0.468-0.38-0.74-0.95-0.74-1.553v-3.475h-8.875
						v3.475c0,0.603-0.272,1.173-0.74,1.553l-2.348,1.906c-1.17,0.949-1.849,2.376-1.849,3.882v28.389h11.48v-28.389
						C288.846,99.607,289.526,98.18,290.696,97.231z"/>
					<path style="fill:#E4E4E0;" d="M291.424,90.298c0.538,0,0.974-0.436,0.974-0.974c0-0.538-0.436-0.974-0.974-0.974h-9.365
						c-0.538,0-0.974,0.436-0.974,0.974c0,0.538,0.436,0.974,0.974,0.974h0.245h8.875H291.424z"/>
					<path style="fill:#F3CEA8;" d="M294.267,97.231l-1.786-1.449l-1.786,1.449c-1.17,0.949-1.849,2.376-1.849,3.882v28.389h7.27
						v-28.389C296.116,99.607,295.437,98.18,294.267,97.231z"/>
				</g>
				<g>
					<path style="fill:#FFFFFF;" d="M306.21,93.772v-3.475h-8.875v3.475c0,0.603-0.272,1.173-0.74,1.553l-2.349,1.906
						c-1.17,0.949-1.849,2.376-1.849,3.882v28.389h18.75v-28.389c0-1.507-0.679-2.933-1.849-3.882l-2.349-1.906
						C306.482,94.945,306.21,94.375,306.21,93.772z"/>
					<path style="fill:#E4E4E0;" d="M306.455,88.35h-9.365c-0.538,0-0.974,0.436-0.974,0.974l0,0c0,0.538,0.436,0.974,0.974,0.974
						h9.365c0.538,0,0.974-0.436,0.974-0.974l0,0C307.429,88.786,306.993,88.35,306.455,88.35z"/>
				</g>
			</g>
			<g>
				<path style="fill:#454F6B;" d="M285.631,191.028c15.245-9.169,27.699-22.913,35.326-38.985
					c-4.875,7.415-13.498,11.846-20.686,17.05C293.083,174.298,287.115,182.279,285.631,191.028z"/>
				<g>
					<path style="fill:#ECA85E;" d="M288.441,157.622c1.165-0.982,2.316-1.912,3.442-2.777c4.134,4.942,10.114,8.35,16.492,9.268
						c-0.905,1.695-1.938,3.465-3.095,5.296c-6.351,0.031-12.704-1.943-17.958-5.519C287.65,161.789,287.98,159.69,288.441,157.622z
						"/>
					<path style="fill:#F5D896;" d="M300.449,149.198c5.003-2.659,8.931-3.389,10.908-1.622c1.743,1.558,1.723,4.844,0.268,9.211
						c-2.553-0.421-5.009-1.443-7.078-3C302.897,152.545,301.512,150.969,300.449,149.198z"/>
					<path style="fill:#F4D071;" d="M291.883,154.845c3.066-2.355,5.961-4.261,8.566-5.646c1.062,1.77,2.448,3.347,4.098,4.589
						c2.068,1.557,4.524,2.579,7.078,3c-0.732,2.195-1.828,4.663-3.249,7.326C301.997,163.194,296.017,159.787,291.883,154.845z"/>
					<path style="fill:#E58064;" d="M284.157,161.417c1.445-1.342,2.876-2.609,4.284-3.795c-0.461,2.068-0.792,4.167-1.119,6.268
						C286.213,163.135,285.157,162.309,284.157,161.417z"/>
					<path style="fill:#E58064;" d="M283.661,178.69c-1.089,2.915-2.387,5.751-3.873,8.487c-0.301-0.063-0.603-0.123-0.903-0.193
						c-4.479-1.05-8.752-2.944-12.564-5.518c2.252-3.08,4.782-6.246,7.553-9.416C276.609,174.934,279.972,177.21,283.661,178.69z"/>
					<path style="fill:#ECA85E;" d="M286.576,168.334c-0.677,3.529-1.658,6.994-2.914,10.357c-3.689-1.48-7.052-3.757-9.788-6.641
						c0.369-0.422,0.738-0.844,1.115-1.265c3.05-3.413,6.139-6.552,9.169-9.367c1,0.893,2.056,1.719,3.165,2.473
						C287.09,165.375,286.858,166.86,286.576,168.334z"/>
					<path style="fill:#F4D071;" d="M286.907,179.779c-1.105-0.289-2.186-0.663-3.246-1.088c1.256-3.363,2.238-6.827,2.914-10.357
						c0.283-1.474,0.515-2.959,0.746-4.444c5.254,3.576,11.607,5.55,17.958,5.519c-2.222,3.514-4.893,7.239-7.938,11.028
						C293.862,180.874,290.301,180.666,286.907,179.779z"/>
					<path style="fill:#ECA85E;" d="M278.885,186.984c0.3,0.07,0.602,0.131,0.903,0.193c-2.274,4.187-4.991,8.134-8.09,11.754
						c-0.061-0.026-0.123-0.051-0.183-0.077c-4.236-1.833-8.288-4.09-12.082-6.718c1.834-3.327,4.156-6.934,6.888-10.671
						C270.133,184.039,274.406,185.933,278.885,186.984z"/>
					<path style="fill:#E58064;" d="M271.698,198.931c-3.752,4.384-8.061,8.285-12.817,11.548c-1.19-0.011-2.168-0.318-2.886-0.959
						c-2.712-2.424-1.172-9.019,3.438-17.384c3.794,2.628,7.846,4.885,12.082,6.718C271.576,198.88,271.638,198.905,271.698,198.931
						z"/>
					<path style="fill:#ECA85E;" d="M279.788,187.177c1.486-2.736,2.784-5.572,3.873-8.487c1.06,0.425,2.141,0.799,3.246,1.088
						c3.394,0.887,6.955,1.096,10.435,0.659c-1.565,1.948-3.225,3.913-4.979,5.875c-0.449,0.503-0.9,0.999-1.351,1.49
						C287.266,188.148,283.471,187.944,279.788,187.177z"/>
					<path style="fill:#ECA85E;" d="M271.698,198.931c1.795,0.77,3.636,1.46,5.526,1.934c-7.538,6.081-14.227,9.653-18.343,9.613
						C263.637,207.217,267.946,203.315,271.698,198.931z"/>
					<path style="fill:#F4D071;" d="M279.788,187.177c3.683,0.767,7.478,0.971,11.224,0.626c-4.655,5.07-9.366,9.495-13.788,13.063
						c-1.89-0.474-3.731-1.164-5.526-1.934C274.797,195.311,277.515,191.364,279.788,187.177z"/>
				</g>
				<path style="fill:#638674;" d="M254.934,209.981c11.95-9.093,21.126-21.783,26.018-35.981
					c1.876-5.446,3.139-11.106,5.372-16.416c2.233-5.31,5.604-10.385,10.595-13.26C279.776,150.321,260.779,184.163,254.934,209.981
					z"/>
				<path style="fill:#B0B369;" d="M254.934,209.981c7.972-10.492,13.626-22.2,18.014-34.624
					c3.83-10.843,6.255-22.346,12.243-32.164c-10.796,12.165-19.784,26.018-26.924,40.632c-1.923,3.935-3.761,7.959-4.691,12.239
					C252.647,200.343,253.194,205.961,254.934,209.981z"/>
				<path style="fill:#638674;" d="M254.934,209.981c26.407-10.737,46.308-34.509,53.514-46.002
					C293.281,203.508,264.55,214.467,254.934,209.981z"/>
			</g>
			<g>
				<g>
					<path style="fill:#ADBF53;" d="M185.033,60.824c-2.099-3.406-5.643-5.888-9.561-6.697c-2.058-0.425-4.34-0.362-6.08,0.816
						c-1.328,0.9-2.204,2.378-2.555,3.944c-0.683,3.039,0.56,6.307,2.739,8.532c2.179,2.225,5.179,3.503,8.232,4.117
						c1.931,0.388,3.899,0.527,5.864,0.582c1.652,0.046,2.938,0.452,3.379-1.341C187.843,67.561,186.722,63.564,185.033,60.824z"/>
					<path style="fill:#7CA566;" d="M192.314,58.297c0.587-1.628,1.425-3.206,2.704-4.371c1.28-1.165,3.052-1.871,4.758-1.586
						c1.597,0.267,2.98,1.382,3.782,2.788c0.802,1.406,1.065,3.074,0.97,4.69c-0.173,2.941-1.528,5.795-3.697,7.789
						c-1.533,1.409-6.952,4.693-8.771,2.376c-0.992-1.264-0.87-4.253-0.837-5.769C191.268,62.2,191.631,60.193,192.314,58.297z"/>
					<path style="fill:#ADBF53;" d="M205.719,74.69c-0.321-1.942-1.133-3.85-2.556-5.21c-1.423-1.36-3.508-2.097-5.421-1.635
						c-2.445,0.591-4.168,3.12-4.131,5.635c0.037,2.515,1.646,4.864,3.829,6.112c1.798,1.027,4.876,1.829,6.894,0.938
						C206.463,79.589,206.029,76.563,205.719,74.69z"/>
					<path style="fill:#ADBF53;" d="M213.98,57.862c0.447-3.734,1.967-7.485,4.879-9.864c1.761-1.439,4.195-2.319,6.337-1.552
						c1.67,0.598,2.899,2.128,3.436,3.819c0.537,1.691,0.452,3.526,0.092,5.264c-0.774,3.739-2.906,7.135-5.795,9.61
						c-1.445,1.238-3.086,2.252-4.85,2.967c-0.67,0.272-2.019,0.964-2.76,0.845c-1.126-0.181-0.933-1.072-1.068-2.16
						C213.883,63.832,213.624,60.835,213.98,57.862z"/>
					<path style="fill:#7CA566;" d="M222.953,65.283c2.048-1.961,4.718-3.426,7.554-3.451c2.835-0.026,5.771,1.648,6.669,4.338
						c0.911,2.73-0.489,5.879-2.84,7.538c-2.351,1.659-5.432,2.007-8.274,1.555c-1.568-0.25-7.59-1.399-7.874-3.25
						C217.912,70.218,221.756,66.428,222.953,65.283z"/>
					<path style="fill:#ADBF53;" d="M223.034,76.04c1.261-2.699,3.647-4.852,6.461-5.83c1.367-0.475,2.885-0.677,4.258-0.219
						c2.656,0.887,4.002,4.164,3.322,6.881c-0.68,2.717-2.954,4.81-5.5,5.976c-1.877,0.859-6.435,2.666-8.446,1.47
						C220.821,82.946,222.165,77.899,223.034,76.04z"/>
					<path style="fill:#7CA566;" d="M232.052,82.319c1.936-1.42,4.229-2.459,6.629-2.524c2.4-0.065,4.901,0.962,6.235,2.958
						c1.334,1.997,1.216,4.964-0.546,6.596c-1.258,1.165-3.065,1.508-4.778,1.6c-3.465,0.186-6.968-0.473-10.139-1.88
						c-1.563-0.694-2.778-1.242-1.55-2.886C228.991,84.728,230.596,83.387,232.052,82.319z"/>
					<path style="fill:#7CA566;" d="M183.682,79.384c-0.553-1.252-1.214-2.495-2.234-3.408c-1.398-1.252-3.315-1.748-5.179-1.963
						c-2.628-0.303-5.529-0.041-7.506,1.718c-2.404,2.139-2.669,6.043-1.135,8.872c1.534,2.828,4.507,4.65,7.609,5.507
						c2.482,0.686,7.663,1.891,9.867-0.181C187.484,87.691,184.732,81.763,183.682,79.384z"/>
					<g>
						<path style="fill:#4D8C84;" d="M178.83,83.255c-0.395-0.386-1.027-0.378-1.414,0.016c-0.386,0.395-0.379,1.028,0.016,1.414
							c2.709,2.649,5.511,5.389,7.788,8.455c2.512,3.383,4.065,6.775,4.615,10.08c0.081,0.489,0.505,0.836,0.985,0.836
							c0.054,0,0.109-0.004,0.165-0.014c0.545-0.09,0.913-0.605,0.822-1.15c-0.603-3.622-2.278-7.304-4.982-10.944
							C184.453,88.754,181.594,85.959,178.83,83.255z"/>
						<path style="fill:#4D8C84;" d="M196.984,63.519c0.47-0.291,0.614-0.907,0.323-1.377c-0.291-0.468-0.905-0.614-1.377-0.322
							c-0.372,0.231-3.476,2.521-5.279,15.212c-3.039-5.084-6.923-9.667-11.539-13.453c-0.427-0.349-1.057-0.287-1.408,0.139
							c-0.35,0.427-0.288,1.057,0.139,1.408c11.422,9.366,18.255,23.777,18.279,38.549c0.001,0.552,0.448,0.999,1,0.999
							c0,0,0.001,0,0.001,0c0.552-0.001,0.999-0.449,0.999-1.001c-0.013-8.256-2.088-16.395-5.833-23.678
							C193.881,65.984,196.988,63.519,196.984,63.519z"/>
						<path style="fill:#4D8C84;" d="M225.509,71.506c0.551-0.03,0.975-0.5,0.946-1.051c-0.03-0.552-0.511-0.985-1.049-0.946
							c-0.244,0.012-5.422,0.321-11.863,3.56c1.489-3.396,3.187-6.701,5.097-9.885c0.284-0.474,0.131-1.088-0.343-1.372
							c-0.475-0.286-1.088-0.131-1.372,0.343c-4.27,7.117-7.526,14.816-9.688,22.814c-2.553-6.875-6.155-9.777-6.33-9.915
							c-0.434-0.341-1.062-0.266-1.404,0.168c-0.341,0.434-0.266,1.063,0.169,1.404c0.044,0.034,4.352,3.507,6.651,12.062
							c-1.106,4.907-1.812,9.907-2.08,14.938c-0.029,0.552,0.394,1.022,0.945,1.052c0.018,0.001,0.036,0.002,0.054,0.002
							c0.528,0,0.969-0.414,0.997-0.947c0.505-9.5,2.582-18.886,6.078-27.717C219.316,71.89,225.447,71.509,225.509,71.506z"/>
						<path style="fill:#4D8C84;" d="M231.657,85.007c-0.177-0.003-3.866-0.086-9.179,2.092c2.073-3.099,4.436-6.008,7.071-8.677
							c0.388-0.393,0.384-1.026-0.009-1.414c-0.393-0.388-1.025-0.385-1.414,0.009c-7.546,7.639-12.966,17.169-15.674,27.561
							c-0.139,0.534,0.181,1.081,0.716,1.22c0.085,0.022,0.169,0.033,0.252,0.033c0.444,0,0.85-0.298,0.967-0.749
							c1.364-5.234,3.445-10.238,6.152-14.88c6.318-3.286,10.996-3.194,11.051-3.196c0.559,0.021,1.014-0.415,1.033-0.966
							C232.641,85.488,232.209,85.026,231.657,85.007z"/>
					</g>
				</g>
				<g>
					<polygon style="fill:#4D8C84;" points="225.646,111.752 229.691,99.101 176.815,99.101 180.861,111.752 182.645,111.752 
						223.862,111.752 					"/>
					<polygon style="fill:#454F6B;" points="182.645,111.752 184.436,117.84 222.071,117.84 223.862,111.752 					"/>
					<polygon style="fill:#4D8C84;" points="187.527,128.343 218.98,128.343 222.071,117.84 184.436,117.84 					"/>
				</g>
			</g>
			<g>
				<g>
					<path style="fill:#F4D071;" d="M111.702,106.44c-2.453-4.509-7.759-7.05-9.79-11.765c-1.06-2.462-1.074-5.355-0.036-7.827
						c1.108-2.64,3.271-4.659,5.07-6.886c1.886-2.335,3.435-5.039,3.884-8.008c0.449-2.968-0.342-6.227-2.535-8.276
						c-2.022-1.89-4.962-2.446-7.704-1.915c-2.136,1.746-3.972,4.053-5.678,6.197c-4.076,5.122-8.675,9.828-13.7,14.023
						c-6.375,5.323-13.616,8.601-15.384,17.55c-0.569,2.881-0.311,5.871-0.805,8.766c-0.494,2.895-1.821,8.365-4.758,8.365h52.859
						C113.511,113.099,113.385,109.534,111.702,106.44z"/>
					<path style="fill:#ECA85E;" d="M135.168,104.492c-0.289-3.881,0.366-7.997-1.304-11.512c-1.785-3.756-5.786-5.892-8.407-9.12
						c-3.134-3.861-4.085-8.98-5.696-13.685c-1.611-4.704-4.499-9.598-9.308-10.866c-3.999-1.055-7.171,0.252-9.864,2.454
						c2.743-0.531,5.682,0.025,7.704,1.915c2.193,2.05,2.985,5.308,2.535,8.276c-0.449,2.968-1.998,5.672-3.884,8.008
						c-1.799,2.227-3.962,4.247-5.07,6.886c-1.038,2.472-1.024,5.365,0.036,7.827c2.031,4.715,7.337,7.256,9.79,11.765
						c1.683,3.094,1.81,6.659,1.423,10.224h30.323C139.582,116.21,135.457,108.373,135.168,104.492z"/>
				</g>
				<g>
					<path style="fill:#ECA85E;" d="M85.937,89.861c-0.336-4.306-3.105-10.252-6.185-13.28
						C80.089,80.886,82.858,86.832,85.937,89.861z"/>
				</g>
				<g>
					<path style="fill:#ECA85E;" d="M83.746,100.303c-1.881-2.776-6.033-5.723-9.274-6.583
						C76.353,96.496,80.505,99.443,83.746,100.303z"/>
				</g>
				<g>
					<path style="fill:#ECA85E;" d="M98.408,94.294c2.359-1.854,4.727-5.746,5.291-8.693
						C101.341,87.455,98.972,91.347,98.408,94.294z"/>
				</g>
				<g>
					<path style="fill:#ECA85E;" d="M97.225,108.711c-0.545-2.574-2.688-5.944-4.788-7.529
						C92.982,103.755,95.126,107.126,97.225,108.711z"/>
				</g>
				<g>
					<path style="fill:#F4D071;" d="M113.147,101.559c2.765-1.052,6.139-4.018,7.535-6.626
						C117.917,95.984,114.544,98.951,113.147,101.559z"/>
				</g>
				<g>
					<path style="fill:#ECA85E;" d="M107.704,80.729c-0.367-2.922-2.444-6.884-4.639-8.848
						C103.433,74.803,105.509,78.764,107.704,80.729z"/>
				</g>
				<g>
					<path style="fill:#F4D071;" d="M118.791,76.223c-3.072,2.432-6.149,7.525-6.873,11.375
						C114.991,85.167,118.068,80.074,118.791,76.223z"/>
				</g>
				<g>
					<path style="fill:#F4D071;" d="M117.718,64.59c-0.596,1.046-1.149,2.36-1.691,3.677c-0.536,1.32-1.061,2.645-1.369,3.809
						c0.995-0.673,1.964-1.912,2.538-3.331C117.781,67.33,117.957,65.767,117.718,64.59z"/>
				</g>
				<g>
					<path style="fill:#F4D071;" d="M108.789,65.738c1.503-2.221,2.459-6.179,2.136-8.841
						C109.423,59.118,108.466,63.076,108.789,65.738z"/>
				</g>
				<g>
					<path style="fill:#ECA85E;" d="M95.622,75.767c-0.1-3.256-1.974-7.835-4.186-10.227C91.535,68.796,93.41,73.375,95.622,75.767z
						"/>
				</g>
				<g>
					<path style="fill:#ECA85E;" d="M75.818,110.26c-0.912-3.02-3.816-6.83-6.486-8.51C70.244,104.77,73.148,108.58,75.818,110.26z"
						/>
				</g>
				<g>
					<path style="fill:#F4D071;" d="M139.004,104.589c-3.929,0.672-9.16,3.717-11.685,6.802
						C131.248,110.719,136.48,107.674,139.004,104.589z"/>
				</g>
				<g>
					<path style="fill:#F4D071;" d="M134.338,88.251c-2.567,1.985-5.162,6.174-5.797,9.356
						C131.108,95.622,133.703,91.433,134.338,88.251z"/>
				</g>
				<g>
					<path style="fill:#ECA85E;" d="M112.182,111.736c-1.043-2.961-4.102-6.618-6.832-8.168
						C106.393,106.529,109.452,110.186,112.182,111.736z"/>
				</g>
				<g>
					<path style="fill:#ECA85E;" d="M87.293,103.11c-2.409,1.739-4.91,5.494-5.587,8.387
						C84.115,109.758,86.617,106.003,87.293,103.11z"/>
				</g>
				<g>
					<path style="fill:#ECA85E;" d="M70.943,86.923c-1.246,2.729-1.567,7.274-0.717,10.151C71.472,94.345,71.793,89.8,70.943,86.923
						z"/>
				</g>
			</g>
		</g>
	</g>
</g>
</svg>
